<?xml version="1.0" standalone="no"?> 
<!DOCTYPE svg PUBLIC "-//W3C//DTD SVG 1.1//EN" "http://www.w3.org/Graphics/SVG/1.1/DTD/svg11.dtd" >
<svg xmlns="http://www.w3.org/2000/svg">
<defs>
  <font id="uod-icons" horiz-adv-x="54">
    <font-face font-family="uod-icons"
      units-per-em="512" ascent="512"
      descent="0" />
    <missing-glyph horiz-adv-x="0" />
    <glyph glyph-name="360-view"
      unicode="&#xEA01;"
      horiz-adv-x="512" d=" M-10193.18857142857 2323.017142857143C-10193.18857142857 2124.0685714285714 -10064.457142857142 1988.0228571428572 -9878.674285714285 1988.0228571428572C-9694.354285714284 1988.0228571428572 -9567.085714285715 2122.6057142857144 -9567.085714285715 2314.24C-9567.085714285715 2530.7428571428572 -9684.114285714286 2658.0114285714285 -9875.748571428572 2658.0114285714285C-10067.382857142857 2658.0114285714285 -10193.18857142857 2523.4285714285716 -10193.18857142857 2323.017142857143M-9119.451428571429 2308.3885714285716C-9119.451428571429 1909.0285714285717 -9454.445714285714 1595.9771428571428 -9880.137142857142 1595.9771428571428C-10317.531428571428 1595.9771428571428 -10634.971428571429 1900.2514285714285 -10634.971428571429 2323.017142857143C-10634.971428571429 2751.6342857142854 -10323.382857142857 3051.52 -9874.285714285714 3051.52C-9436.891428571429 3051.52 -9119.451428571429 2739.9314285714286 -9119.451428571429 2308.3885714285716 M-8902.948571428571 1246.3542857142857L-10079.085714285715 1079.5885714285714C-10026.422857142856 706.5600000000001 -10008.868571428571 326.2171428571429 -10029.34857142857 -52.6628571428571C-10196.114285714286 -3262.1714285714284 -12941.897142857144 -5734.4 -16149.942857142858 -5566.171428571429C-19356.525714285715 -5397.942857142857 -21828.754285714287 -2652.16 -21660.525714285715 555.8857142857142C-21492.297142857144 3762.468571428571 -18746.514285714286 6234.697142857142 -15539.93142857143 6066.4685714285715C-14043.428571428574 5987.4742857142855 -12642.01142857143 5335.04 -11619.474285714288 4255.451428571429L-12460.617142857145 3598.628571428571L-10103.954285714288 3308.9828571428566L-9814.308571428573 5665.645714285713L-10681.78285714286 4988.342857142856C-11919.360000000002 6335.6342857142845 -13639.68 7154.834285714284 -15478.491428571431 7251.382857142856C-19338.97142857143 7453.257142857143 -22645.02857142857 4477.805714285712 -22848.365714285716 615.8628571428558C-23050.24 -3246.0800000000013 -20074.788571428573 -6550.674285714286 -16212.845714285719 -6754.01142857143C-12352.365714285717 -6955.885714285716 -9046.308571428573 -3978.9714285714294 -8842.97142857143 -118.4914285714298C-8818.102857142856 339.3828571428571 -8838.582857142857 797.2571428571429 -8902.948571428571 1246.3542857142857 M-19720.77714285714 1221.4857142857143L-20276.662857142856 2805.76H-20444.891428571427L-19786.605714285713 961.0971428571432H-19653.485714285714L-18983.497142857144 2805.76H-19151.725714285716L-19720.77714285714 1221.4857142857143L-19720.77714285714 1221.4857142857143zM-18562.194285714286 2807.2228571428573H-18720.182857142856V962.5600000000002H-18562.194285714286V2807.2228571428573L-18562.194285714286 2807.2228571428573zM-17906.834285714285 1758.3542857142857L-17083.245714285713 961.0971428571428H-16868.205714285712L-17694.719999999998 1758.3542857142857C-17666.92571428571 1755.4285714285713 -17642.057142857142 1755.4285714285713 -17631.81714285714 1755.4285714285713C-17492.84571428571 1755.4285714285713 -17393.371428571427 1768.5942857142857 -17318.765714285713 1799.3142857142857C-17119.81714285714 1882.6971428571428 -17002.78857142857 2062.6285714285714 -17002.78857142857 2286.445714285714C-17002.78857142857 2603.885714285714 -17232.457142857143 2805.76 -17592.32 2805.76H-18064.822857142855V961.0971428571432H-17906.834285714285V1758.3542857142857L-17906.834285714285 1758.3542857142857zM-17906.834285714285 1879.7714285714285V2665.325714285714H-17602.559999999998C-17311.451428571425 2665.325714285714 -17162.24 2535.131428571428 -17162.24 2277.6685714285713C-17162.24 2017.2799999999995 -17330.468571428573 1879.7714285714285 -17640.594285714287 1879.7714285714285H-17906.834285714285L-17906.834285714285 1879.7714285714285zM-16180.662857142854 2665.325714285714H-15696.457142857142V2805.7599999999998H-16822.85714285714V2665.325714285714H-16338.651428571431V961.0971428571426H-16180.662857142857V2665.325714285714L-16180.662857142854 2665.325714285714zM-15283.931428571426 2807.2228571428573H-15441.919999999996V1701.3028571428572C-15441.919999999996 1410.1942857142858 -15411.2 1294.6285714285716 -15301.485714285714 1161.5085714285715C-15177.142857142857 1012.2971428571432 -14985.508571428572 928.9142857142858 -14776.32 928.9142857142858C-14568.594285714285 928.9142857142858 -14385.737142857142 1006.4457142857144 -14264.32 1146.88C-14148.754285714285 1282.9257142857145 -14109.257142857143 1417.5085714285715 -14109.257142857143 1699.8400000000001V2805.76H-14274.56V1707.1542857142858C-14274.56 1418.9714285714288 -14305.279999999999 1319.497142857143 -14423.771428571426 1209.7828571428572C-14517.394285714285 1126.4 -14662.217142857142 1070.8114285714287 -14783.634285714284 1070.8114285714287C-14905.051428571427 1070.8114285714287 -15054.262857142854 1126.4 -15140.571428571428 1203.9314285714288C-15245.897142857142 1297.554285714286 -15283.931428571426 1430.6742857142858 -15283.931428571426 1698.377142857143V2807.2228571428573L-15283.931428571426 2807.2228571428573zM-12696.137142857142 1445.3028571428572L-12516.205714285714 961.0971428571428H-12342.125714285714L-13044.297142857144 2805.7599999999998H-13215.45142857143L-13939.565714285714 961.0971428571426H-13781.577142857144L-13585.554285714288 1445.302857142857H-12696.137142857142L-12696.137142857142 1445.3028571428572zM-12750.262857142858 1590.1257142857144H-13527.04L-13134.994285714287 2596.5714285714284L-12750.262857142858 1590.1257142857144L-12750.262857142858 1590.1257142857144zM-11914.971428571429 1119.0857142857144V2805.76H-12072.96V961.0971428571432H-11249.371428571429V1119.0857142857144H-11914.971428571429L-11914.971428571429 1119.0857142857144z M-19305.325714285715 59.9771428571429H-18699.702857142856V488.5942857142857H-20440.502857142856V58.5142857142857H-19830.491428571426V-2069.942857142857H-19305.32571428571V59.9771428571429L-19305.325714285715 59.9771428571429zM-17280.731428571427 538.3314285714285C-18039.954285714284 538.3314285714285 -18622.17142857143 -43.8857142857142 -18622.17142857143 -803.1085714285714C-18622.17142857143 -1538.925714285714 -18035.565714285716 -2118.217142857143 -17288.045714285712 -2118.217142857143C-16563.931428571428 -2118.217142857143 -15980.251428571428 -1531.6114285714289 -15980.251428571428 -803.1085714285714C-15980.251428571428 -431.5428571428571 -16087.039999999997 -136.0457142857143 -16306.468571428566 109.7142857142856C-16561.00571428571 386.1942857142858 -16906.24 538.3314285714285 -17280.731428571427 538.3314285714285L-17280.731428571427 538.3314285714285zM-17296.82285714286 52.6628571428572C-16844.8 52.6628571428572 -16514.194285714286 -311.5885714285714 -16514.194285714286 -806.0342857142855C-16514.194285714286 -1269.76 -16859.428571428572 -1634.0114285714285 -17299.748571428572 -1634.0114285714285C-17744.457142857147 -1634.0114285714285 -18085.30285714286 -1269.7599999999998 -18085.30285714286 -794.3314285714282C-18086.765714285713 -308.6628571428571 -17748.84571428571 52.6628571428572 -17296.82285714286 52.6628571428572L-17296.82285714286 52.6628571428572zM-15084.982857142857 488.5942857142857H-15610.148571428574V-991.8171428571426C-15610.148571428574 -1386.7885714285715 -15544.32 -1616.4571428571426 -15380.48 -1800.7771428571427C-15200.548571428573 -2004.1142857142856 -14916.754285714285 -2119.68 -14606.628571428573 -2119.68C-14308.205714285716 -2119.68 -14039.040000000003 -2012.8914285714288 -13866.422857142858 -1821.2571428571428C-13693.805714285716 -1629.6228571428574 -13613.348571428573 -1369.2342857142855 -13613.348571428573 -993.28V488.5942857142857H-14142.902857142859V-1006.4457142857144C-14142.902857142859 -1244.8914285714284 -14166.308571428573 -1356.0685714285712 -14242.377142857144 -1458.4685714285713C-14318.445714285717 -1565.2571428571428 -14464.731428571431 -1635.4742857142855 -14613.942857142858 -1635.4742857142855C-14755.840000000004 -1635.4742857142855 -14893.348571428573 -1574.0342857142855 -14970.88 -1478.9485714285713C-15055.725714285716 -1379.4742857142853 -15086.445714285719 -1249.2799999999997 -15086.445714285719 -1010.8342857142856V488.5942857142857L-15084.982857142857 488.5942857142857zM-12592.274285714284 -1051.7942857142857L-11890.102857142856 -2068.48H-11253.759999999998L-11958.857142857143 -1086.9028571428573C-11563.885714285714 -987.4285714285716 -11353.234285714285 -718.2628571428572 -11353.234285714285 -315.977142857143C-11353.234285714285 209.1885714285713 -11694.08 488.5942857142856 -12327.497142857143 488.5942857142856H-13117.44V-2068.4800000000005H-12592.274285714286V-1051.7942857142857L-12592.274285714284 -1051.7942857142857zM-12592.274285714284 -746.0571428571427V55.5885714285715H-12308.48C-12048.091428571428 55.5885714285715 -11887.177142857143 -98.0114285714286 -11887.177142857143 -343.7714285714286C-11887.177142857143 -601.2342857142855 -12055.405714285715 -746.0571428571427 -12355.291428571429 -746.0571428571427H-12592.274285714284L-12592.274285714284 -746.0571428571427z M460.8 330.6057142857143C460.8 323.2914285714286 465.1885714285714 318.9028571428571 472.5028571428571 318.9028571428571C479.8171428571428 318.9028571428571 484.2057142857142 323.2914285714286 484.2057142857142 330.6057142857143C484.2057142857142 337.92 479.8171428571428 343.7714285714286 472.5028571428571 343.7714285714286C465.1885714285714 343.7714285714286 460.8 337.92 460.8 330.6057142857143M498.8342857142857 330.6057142857143C498.8342857142857 315.9771428571429 487.1314285714286 304.2742857142857 471.04 304.2742857142857C454.9485714285714 304.2742857142857 443.2457142857143 315.9771428571429 443.2457142857143 330.6057142857143C443.2457142857143 346.6971428571429 454.9485714285715 356.9371428571429 471.04 356.9371428571429C487.1314285714285 356.9371428571429 498.8342857142857 346.6971428571429 498.8342857142857 330.6057142857143 M507.6114285714286 292.5714285714286L465.1885714285715 286.7200000000001C466.6514285714287 273.5542857142857 468.1142857142858 258.9257142857143 466.6514285714287 245.76C460.8000000000001 130.1942857142857 361.3257142857144 40.96 245.7600000000001 46.8114285714286C130.1942857142858 52.6628571428572 40.9600000000001 152.1371428571429 46.8114285714286 267.7028571428573C52.6628571428572 383.2685714285715 152.137142857143 472.5028571428572 267.7028571428572 466.6514285714287C321.8285714285715 463.7257142857143 373.0285714285715 440.3200000000001 409.6 400.8228571428572L378.88 377.417142857143L463.7257142857143 367.177142857143L473.9657142857143 452.0228571428572L443.2457142857143 427.1542857142858C397.8971428571429 475.4285714285714 336.4571428571429 506.1485714285714 269.1657142857143 509.0742857142857C130.1942857142857 516.3885714285715 10.24 409.6 2.9257142857143 269.1657142857143C-4.3885714285714 130.1942857142857 102.4 10.2400000000001 242.8342857142858 2.9257142857143C381.8057142857143 -4.3885714285714 501.7599999999999 103.8628571428572 509.0742857142857 242.8342857142858C510.5371428571428 258.9257142857143 509.0742857142857 276.48 507.6114285714286 292.5714285714286 M115.5657142857143 291.1085714285715L95.0857142857143 348.1600000000001H89.2342857142857L112.64 280.8685714285715H117.0285714285714L141.8971428571429 348.1600000000001H136.0457142857143L115.5657142857143 291.1085714285715L115.5657142857143 291.1085714285715zM157.9885714285715 348.1600000000001H152.1371428571429V280.8685714285715H157.9885714285715V348.1600000000001L157.9885714285715 348.1600000000001zM181.3942857142857 310.1257142857143L210.6514285714286 280.8685714285714H219.4285714285714L190.1714285714286 310.1257142857143C191.6342857142857 310.1257142857143 191.6342857142857 310.1257142857143 193.0971428571429 310.1257142857143C197.4857142857143 310.1257142857143 201.8742857142857 310.1257142857143 204.8 311.5885714285714C212.1142857142857 314.5142857142858 216.5028571428572 320.3657142857143 216.5028571428572 329.1428571428571C216.5028571428572 340.8457142857143 207.7257142857143 348.16 194.56 348.16H175.5428571428572V280.8685714285714H181.3942857142857V310.1257142857143L181.3942857142857 310.1257142857143zM181.3942857142857 314.5142857142858V342.3085714285715H193.0971428571429C203.3371428571429 342.3085714285715 209.1885714285714 337.92 209.1885714285714 327.68C209.1885714285714 318.9028571428572 203.3371428571429 313.0514285714286 191.6342857142858 313.0514285714286H181.3942857142857L181.3942857142857 314.5142857142858zM244.2971428571429 343.7714285714286H261.8514285714286V348.1600000000001H220.8914285714285V343.7714285714286H238.4457142857143V282.3314285714286H244.2971428571428V343.7714285714286L244.2971428571429 343.7714285714286zM276.48 348.1600000000001H270.6285714285715V308.6628571428572C270.6285714285715 298.4228571428572 272.0914285714286 294.0342857142857 275.0171428571429 289.6457142857143C279.4057142857143 283.7942857142857 286.7200000000001 280.8685714285715 294.0342857142857 280.8685714285715C301.3485714285715 280.8685714285715 308.6628571428572 283.7942857142857 313.0514285714286 288.1828571428572C317.4400000000001 292.5714285714286 318.9028571428572 298.4228571428572 318.9028571428572 308.6628571428572V348.1600000000001H313.0514285714286V308.6628571428572C313.0514285714286 298.4228571428572 311.5885714285714 294.0342857142857 307.2000000000001 291.1085714285715C304.2742857142858 288.1828571428572 298.4228571428572 286.7200000000001 294.0342857142858 286.7200000000001C289.6457142857144 286.7200000000001 283.7942857142858 288.1828571428572 280.8685714285715 291.1085714285715C276.4800000000001 294.0342857142857 275.017142857143 299.8857142857144 275.017142857143 308.6628571428572V348.1600000000001L276.48 348.1600000000001zM370.1028571428572 299.8857142857143L375.9542857142857 282.3314285714286H381.8057142857143L356.9371428571428 349.6228571428572H351.0857142857143L324.7542857142857 282.3314285714286H330.6057142857143L337.92 299.8857142857143H370.1028571428572L370.1028571428572 299.8857142857143zM367.1771428571429 304.2742857142857H339.3828571428572L354.0114285714286 340.8457142857143L367.1771428571429 304.2742857142857L367.1771428571429 304.2742857142857zM397.8971428571429 286.7200000000001V348.1600000000001H392.0457142857143V280.8685714285715H421.3028571428572V286.7200000000001H397.8971428571429L397.8971428571429 286.7200000000001z M130.1942857142857 248.6857142857143H152.1371428571429V264.7771428571429H89.2342857142857V248.6857142857143H111.1771428571429V171.1542857142857H130.1942857142857V248.6857142857143L130.1942857142857 248.6857142857143zM203.3371428571429 266.24C175.5428571428572 266.24 155.0628571428572 245.76 155.0628571428572 217.9657142857143C155.0628571428572 191.6342857142857 177.0057142857143 169.6914285714286 203.3371428571429 169.6914285714286C229.6685714285715 169.6914285714286 250.1485714285715 191.6342857142857 250.1485714285715 217.9657142857143C250.1485714285715 231.1314285714286 245.76 241.3714285714286 238.4457142857143 251.6114285714286C229.6685714285714 260.3885714285715 217.9657142857143 266.24 203.3371428571429 266.24L203.3371428571429 266.24zM203.3371428571429 248.6857142857143C219.4285714285714 248.6857142857143 231.1314285714286 235.5200000000001 231.1314285714286 217.9657142857143C231.1314285714286 201.8742857142857 217.9657142857143 188.7085714285714 203.3371428571429 188.7085714285714C187.2457142857143 188.7085714285714 175.5428571428572 201.8742857142857 175.5428571428572 219.4285714285715C175.5428571428572 235.5200000000001 187.2457142857143 248.6857142857143 203.3371428571429 248.6857142857143L203.3371428571429 248.6857142857143zM283.7942857142857 264.7771428571429H264.7771428571428V210.6514285714286C264.7771428571428 196.0228571428572 267.7028571428571 188.7085714285715 273.5542857142857 181.3942857142857C279.4057142857143 174.0800000000001 289.6457142857143 169.6914285714286 301.3485714285714 169.6914285714286C311.5885714285714 169.6914285714286 321.8285714285714 174.0800000000001 327.68 179.9314285714286C333.5314285714286 187.2457142857143 336.4571428571429 196.0228571428572 336.4571428571429 209.1885714285714V263.3142857142857H317.44V209.1885714285714C317.44 200.4114285714286 315.9771428571429 196.0228571428572 314.5142857142857 193.0971428571429C311.5885714285714 188.7085714285714 307.2 187.2457142857143 301.3485714285715 187.2457142857143C295.4971428571429 187.2457142857143 291.1085714285715 190.1714285714286 288.1828571428572 193.0971428571429C285.2571428571429 196.0228571428571 283.7942857142858 201.8742857142858 283.7942857142858 210.6514285714286V264.7771428571429L283.7942857142857 264.7771428571429zM373.0285714285714 209.1885714285714L397.8971428571429 172.6171428571429H421.3028571428572L396.4342857142858 207.7257142857143C411.0628571428572 210.6514285714286 418.3771428571429 220.8914285714286 418.3771428571429 235.52C418.3771428571429 254.5371428571429 406.6742857142857 264.7771428571429 383.2685714285715 264.7771428571429H354.0114285714286V172.6171428571428H373.0285714285715V209.1885714285714L373.0285714285714 209.1885714285714zM373.0285714285714 219.4285714285715V248.6857142857143H383.2685714285714C392.0457142857143 248.6857142857143 397.8971428571429 242.8342857142858 397.8971428571429 234.0571428571429C397.8971428571429 225.28 392.0457142857143 219.4285714285715 380.3428571428572 219.4285714285715H373.0285714285714L373.0285714285714 219.4285714285715z" />
    <glyph glyph-name="arrows"
      unicode="&#xEA02;"
      horiz-adv-x="265.39154285714284" d=" M132.6957714285714 512L0 287.4368L265.3915428571429 287.4368z M132.6957714285714 0L265.3915428571429 224.5632L0 224.5632z" />
    <glyph glyph-name="bolt"
      unicode="&#xEA03;"
      horiz-adv-x="585.1428571428571" d=" M438.8571428571429 510.8297142857143H146.2857142857143L0 254.8297142857143L146.2857142857143 -1.1702857142857H438.8571428571429L585.1428571428571 254.8297142857143zM418.3771428571429 35.5474285714286H167.7897142857143L42.4228571428572 254.976L167.7897142857143 474.4045714285714H418.3771428571429L543.5977142857143 254.976z M292.5714285714286 381.3668571428572A126.53714285714287 126.53714285714287 0 1 1 417.7920000000001 254.8297142857143A125.95199999999998 125.95199999999998 0 0 1 292.5714285714286 381.3668571428572zM292.5714285714286 165.0102857142857A89.81942857142856 89.81942857142856 0 1 0 381.5131428571429 254.8297142857143A89.38057142857143 89.38057142857143 0 0 0 292.5714285714286 165.0102857142857z" />
    <glyph glyph-name="camera-phone"
      unicode="&#xEA04;"
      horiz-adv-x="321.8285714285714" d=" M85.5771428571429 464.1645714285714A39.497142857142855 39.497142857142855 0 1 1 125.0742857142857 424.2285714285714A39.497142857142855 39.497142857142855 0 0 1 85.5771428571429 464.1645714285714zM85.5771428571429 406.9668571428572A17.700571428571426 17.700571428571426 0 1 0 85.5771428571429 442.368A17.700571428571426 17.700571428571426 0 1 0 85.5771428571429 406.9668571428572z M278.9668571428571 512H43.008A43.007999999999996 43.007999999999996 0 0 1 0 468.1142857142857V42.7154285714286A43.007999999999996 43.007999999999996 0 0 1 43.008 0H278.9668571428571A42.861714285714285 42.861714285714285 0 0 1 321.8285714285714 42.7154285714286V468.1142857142857A43.007999999999996 43.007999999999996 0 0 1 278.9668571428571 512zM285.6960000000001 42.8617142857143A6.875428571428571 6.875428571428571 0 0 0 278.9668571428571 36.1325714285715H43.008A6.875428571428571 6.875428571428571 0 0 0 36.2788571428571 42.8617142857143V468.1142857142857A6.875428571428571 6.875428571428571 0 0 0 43.008 474.9897142857143H278.9668571428571A6.875428571428571 6.875428571428571 0 0 0 285.6960000000001 468.1142857142857z" />
    <glyph glyph-name="chevron-down"
      unicode="&#xEA05;"
      horiz-adv-x="896" d=" M896 439.7568L896 439.7824L822.656 512L448 143.0272L73.344 512L0 439.7568L448 -1.4592z" />
    <glyph glyph-name="chevron-left"
      unicode="&#xEA06;"
      horiz-adv-x="292.57142857142856" d=" M252.1088000000001 0L252.1380571428572 0L293.4052571428571 41.9108571428572L82.5490285714286 256L293.4052571428571 470.0891428571429L252.1234285714286 512L0 256z" />
    <glyph glyph-name="chevron-right"
      unicode="&#xEA07;"
      horiz-adv-x="292.57142857142856" d=" M41.2818285714286 512L41.2672 512L0 470.0891428571429L210.8416 256L0 41.9108571428572L41.2818285714286 0L293.4052571428571 256z" />
    <glyph glyph-name="chevron-up"
      unicode="&#xEA08;"
      horiz-adv-x="896" d=" M0 70.8095999999999L0 70.7583999999999L73.344 -1.4592L448 367.5392L822.656 -1.4592L896 70.784L448 512z" />
    <glyph glyph-name="cloud"
      unicode="&#xEA09;"
      horiz-adv-x="775.3142857142857" d=" M619.52 0H155.7942857142857A159.59771428571432 159.59771428571432 0 0 0 0 162.6697142857143A162.37714285714284 162.37714285714284 0 0 0 87.7714285714286 308.9554285714286A153.6 153.6 0 0 0 241.3714285714286 451.7302857142857A155.50171428571426 155.50171428571426 0 0 0 321.8285714285714 428.9097142857143A199.24114285714282 199.24114285714282 0 0 0 683.0079999999999 313.344V311.1497142857143A163.10857142857142 163.10857142857142 0 0 0 775.3142857142857 162.6697142857143A159.59771428571432 159.59771428571432 0 0 0 619.52 0zM241.3714285714286 414.5737142857143A117.02857142857142 117.02857142857142 0 0 1 124.3428571428572 298.5691428571429V286.1348571428572L112.7862857142857 279.9908571428572A126.68342857142856 126.68342857142856 0 0 1 36.5714285714286 162.9622857142857A122.44114285714285 122.44114285714285 0 0 1 155.2091428571428 37.4491428571429H618.9348571428571A122.44114285714285 122.44114285714285 0 0 1 737.5725714285715 162.9622857142857A125.22057142857145 125.22057142857145 0 0 1 658.2857142857142 281.6L644.9737142857143 286.4274285714286L645.9977142857143 301.0560000000001C645.9977142857143 305.2982857142858 645.9977142857143 309.5405714285714 645.9977142857143 313.9291428571429A162.0845714285714 162.0845714285714 0 0 1 343.1862857142858 393.9474285714286L332.2148571428572 374.9302857142857L315.2457142857143 388.8274285714286A117.02857142857142 117.02857142857142 0 0 1 241.3714285714286 414.5737142857143z" />
    <glyph glyph-name="comment"
      unicode="&#xEA0A;"
      horiz-adv-x="512" d=" M59.392 0V106.6422857142857A248.6857142857143 248.6857142857143 0 1 0 141.4582857142857 38.6194285714286zM142.9211428571429 80.7497142857143L151.2594285714286 75.9222857142858A213.43085714285712 213.43085714285712 0 1 1 92.7451428571429 125.2205714285715L97.1337142857143 119.9542857142858V58.5142857142857z" />
    <glyph glyph-name="comments"
      unicode="&#xEA0B;"
      horiz-adv-x="789.9428571428571" d=" M787.1634285714285 312.0274285714286A209.1885714285714 209.1885714285714 0 1 1 580.4617142857143 68.7542857142857A202.60571428571424 202.60571428571424 0 0 1 615.424 71.68A209.91999999999996 209.91999999999996 0 0 1 704.9508571428571 109.4217142857143L779.9954285714285 87.7714285714286L765.3668571428572 177.7371428571428A209.91999999999996 209.91999999999996 0 0 1 787.1634285714285 312.0274285714286zM733.9154285714286 139.5565714285714L696.7588571428572 149.9428571428572L689.2982857142857 143.9451428571429A173.34857142857138 173.34857142857138 0 0 0 609.2800000000001 107.9588571428571A172.03199999999998 172.03199999999998 0 1 0 729.6731428571429 191.0491428571429L726.3085714285716 185.1977142857143z M346.5508571428572 242.9805714285714A199.97257142857143 199.97257142857143 0 0 0 403.6022857142857 418.5234285714286L416.9142857142857 431.8354285714286L403.456 444.8548571428571A239.03085714285712 239.03085714285712 0 0 1 198.656 509.0742857142857A236.83657142857143 236.83657142857143 0 0 1 77.3851428571429 100.0594285714286L94.208 0L165.4491428571429 49.152A238.29942857142854 238.29942857142854 0 0 1 404.7725714285715 106.496L418.0845714285715 119.8080000000001L404.6262857142857 132.8274285714286A198.21714285714287 198.21714285714287 0 0 0 346.5508571428572 242.9805714285714zM270.9211428571429 77.5314285714286A201.1428571428571 201.1428571428571 0 0 0 168.5211428571429 86.8937142857143L159.4514285714286 90.112L120.9782857142857 63.3417142857143L111.616 119.0765714285714L106.6422857142857 123.4651428571428A199.97257142857143 199.97257142857143 0 0 0 204.8 472.3565714285714A187.6845714285714 187.6845714285714 0 0 0 237.4217142857143 475.136A202.31314285714285 202.31314285714285 0 0 0 364.1051428571429 430.0800000000001A235.81257142857143 235.81257142857143 0 0 1 365.7142857142857 120.6857142857143A197.92457142857143 197.92457142857143 0 0 0 270.9211428571429 77.5314285714286z" />
    <glyph glyph-name="cross"
      unicode="&#xEA0C;"
      horiz-adv-x="511.98537142857145" d=" M511.9853714285715 473.7170285714286L473.7024 512L256 294.2829714285715L38.2829714285714 512L0 473.7170285714286L217.7170285714286 256L0 38.2829714285714L38.2829714285714 0L256 217.7170285714286L473.7024 0L511.9853714285715 38.2829714285714L294.2683428571429 256z" />
    <glyph glyph-name="down-arrow"
      unicode="&#xEA0D;"
      horiz-adv-x="382.8589714285714" d=" M348.5696 237.8166857142858L220.6573714285714 100.1764571428572L220.6573714285714 512L162.1430857142857 512L162.1430857142857 100.2642285714286L34.2893714285714 237.8166857142858L0 205.8825142857143L191.4441142857143 0L382.8589714285714 205.8825142857143z" />
    <glyph glyph-name="external-link"
      unicode="&#xEA0E;"
      horiz-adv-x="548.0886857142857" d=" M504.0420571428572 0.6875428571428C504.0420571428572 0.3078234222878 504.3498805651449 0 504.7296 0C505.109319434855 0 505.4171428571428 0.3078234222878 505.4171428571428 0.6875428571428C505.4171428571428 1.0672622919979 505.109319434855 1.3750857142857 504.7296 1.3750857142857C504.3498805651449 1.3750857142857 504.0420571428572 1.0672622919979 504.0420571428572 0.6875428571428z M446.2884571428571 60.5184L60.5184 60.5184L60.5184 400.896L287.4368 400.896L287.4368 461.4144L0 461.4144L0 0L506.7922285714286 0L506.7922285714286 239.4697142857143L446.2884571428571 239.4697142857143z M351.4075428571428 512L351.4075428571428 451.4816L447.5172571428571 451.4816L239.5428571428572 243.5218285714286L282.3314285714286 200.7332571428572L487.5702857142857 405.9721142857143L487.5702857142857 315.3334857142857L548.0886857142857 315.3334857142857L548.0886857142857 512z" />
    <glyph glyph-name="facebook"
      unicode="&#xEA0F;"
      horiz-adv-x="512" d=" M483.7375999999999 512H28.2624C12.6537142857143 512 0 499.3462857142857 0 483.7376V28.2477714285714C0 12.6537142857143 12.6537142857143 0 28.2624 0H273.4811428571429V198.2756571428572H206.7602285714286V275.5437714285714H273.4811428571429V332.5220571428571C273.4811428571429 398.6578285714286 313.8706285714286 434.6587428571429 372.8676571428572 434.6587428571429C401.1300571428572 434.6587428571429 425.4134857142857 432.5522285714286 432.4937142857143 431.616V362.5106285714286L391.5776 362.496C359.4971428571428 362.496 353.2800000000001 347.2530285714286 353.2800000000001 324.8713142857143V275.5437714285714H429.8020571428571L419.84 198.2756571428572H353.28V0H483.7522285714286C499.3462857142857 0 512 12.6537142857143 512 28.2624000000001V483.7376C512 499.3462857142857 499.3462857142857 512 483.7375999999999 512z" />
    <glyph glyph-name="film"
      unicode="&#xEA10;"
      horiz-adv-x="512" d=" M512 250.2948571428572H425.6914285714286V332.9462857142858H396.4342857142858A107.95885714285714 107.95885714285714 0 1 1 215.04 444.1234285714286A107.81257142857143 107.81257142857143 0 1 1 33.6457142857143 332.9462857142858H0V0H425.6914285714286V82.6514285714285H512zM314.9531428571429 474.6971428571429A70.94857142857143 70.94857142857143 0 0 0 316.2697142857143 332.9462857142858H313.6365714285714A70.94857142857143 70.94857142857143 0 0 0 314.9531428571429 474.6971428571429zM234.0571428571429 332.9462857142858H196.3154285714286A104.3017142857143 104.3017142857143 0 0 1 214.8937142857143 363.3737142857143A107.95885714285714 107.95885714285714 0 0 1 234.0571428571429 332.9462857142858zM43.8857142857143 403.7485714285715A70.656 70.656 0 1 0 117.0285714285714 332.9462857142858H113.664A70.8022857142857 70.8022857142857 0 0 0 43.8857142857143 403.7485714285715zM388.5348571428571 37.3028571428571H37.4491428571428V295.6434285714286H388.5348571428571V37.3028571428571zM474.8434285714285 119.9542857142857H425.6914285714286V212.992H474.8434285714285z" />
    <glyph glyph-name="filter-funnel"
      unicode="&#xEA11;"
      horiz-adv-x="450.8233142857143" d=" M184.9490285714286 0C180.5312 0 176.0548571428572 0.8630857142857 171.7833142857143 2.6331428571428C158.9394285714286 7.9579428571428 150.6304 20.3922285714286 150.6304 34.304V223.5392L3.7595428571429 471.2886857142857C-1.1702857142857 479.5977142857143 -1.2580571428571 489.984 3.5254857142857 498.3808C8.3236571428571 506.7776 17.2909714285714 512 26.9604571428571 512H423.8628571428572C433.7225142857143 512 442.7776 506.6313142857143 447.5172571428572 497.9712S451.8765714285714 478.7931428571429 446.5664 470.4841142857143L287.6123428571429 221.6228571428571V99.6937142857143C287.6123428571429 92.4818285714286 284.8036571428572 85.7088 279.7129142857143 80.6180571428571L209.1593142857143 10.0644571428572C202.5910857142857 3.4816 193.8578285714286 0 184.9490285714286 0zM53.1894857142857 470.0891428571429L188.7670857142857 241.3568C191.2539428571429 237.1145142857144 192.5266285714286 232.3894857142858 192.5266285714286 227.6059428571429V52.6921142857143L245.7014857142857 105.8669714285715V225.9675428571429C245.7014857142857 231.1021714285715 247.1497142857143 236.0905142857144 249.8998857142857 240.4352000000001L396.5805714285715 470.0891428571429H53.1894857142857zM411.2530285714286 493.0852571428571C411.2530285714286 493.0706285714286 411.2530285714286 493.0706285714286 411.2384 493.056L411.2530285714286 493.0852571428571z" />
    <glyph glyph-name="flickr"
      unicode="&#xEA12;"
      horiz-adv-x="512" d=" M464.0036571428572 512H47.9963428571429C21.5917714285714 512 0 490.4082285714286 0 464.0036571428572V47.9963428571429C0 21.5917714285714 21.5917714285714 0 47.9963428571429 0H464.0036571428571C490.4082285714286 0 512 21.5917714285714 512 47.9963428571429V464.0036571428572C512 490.4082285714286 490.4082285714286 512 464.0036571428572 512zM144.0036571428571 175.9963428571429C99.8107428571428 175.9963428571429 64 211.8070857142857 64 256C64 300.1929142857143 99.8107428571428 336.0036571428572 144.0036571428571 336.0036571428572S224.0073142857143 300.1929142857143 224.0073142857143 256C223.9926857142857 211.8070857142857 188.1819428571429 175.9963428571429 144.0036571428571 175.9963428571429zM367.9963428571429 175.9963428571429C323.8034285714286 175.9963428571429 287.9926857142857 211.8070857142857 287.9926857142857 256C287.9926857142857 300.1929142857143 323.8034285714286 336.0036571428572 367.9963428571429 336.0036571428572S448 300.1929142857143 448 256C448 211.8070857142857 412.1892571428571 175.9963428571429 367.9963428571429 175.9963428571429z" />
    <glyph glyph-name="graduation-cap"
      unicode="&#xEA13;"
      horiz-adv-x="687.5428571428571" d=" M577.2434285714286 0A17.407999999999998 17.407999999999998 0 0 0 567.296 3.072A17.846857142857143 17.846857142857143 0 0 0 559.9817142857142 19.6022857142858L570.5142857142857 103.5702857142857V123.7577142857143A37.888 37.888 0 0 0 581.632 151.2594285714286A35.84 35.84 0 0 0 591.286857142857 158.5737142857143L591.286857142857 291.4011428571429L541.2571428571429 271.7988571428571L541.2571428571429 176.7131428571428C541.2571428571429 107.2274285714286 455.6799999999999 52.3702857142857 345.5268571428571 51.7851428571429S148.7725714285714 105.0331428571429 148.3337142857143 174.5188571428572L148.3337142857143 269.1657142857143L19.456 318.6102857142858A30.281142857142857 30.281142857142857 0 0 0 18.2857142857143 374.784L312.9051428571429 505.5634285714286A74.16685714285715 74.16685714285715 0 0 0 371.4194285714286 505.5634285714286L669.5497142857143 378.1485714285714A29.257142857142856 29.257142857142856 0 0 0 687.5428571428571 350.208A29.257142857142856 29.257142857142856 0 0 0 668.5257142857143 322.8525714285714L624.64 305.2982857142858L625.5177142857143 159.0125714285715A38.61942857142857 38.61942857142857 0 0 0 646.729142857143 124.4891428571429V105.0331428571429L657.2617142857143 53.6868571428572A17.993142857142857 17.993142857142857 0 0 0 648.0457142857143 34.3771428571429L585.1428571428571 1.9017142857143A16.53028571428571 16.53028571428571 0 0 0 577.2434285714286 0zM604.5988571428571 100.2057142857143L598.4548571428571 48.128L620.5439999999999 59.3920000000001L612.4982857142857 99.0354285714286L612.4982857142857 101.0834285714286A9.654857142857143 9.654857142857143 0 0 0 612.4982857142857 103.1314285714287V124.0502857142857A3.657142857142857 3.657142857142857 0 0 1 608.8411428571428 127.7074285714286H608.8411428571428A4.095999999999999 4.095999999999999 0 0 1 606.208 126.5371428571429A3.657142857142857 3.657142857142857 0 0 1 605.184 124.0502857142857V101.6685714285715A4.534857142857143 4.534857142857143 0 0 0 604.5988571428571 100.2057142857143zM182.8571428571429 255.7074285714286L182.8571428571429 174.6651428571429C182.8571428571429 126.5371428571429 257.7554285714286 86.8937142857143 344.7954285714286 86.8937142857143S505.7097142857143 128.4388571428572 505.7097142857143 176.5668571428572L505.7097142857143 257.9017142857143L378.4411428571429 207.1405714285714A94.208 94.208 0 0 0 309.5405714285714 207.1405714285714zM171.8857142857143 297.5451428571429L321.8285714285714 239.7622857142857A59.39199999999998 59.39199999999998 0 0 1 365.7142857142857 239.7622857142857L516.096 299.7394285714286L517.12 299.7394285714286L544.1828571428572 310.5645714285714L340.5531428571429 349.4765714285715A17.846857142857143 17.846857142857143 0 0 0 325.9245714285715 370.1028571428572A17.407999999999998 17.407999999999998 0 0 0 346.2582857142857 384.7314285714286L604.8914285714286 336.0182857142858L643.6571428571428 351.0857142857143L358.4 473.5268571428571H358.4A39.20457142857143 39.20457142857143 0 0 1 326.9485714285715 473.5268571428571L42.8617142857143 347.2822857142858L171.008 297.9840000000001zM32.1828571428571 342.6011428571429H32.1828571428571zM655.9451428571429 345.6731428571429H655.9451428571429zM31.744 351.0857142857143H31.744zM655.9451428571429 355.0354285714286H655.9451428571429z" />
    <glyph glyph-name="information-icon-2"
      unicode="&#xEA14;"
      horiz-adv-x="512" d=" M256 512A256 256 0 1 1 512 256A256.29257142857136 256.29257142857136 0 0 1 256 512zM256 37.5954285714286A218.40457142857142 218.40457142857142 0 1 0 474.4045714285714 256A219.42857142857142 219.42857142857142 0 0 0 256 37.5954285714286z M316.8548571428572 167.2045714285715H316.8548571428572L316.1234285714286 167.2045714285715H314.0754285714285L312.1737142857143 167.2045714285715H312.1737142857143L310.4182857142857 166.4731428571429H310.4182857142857A14.628571428571428 14.628571428571428 0 0 1 307.4925714285714 164.1325714285714H307.4925714285714L306.4685714285714 162.9622857142857H306.4685714285714L305.7371428571429 161.9382857142857H305.7371428571429L305.7371428571429 161.9382857142857H305.7371428571429A110.73828571428571 110.73828571428571 0 0 0 276.48 128.5851428571429A10.678857142857142 10.678857142857142 0 0 0 269.4582857142857 125.5131428571429S268.1417142857143 126.2445714285714 267.5565714285715 126.8297142857143A4.388571428571429 4.388571428571429 0 0 0 266.24 129.4628571428571A99.32799999999997 99.32799999999997 0 0 0 270.6285714285715 150.8205714285715L287.8902857142857 211.0902857142857H287.8902857142857L292.5714285714286 229.5222857142857V229.5222857142857L304.128 269.4582857142858A99.91314285714284 99.91314285714284 0 0 1 309.248 297.2525714285715A38.473142857142854 38.473142857142854 0 0 1 297.1062857142857 326.5097142857143A44.61714285714285 44.61714285714285 0 0 1 265.216 338.0662857142858C231.8628571428572 338.0662857142858 200.4114285714286 312.4662857142858 171.3005714285715 262.144A10.971428571428572 10.971428571428572 0 0 1 173.7874285714286 249.7097142857143L175.1040000000001 248.8320000000001H175.1040000000001L175.5428571428572 248.6857142857143H177.7371428571429L179.4925714285714 248.6857142857143H179.4925714285714L181.248 249.4171428571429L181.248 249.4171428571429A10.971428571428572 10.971428571428572 0 0 1 184.1737142857143 251.6114285714286V251.6114285714286A3.949714285714286 3.949714285714286 0 0 1 185.1977142857143 252.7817142857143H185.1977142857143L185.1977142857143 253.6594285714285H185.1977142857143L185.1977142857143 254.3908571428571H185.1977142857143V254.3908571428571A112.78628571428571 112.78628571428571 0 0 0 214.4548571428571 287.7439999999999A10.532571428571428 10.532571428571428 0 0 0 221.4765714285714 290.6697142857143S222.7931428571429 290.6697142857143 223.3782857142857 289.3531428571428A4.388571428571429 4.388571428571429 0 0 0 224.6948571428571 286.7199999999999A99.32799999999997 99.32799999999997 0 0 0 220.3062857142857 265.3622857142857L208.6034285714285 224.256H208.6034285714285L204.8 205.6777142857143V205.6777142857143L187.6845714285714 147.1634285714286A99.03542857142857 99.03542857142857 0 0 1 182.5645714285715 119.5154285714286A39.350857142857144 39.350857142857144 0 0 1 194.7062857142857 90.2582857142857A43.885714285714286 43.885714285714286 0 0 1 226.5965714285714 78.848C259.9497142857143 78.848 291.4011428571429 104.3017142857142 320.512 154.624A11.117714285714285 11.117714285714285 0 0 1 318.0251428571429 167.2045714285714z M286.5737142857143 443.0994285714286A46.079999999999984 46.079999999999984 0 1 1 332.6537142857143 397.0194285714286A46.079999999999984 46.079999999999984 0 0 1 286.5737142857143 443.0994285714286z" />
    <glyph glyph-name="information-icon"
      unicode="&#xEA15;"
      horiz-adv-x="512" d=" M256 512C114.8342857142857 512 0 397.1657142857144 0 256S114.8342857142857 0 256 0S512 114.8342857142857 512 256S397.1657142857143 512 256 512zM256 52.5165714285715C143.7988571428572 52.5165714285715 52.5165714285714 143.7988571428571 52.5165714285714 256S143.7988571428572 459.4834285714286 256 459.4834285714286S459.4834285714285 368.2011428571429 459.4834285714285 256S368.2011428571429 52.5165714285715 256 52.5165714285715z M226.7428571428572 287.2466285714286H285.2571428571429V122.3533714285714H226.7428571428572V287.2466285714286z M219.4285714285714 353.0752C219.4285714285714 332.8773577204738 235.8021577204738 316.5037714285715 256 316.5037714285715C276.1978422795262 316.5037714285715 292.5714285714286 332.8773577204738 292.5714285714286 353.0752C292.5714285714286 373.2730422795262 276.1978422795262 389.6466285714286 256 389.6466285714286C235.8021577204738 389.6466285714286 219.4285714285714 373.2730422795262 219.4285714285714 353.0752z" />
    <glyph glyph-name="instagram"
      unicode="&#xEA16;"
      horiz-adv-x="512" d=" M256 512C186.4704 512 177.7517714285714 511.7074285714286 150.4548571428572 510.464C123.2018285714286 509.2205714285714 104.5942857142857 504.8905142857143 88.3126857142857 498.5563428571429C71.4752 492.0173714285714 57.1977142857143 483.2548571428571 42.9641142857143 469.0358857142857C28.7305142857143 454.8022857142857 19.9826285714286 440.5248000000001 13.4436571428571 423.6873142857143C7.1094857142857 407.4057142857143 2.7794285714286 388.7981714285715 1.536 361.5451428571429C0.2925714285714 334.2482285714286 0 325.5296 0 256C0 186.4704 0.2925714285714 177.7517714285714 1.536 150.4548571428572C2.7794285714286 123.2018285714286 7.1094857142857 104.5942857142857 13.4290285714286 88.3126857142857C19.968 71.4752 28.7305142857143 57.1977142857143 42.9494857142857 42.9641142857143C57.1830857142857 28.7305142857143 71.4605714285714 19.9826285714286 88.2980571428571 13.4436571428571C104.5796571428571 7.1094857142857 123.1872 2.7940571428571 150.4402285714286 1.5506285714285C177.7517714285714 0.2925714285715 186.4704 0 256 0C325.5296 0 334.2482285714286 0.2925714285715 361.5451428571428 1.5359999999999C388.7981714285715 2.7794285714286 407.4057142857143 7.1094857142857 423.6873142857143 13.4290285714286C440.5248 19.968 454.8022857142857 28.7305142857143 469.0358857142857 42.9494857142857C483.2694857142857 57.1830857142857 492.0173714285714 71.4605714285715 498.5563428571429 88.2980571428572C504.8905142857143 104.5796571428572 509.2059428571429 123.1872 510.4493714285715 150.4402285714286C511.7074285714285 177.7517714285714 512 186.4704 512 256C512 325.5296 511.7074285714285 334.2482285714286 510.4640000000001 361.5451428571429C509.2205714285714 388.7981714285715 504.8905142857143 407.4057142857143 498.5709714285714 423.6873142857143C492.032 440.5248000000001 483.2694857142857 454.8022857142857 469.0505142857143 469.0358857142857C454.8169142857143 483.2694857142857 440.5394285714285 492.0173714285714 423.7019428571428 498.5563428571429C407.4203428571429 504.8905142857143 388.8128 509.2059428571429 361.5597714285714 510.4493714285715C334.2482285714286 511.7074285714286 325.5296 512 256 512L256 512L256 512zM256 465.8761142857143C324.3593142857143 465.8761142857143 332.4489142857143 465.6128 359.4386285714285 464.384C384.3949714285714 463.2429714285714 397.9556571428571 459.0738285714286 406.9668571428571 455.5629714285714C418.9184 450.9257142857143 427.4468571428571 445.3668571428572 436.3995428571428 436.4141714285714C445.3522285714285 427.4614857142857 450.9110857142857 418.9330285714286 455.5483428571428 406.9814857142857C459.0591999999999 397.9556571428572 463.2283428571428 384.4096 464.3693714285714 359.4532571428572C465.5981714285714 332.4635428571429 465.8614857142857 324.3593142857143 465.8614857142857 256C465.8614857142857 187.6406857142857 465.5981714285714 179.5510857142858 464.3693714285714 152.5613714285715C463.2283428571428 127.6050285714287 459.0592 114.0443428571429 455.5483428571428 105.0185142857143C450.9110857142857 93.0669714285715 445.3522285714286 84.5385142857144 436.3995428571428 75.5858285714286C427.4468571428572 66.6331428571429 418.9184 61.0742857142857 406.9668571428571 56.4370285714286C397.9410285714285 52.9261714285715 384.3949714285714 48.7570285714286 359.4386285714285 47.616C332.4489142857143 46.3872 324.3593142857143 46.1238857142857 256 46.1238857142857C187.6406857142857 46.1238857142857 179.5510857142857 46.3872 152.5467428571429 47.616C127.5904 48.7570285714286 114.0297142857143 52.9261714285714 105.0185142857143 56.4370285714286C93.0669714285714 61.0742857142857 84.5385142857143 66.6331428571428 75.5858285714286 75.5858285714286C66.6331428571429 84.5385142857143 61.0742857142857 93.0669714285715 56.4370285714286 105.0185142857143C52.9261714285714 114.0443428571429 48.7570285714286 127.5904000000001 47.616 152.5613714285715C46.3872 179.5510857142858 46.1238857142857 187.6553142857143 46.1238857142857 256C46.1238857142857 324.3593142857143 46.3872 332.4489142857143 47.616 359.4532571428572C48.7570285714286 384.4096 52.9261714285714 397.9702857142857 56.4370285714286 406.9814857142857C61.0742857142857 418.9330285714286 66.6331428571429 427.4614857142857 75.5858285714286 436.4141714285714C84.5385142857143 445.3668571428572 93.0669714285714 450.9257142857143 105.0185142857143 455.5629714285714C114.0443428571429 459.0738285714286 127.5904 463.2429714285714 152.5467428571429 464.384C179.5510857142857 465.6128 187.6406857142857 465.8761142857143 256 465.8761142857143 M256 170.6715428571429C208.8667428571429 170.6715428571429 170.6715428571429 208.8813714285715 170.6715428571429 256C170.6715428571429 303.1332571428572 208.8813714285714 341.3284571428572 256 341.3284571428572C303.1332571428572 341.3284571428572 341.3284571428572 303.1186285714286 341.3284571428572 256C341.3284571428572 208.8667428571429 303.1332571428572 170.6715428571429 256 170.6715428571429L256 170.6715428571429zM256 387.4523428571429C183.3984 387.4523428571429 124.5330285714286 328.6016 124.5330285714286 255.9853714285715C124.5330285714286 183.3837714285714 183.3837714285714 124.5330285714286 256 124.5330285714286C328.6016 124.5330285714286 387.4523428571429 183.3837714285714 387.4523428571429 255.9853714285715C387.4523428571429 328.6016 328.6016 387.4523428571429 256 387.4523428571429L256 387.4523428571429z M423.3801142857143 392.6601142857143C423.3801142857143 375.6909714285714 409.6292571428571 361.9401142857144 392.6601142857143 361.9401142857144C375.6909714285714 361.9401142857144 361.9401142857143 375.6909714285714 361.9401142857143 392.6601142857143C361.9401142857143 409.6292571428572 375.6909714285714 423.3801142857143 392.6601142857143 423.3801142857143C409.6146285714286 423.3801142857143 423.3801142857143 409.6146285714286 423.3801142857143 392.6601142857143L423.3801142857143 392.6601142857143z" />
    <glyph glyph-name="left-navigation"
      unicode="&#xEA17;"
      horiz-adv-x="364.88045714285715" d=" M364.8804571428572 0V512L0 256L364.8804571428572 0zM316.9133714285715 92.2477714285715L83.5291428571429 256L316.9133714285715 419.7522285714286V92.2477714285715z" />
    <glyph glyph-name="light-bulb"
      unicode="&#xEA18;"
      horiz-adv-x="475.4285714285714" d=" M236.544 397.6045714285715A137.80114285714285 137.80114285714285 0 0 1 148.7725714285715 153.3074285714286V47.9817142857143H322.56L322.56 152.1371428571429A137.80114285714285 137.80114285714285 0 0 1 236.2514285714286 397.6045714285715zM186.368 85.4308571428572V105.472H285.2571428571429V85.4308571428572zM293.4491428571429 177.0057142857143L285.4034285714286 171.4468571428572V142.1897142857143H186.368V171.4468571428572L178.3222857142857 177.0057142857143A100.93714285714285 100.93714285714285 0 1 0 293.4491428571428 177.0057142857143z M202.3131428571429 37.3028571428571H270.9211428571429V0H202.3131428571428V37.3028571428571z M219.7211428571428 512H257.1702857142857V424.8137142857143H219.7211428571428V512z M162.5234285714286 411.0628571428572L118.784 486.5462857142857L86.3085714285714 467.8217142857143L130.048 392.3382857142857L162.5234285714286 411.0628571428572z M0.4388571428571 372.1508571428572L76.2148571428571 328.5577142857143L94.9394285714286 360.8868571428572L19.1634285714286 404.48L0.4388571428571 372.1508571428572z M457.1428571428571 404.48L381.3668571428572 360.8868571428572L400.0914285714286 328.5577142857143L475.8674285714285 372.1508571428572L457.1428571428571 404.48z M391.0217142857143 467.8217142857143L358.5462857142857 486.5462857142857L314.8068571428572 411.0628571428572L347.2822857142857 392.3382857142857L391.0217142857143 467.8217142857143z" />
    <glyph glyph-name="linkedin"
      unicode="&#xEA19;"
      horiz-adv-x="512" d=" M474.112 512C494.9902222222222 512 511.9857777777778 495.4737777777778 511.9857777777778 475.0791111111111L511.9857777777778 475.0791111111111L511.9857777777778 36.9493333333334C511.9857777777778 16.5546666666667 494.9902222222222 0 474.112 0L474.112 0L37.76 0C16.9244444444444 0 0 16.5546666666667 0 36.9493333333334L0 36.9493333333334L0 475.0791111111111C0 495.4737777777778 16.9244444444444 512 37.76 512L37.76 512zM151.8791111111111 320.0568888888889L75.8613333333333 320.0568888888889L75.8613333333333 75.7191111111112L151.8791111111111 75.7191111111112L151.8791111111111 320.0568888888889zM345.1875555555556 326.1155555555556C308.2524444444444 326.1155555555556 283.4773333333333 305.8631111111112 273.3511111111111 286.6488888888889L273.3511111111111 286.6488888888889L272.2986666666667 286.6488888888889L272.2986666666667 320.0568888888889L199.5093333333333 320.0568888888889L199.5093333333333 75.7191111111112L275.3564444444445 75.7191111111112L275.3702016 199.1478997333333C275.7068686222222 230.0979982222223 282.4548707555556 259.3280000000001 320.9102222222222 259.3280000000001C359.8791111111111 259.3280000000001 360.3626666666667 222.8764444444445 360.3626666666667 194.5457777777778L360.3626666666667 194.5457777777778L360.3626666666667 75.7191111111112L436.2951111111111 75.7191111111112L436.2951111111111 209.7208888888889C436.2951111111111 275.5271111111112 422.0871111111111 326.1155555555556 345.1875555555556 326.1155555555556zM113.8915555555556 441.5146666666667C89.5004444444444 441.5146666666667 69.8311111111111 421.7884444444445 69.8311111111111 397.4826666666667C69.8311111111111 373.1626666666667 89.5004444444444 353.4364444444445 113.8915555555556 353.4364444444445C138.1831111111111 353.4364444444445 157.8951111111111 373.1626666666667 157.8951111111111 397.4826666666667C157.8951111111111 421.7884444444445 138.1831111111111 441.5146666666667 113.8915555555556 441.5146666666667z" />
    <glyph glyph-name="mail"
      unicode="&#xEA1A;"
      horiz-adv-x="702.0397714285714" d=" M702.0397714285714 93.6228571428571L698.5727999999999 97.0898285714285V512H0V0H698.5727999999999V90.1412571428571L702.0397714285714 93.6228571428571zM194.7501714285714 281.0148571428572L56.5686857142857 142.8187428571429V418.5088L194.7501714285714 281.0148571428572zM98.4502857142857 455.4313142857143H605.2425142857142L351.8464 203.3371428571429L98.4502857142857 455.4313142857143zM642.0041142857143 413.4034285714286V153.6585142857143L511.7952 283.8674285714286L642.0041142857143 413.4034285714286zM56.5686857142857 56.5686857142857V60.0941714285714L236.2221714285714 239.7622857142857L351.8464 124.7232L470.3231999999999 242.6002285714286L642.0041142857143 70.9193142857143V56.5686857142857H56.5686857142857z" />
    <glyph glyph-name="map-marker"
      unicode="&#xEA1B;"
      horiz-adv-x="336.45714285714286" d=" M168.2285714285714 512A168.66742857142856 168.66742857142856 0 0 1 0 343.4788571428571C0 254.976 149.6502857142857 28.0868571428572 155.9405714285714 18.4320000000001L168.2285714285714 0L180.5165714285714 18.432C186.8068571428571 28.0868571428572 336.4571428571429 254.976 336.4571428571429 343.4788571428571A168.66742857142856 168.66742857142856 0 0 1 168.2285714285714 512zM168.2285714285714 53.5405714285715C120.3931428571429 128.1462857142858 29.2571428571429 283.0628571428572 29.2571428571429 343.4788571428571A138.82514285714285 138.82514285714285 0 1 0 307.2 343.4788571428571C307.2 283.0628571428572 216.064 128.1462857142858 168.2285714285714 53.5405714285715z M168.2285714285714 420.7177142857143A77.38514285714285 77.38514285714285 0 1 1 245.3211428571429 343.4788571428571A77.23885714285714 77.23885714285714 0 0 1 168.2285714285714 420.7177142857143zM168.2285714285714 295.4971428571429A47.98171428571428 47.98171428571428 0 1 0 216.064 343.4788571428571A47.98171428571428 47.98171428571428 0 0 0 168.2285714285714 295.4971428571429z" />
    <glyph glyph-name="measure"
      unicode="&#xEA1C;"
      horiz-adv-x="343.77142857142854" d=" M0 512V155.0628571428572C0 101.376 32.4754285714286 0 155.0628571428571 0H188.7085714285714C242.3954285714286 0 343.7714285714286 32.4754285714286 343.7714285714286 155.0628571428572V512zM188.7085714285714 36.864H155.0628571428571C38.912 36.864 36.864 150.2354285714287 36.864 155.0628571428572V475.136H307.2V426.5691428571429H246.0525714285714V389.7051428571429H307.2V339.968H154.0388571428571V303.1040000000001H307.2V253.3668571428572H204.8V216.5028571428572H307.2V155.0628571428572C307.2 38.912 193.536 36.864 188.7085714285714 36.864z" />
    <glyph glyph-name="menu"
      unicode="&#xEA1D;"
      horiz-adv-x="359.424" d=" M0 438.8571428571429H356.1325714285714V379.2018285714286H0V438.8571428571429z M0 285.8276571428571H356.1325714285714V226.1723428571429H0V285.8276571428571z M0 132.7981714285714H356.1325714285714V73.1428571428572H0V132.7981714285714z" />
    <glyph glyph-name="pencil"
      unicode="&#xEA1E;"
      horiz-adv-x="277.9428571428571" d=" M139.5565714285714 512L0 330.8982857142858V0H277.9428571428571V330.8982857142858zM37.1565714285714 288.0365714285714L84.4068571428571 244.1508571428571L137.8011428571429 297.5451428571429L190.1714285714286 245.6137142857143L240.3474285714286 295.6434285714286V114.2491428571428H37.3028571428571zM227.328 335.4331428571429L190.1714285714286 298.4228571428572L137.9474285714286 351.0857142857143L83.5291428571429 296.3748571428572L46.5188571428571 330.1668571428571L139.4102857142857 450.7062857142857zM37.1565714285714 37.3028571428571V76.9462857142858H240.4937142857143V37.3028571428572z" />
    <glyph glyph-name="pinterest"
      unicode="&#xEA1F;"
      horiz-adv-x="512" d=" M256 512C114.6148571428571 512 0 397.3851428571429 0 256C0 147.5437714285714 67.4816 54.9156571428571 162.6989714285714 17.6128000000001C160.4608 37.8733714285714 158.4420571428571 68.9298285714286 163.5913142857143 91.0482285714286C168.2432 111.0308571428572 193.6091428571429 218.3021714285715 193.6091428571429 218.3021714285715S185.9437714285714 233.6329142857143 185.9437714285714 256.3072C185.9437714285714 291.8985142857144 206.5700571428571 318.4786285714286 232.2724571428571 318.4786285714286C254.1129142857143 318.4786285714286 264.6601142857143 302.0800000000001 264.6601142857143 282.4192000000001C264.6601142857143 260.4617142857143 250.6752 227.6205714285715 243.4633142857143 197.1785142857143C237.4363428571428 171.6955428571429 256.2486857142857 150.9229714285714 281.3659428571429 150.9229714285714C326.8608 150.9229714285714 361.8377142857143 198.9046857142857 361.8377142857143 268.1563428571428C361.8377142857143 329.4500571428572 317.7910857142857 372.3117714285715 254.9028571428572 372.3117714285715C182.0672 372.3117714285715 139.3078857142857 317.6740571428571 139.3078857142857 261.2077714285715C139.3078857142857 239.2064000000001 147.7778285714286 215.6105142857143 158.3542857142857 202.7812571428572C160.4461714285714 200.2505142857144 160.7533714285714 198.0269714285715 160.1243428571428 195.4377142857143C158.1787428571428 187.3481142857143 153.8633142857143 169.9693714285715 153.0148571428571 166.4000000000001C151.9030857142857 161.7188571428572 149.2992 160.7241142857143 144.4571428571429 162.9769142857143C112.4790857142857 177.8541714285715 92.4964571428571 224.6070857142858 92.4964571428571 262.1586285714286C92.4964571428571 342.9083428571429 151.1716571428571 417.0752000000001 261.6466285714286 417.0752000000001C350.4566857142857 417.0752000000001 419.4742857142858 353.7920000000001 419.4742857142858 269.2242285714287C419.4742857142858 180.9993142857144 363.8418285714286 109.9922285714287 286.6322285714287 109.9922285714287C260.6957714285715 109.9922285714287 236.3099428571429 123.465142857143 227.9570285714287 139.3810285714287C227.9570285714287 139.3810285714287 215.1277714285715 90.5069714285715 212.0118857142858 78.5261714285715C206.2336000000001 56.290742857143 190.6249142857144 28.4233142857144 180.1947428571429 11.4102857142859C204.1563428571429 3.9936000000001 229.6100571428572 0 256 0C397.3851428571429 0 512 114.6148571428572 512 256C512 397.3851428571429 397.3851428571429 512 256 512z" />
    <glyph glyph-name="right-navigation"
      unicode="&#xEA20;"
      horiz-adv-x="364.88045714285715" d=" M0 512V0L364.8804571428572 256L0 512zM47.9670857142857 419.7522285714286L281.3513142857143 256L47.9670857142857 92.2477714285715V419.7522285714286z" />
    <glyph glyph-name="search"
      unicode="&#xEA21;"
      horiz-adv-x="499.41942857142857" d=" M499.4194285714286 41.5890285714286L346.7410285714286 194.2674285714286C373.9062857142857 227.7961142857144 390.2610285714286 270.4384 390.2610285714286 316.8694857142857C390.2610285714286 424.4626285714286 302.7382857142857 512 195.1305142857143 512S0 424.4626285714286 0 316.8548571428572S87.5373714285714 121.7243428571429 195.1305142857143 121.7243428571429C235.1104 121.7243428571429 272.2962285714286 133.8514285714286 303.2795428571428 154.5654857142857L457.8450285714285 0L499.4194285714286 41.5890285714286zM58.8068571428571 316.8548571428572C58.8068571428571 392.0310857142857 119.9689142857143 453.1931428571428 195.1451428571429 453.1931428571428S331.4834285714286 392.0310857142857 331.4834285714286 316.8548571428572S270.3213714285714 180.5165714285714 195.1451428571429 180.5165714285714S58.8068571428571 241.6786285714286 58.8068571428571 316.8548571428572z" />
    <glyph glyph-name="separator"
      unicode="&#xEA22;"
      horiz-adv-x="238.93333333333334" d=" M179.4925567999996 512L0 18.8562431999997L51.7997568000001 0L231.2777045333331 493.1437568000003z" />
    <glyph glyph-name="tick"
      unicode="&#xEA23;"
      horiz-adv-x="636.0064" d=" M576.4681142857143 512L230.4585142857143 112.3766857142857L52.8237714285714 272.9837714285715L0 214.5572571428572L237.3193142857143 0L636.0064 460.4489142857143z" />
    <glyph glyph-name="twitter"
      unicode="&#xEA24;"
      horiz-adv-x="630.0086857142857" d=" M630.0086857142857 451.3938285714286C606.8224 441.1099428571429 581.9245714285714 434.1613714285715 555.7686857142857 431.0454857142858C582.4511999999999 447.0345142857143 602.9458285714285 472.3712 612.6006857142856 502.5499428571429C587.6297142857142 487.7312 559.9670857142856 476.9792 530.5197714285714 471.1862857142857C506.9531428571428 496.3035428571429 473.3659428571428 512 436.1801142857143 512C364.7926857142857 512 306.9220571428572 454.1293714285714 306.9220571428572 382.7419428571428C306.9220571428572 372.6043428571429 308.0630857142857 362.7446857142858 310.272 353.28C202.8544 358.6779428571429 107.6077714285714 410.1412571428572 43.8564571428571 488.3456C32.7387428571429 469.2553142857143 26.3606857142857 447.0491428571429 26.3606857142857 423.3654857142857C26.3606857142857 378.5289142857143 49.1812571428571 338.9586285714286 83.8656 315.7869714285714C62.6834285714286 316.4598857142858 42.7446857142857 322.2674285714286 25.3220571428572 331.9515428571429C25.3074285714286 331.3956571428572 25.3074285714286 330.8544000000001 25.3074285714286 330.3131428571429C25.3074285714286 267.6882285714286 69.8660571428572 215.4496 128.9947428571429 203.5712C118.1549714285714 200.6162285714286 106.7300571428571 199.0363428571429 94.9394285714286 199.0363428571429C86.6157714285714 199.0363428571429 78.5115428571429 199.8409142857143 70.6267428571429 201.3476571428572C87.0692571428571 150.0013714285715 134.8022857142857 112.6253714285715 191.3709714285714 111.586742857143C147.1341714285714 76.9170285714286 91.3993142857143 56.2614857142858 30.8516571428571 56.2614857142858C20.4214857142857 56.2614857142858 10.1229714285714 56.8758857142858 0.0146285714286 58.0608000000001C57.1977142857143 21.4016 125.1474285714286 0 198.1293714285714 0C435.8729142857143 0 565.8916571428571 196.9590857142857 565.8916571428571 367.7622857142857C565.8916571428571 373.3650285714286 565.76 378.9385142857143 565.5113142857142 384.4827428571429C590.7748571428571 402.7099428571429 612.6884571428571 425.472 630.0086857142857 451.3938285714286z" />
    <glyph glyph-name="up-arrow"
      unicode="&#xEA25;"
      horiz-adv-x="382.8589714285714" d=" M34.2893714285714 274.1979428571429L162.2016 411.8381714285714L162.2016 0L220.7158857142857 0L220.7158857142857 411.7504L348.5696 274.1979428571429L382.8589714285714 306.1174857142858L191.4002285714286 512L0 306.1174857142858z" />
    <glyph glyph-name="youtube"
      unicode="&#xEA26;"
      horiz-adv-x="727.9616" d=" M720.6912 401.5396571428572C720.6912 401.5396571428572 713.5817142857143 451.7010285714286 691.7558857142857 473.7901714285714C664.0786285714285 502.784 633.0514285714286 502.9302857142857 618.8178285714285 504.6272C516.9444571428571 512 364.1344 512 364.1344 512H363.8125714285715C363.8125714285715 512 211.0171428571429 512 109.1437714285715 504.6418285714286C94.9248 502.9449142857143 63.8976 502.7986285714286 36.2057142857143 473.8048C14.3798857142857 451.7156571428571 7.2704 401.5542857142857 7.2704 401.5542857142857S0 342.6304 0 283.7357714285714V228.5129142857143C0 169.6036571428572 7.2850285714286 110.6944 7.2850285714286 110.6944S14.3945142857143 60.5330285714286 36.2203428571429 38.4438857142857C63.9122285714286 9.4500571428572 100.2934857142857 10.3716571428572 116.4873142857143 7.3289142857143C174.7236571428571 1.7408 363.9881142857143 0.0146285714285 363.9881142857143 0.0146285714285S516.9444571428571 0.2486857142857 618.8178285714287 7.6068571428571C633.0514285714287 9.3037714285714 664.0786285714287 9.4500571428571 691.7558857142858 38.4438857142856C713.5817142857143 60.5330285714285 720.6912000000001 110.6943999999999 720.6912000000001 110.6943999999999S727.9616000000001 169.6036571428571 727.9616000000001 228.5129142857142V283.7357714285714C727.9616 342.6304 720.6912 401.5396571428572 720.6912 401.5396571428572zM288.8265142857143 161.5725714285715L288.7972571428571 366.1092571428572L485.4930285714286 263.4898285714286L288.8265142857143 161.5725714285715z" />
  </font>
</defs>
</svg>
