<?xml version="1.0" encoding="utf-8"?>
<!-- Generator: Adobe Illustrator 21.1.0, SVG Export Plug-In . SVG Version: 6.00 Build 0)  -->
<svg version="1.1" id="Layer_1" xmlns="http://www.w3.org/2000/svg" xmlns:xlink="http://www.w3.org/1999/xlink" x="0px" y="0px"
	 viewBox="0 0 35 35" style="enable-background:new 0 0 35 35;" xml:space="preserve" fill="#FFFFFF">
<style type="text/css">
	.st0{fill:#FFFFFF;}
</style>
<g>
	<path class="st0" d="M-696.8-123.8c0,13.6,8.8,22.9,21.5,22.9c12.6,0,21.3-9.2,21.3-22.3c0-14.8-8-23.5-21.1-23.5
		C-688.2-146.7-696.8-137.5-696.8-123.8 M-623.4-122.8c0,27.3-22.9,48.7-52,48.7c-29.9,0-51.6-20.8-51.6-49.7
		c0-29.3,21.3-49.8,52-49.8C-645.1-173.6-623.4-152.3-623.4-122.8"/>
	<path class="st0" d="M-608.6-50.2l-80.4,11.4c3.6,25.5,4.8,51.5,3.4,77.4C-697,258-884.7,427-1104,415.5
		C-1323.2,404-1492.2,216.3-1480.7-3c11.5-219.2,199.2-388.2,418.4-376.7c102.3,5.4,198.1,50,268,123.8l-57.5,44.9l161.1,19.8
		l19.8-161.1l-59.3,46.3c-84.6-92.1-202.2-148.1-327.9-154.7c-263.9-13.8-489.9,189.6-503.8,453.6
		c-13.8,264,189.6,489.9,453.6,503.8c263.9,13.8,489.9-189.7,503.8-453.6C-602.8,11.8-604.2-19.5-608.6-50.2"/>
	<path class="st0" d="M-1348.1-48.5l-38-108.3h-11.5l45,126.1h9.1l45.8-126.1h-11.5L-1348.1-48.5L-1348.1-48.5z M-1268.9-156.9
		h-10.8v126.1h10.8V-156.9L-1268.9-156.9z M-1224.1-85.2l56.3,54.5h14.7l-56.5-54.5c1.9,0.2,3.6,0.2,4.3,0.2c9.5,0,16.3-0.9,21.4-3
		c13.6-5.7,21.6-18,21.6-33.3c0-21.7-15.7-35.5-40.3-35.5h-32.3v126.1h10.8V-85.2L-1224.1-85.2z M-1224.1-93.5v-53.7h20.8
		c19.9,0,30.1,8.9,30.1,26.5c0,17.8-11.5,27.2-32.7,27.2H-1224.1L-1224.1-93.5z M-1106.1-147.2h33.1v-9.6h-77v9.6h33.1v116.5h10.8
		V-147.2L-1106.1-147.2z M-1044.8-156.9h-10.8v75.6c0,19.9,2.1,27.8,9.6,36.9c8.5,10.2,21.6,15.9,35.9,15.9c14.2,0,26.7-5.3,35-14.9
		c7.9-9.3,10.6-18.5,10.6-37.8v-75.6h-11.3v75.1c0,19.7-2.1,26.5-10.2,34c-6.4,5.7-16.3,9.5-24.6,9.5c-8.3,0-18.5-3.8-24.4-9.1
		c-7.2-6.4-9.8-15.5-9.8-33.8V-156.9L-1044.8-156.9z M-867.9-63.8l12.3,33.1h11.9l-48-126.1h-11.7l-49.5,126.1h10.8l13.4-33.1
		H-867.9L-867.9-63.8z M-871.6-73.7h-53.1l26.8-68.8L-871.6-73.7L-871.6-73.7z M-814.5-41.5v-115.3h-10.8v126.1h56.3v-10.8H-814.5
		L-814.5-41.5z"/>
	<path class="st0" d="M-1319.7,30.9h41.4V1.6h-119v29.4h41.7v145.5h35.9V30.9L-1319.7,30.9z M-1181.3-1.8
		c-51.9,0-91.7,39.8-91.7,91.7c0,50.3,40.1,89.9,91.2,89.9c49.5,0,89.4-40.1,89.4-89.9c0-25.4-7.3-45.6-22.3-62.4
		C-1132.1,8.6-1155.7-1.8-1181.3-1.8L-1181.3-1.8z M-1182.4,31.4c30.9,0,53.5,24.9,53.5,58.7c0,31.7-23.6,56.6-53.7,56.6
		c-30.4,0-53.7-24.9-53.7-57.4C-1236.4,56.1-1213.3,31.4-1182.4,31.4L-1182.4,31.4z M-1031.2,1.6h-35.9v101.2
		c0,27,4.5,42.7,15.7,55.3c12.3,13.9,31.7,21.8,52.9,21.8c20.4,0,38.8-7.3,50.6-20.4c11.8-13.1,17.3-30.9,17.3-56.6V1.6h-36.2v102.2
		c0,16.3-1.6,23.9-6.8,30.9c-5.2,7.3-15.2,12.1-25.4,12.1c-9.7,0-19.1-4.2-24.4-10.7c-5.8-6.8-7.9-15.7-7.9-32V1.6L-1031.2,1.6z
		 M-860.8,106.9l48,69.5h43.5l-48.2-67.1c27-6.8,41.4-25.2,41.4-52.7c0-35.9-23.3-55-66.6-55h-54v174.8h35.9V106.9L-860.8,106.9z
		 M-860.8,86V31.2h19.4c17.8,0,28.8,10.5,28.8,27.3c0,17.6-11.5,27.5-32,27.5H-860.8L-860.8,86z"/>
</g>
<g>
	<path d="M31.5,12.4c0,0.5,0.3,0.8,0.8,0.8c0.5,0,0.8-0.3,0.8-0.8c0-0.5-0.3-0.9-0.8-0.9C31.8,11.5,31.5,11.9,31.5,12.4 M34.1,12.4
		c0,1-0.8,1.8-1.9,1.8c-1.1,0-1.9-0.8-1.9-1.8c0-1.1,0.8-1.8,1.9-1.8C33.3,10.6,34.1,11.3,34.1,12.4"/>
	<path d="M34.7,15l-2.9,0.4c0.1,0.9,0.2,1.9,0.1,2.8c-0.4,7.9-7.2,14-15.1,13.6c-7.9-0.4-14-7.2-13.6-15.1c0.4-7.9,7.2-14,15.1-13.6
		c3.7,0.2,7.2,1.8,9.7,4.5l-2.1,1.6l5.8,0.7l0.7-5.8l-2.1,1.7C27.2,2.5,23,0.4,18.4,0.2C8.9-0.3,0.7,7,0.2,16.6
		C-0.3,26.1,7,34.3,16.6,34.8c9.5,0.5,17.7-6.9,18.2-16.4C34.9,17.3,34.8,16.1,34.7,15"/>
	<path d="M7.9,15.1l-1.4-3.9H6.1l1.6,4.6h0.3l1.7-4.6H9.3L7.9,15.1L7.9,15.1z M10.8,11.2h-0.4v4.6h0.4V11.2L10.8,11.2z M12.4,13.8
		l2,2H15l-2-2c0.1,0,0.1,0,0.2,0c0.3,0,0.6,0,0.8-0.1c0.5-0.2,0.8-0.6,0.8-1.2c0-0.8-0.6-1.3-1.5-1.3H12v4.6h0.4V13.8L12.4,13.8z
		 M12.4,13.5v-1.9h0.8c0.7,0,1.1,0.3,1.1,1c0,0.6-0.4,1-1.2,1H12.4L12.4,13.5z M16.7,11.5h1.2v-0.3h-2.8v0.3h1.2v4.2h0.4V11.5
		L16.7,11.5z M18.9,11.2h-0.4v2.7c0,0.7,0.1,1,0.3,1.3c0.3,0.4,0.8,0.6,1.3,0.6c0.5,0,1-0.2,1.3-0.5c0.3-0.3,0.4-0.7,0.4-1.4v-2.7
		h-0.4v2.7c0,0.7-0.1,1-0.4,1.2c-0.2,0.2-0.6,0.3-0.9,0.3c-0.3,0-0.7-0.1-0.9-0.3c-0.3-0.2-0.4-0.6-0.4-1.2V11.2L18.9,11.2z
		 M25.3,14.5l0.4,1.2h0.4l-1.7-4.6H24l-1.8,4.6h0.4l0.5-1.2H25.3L25.3,14.5z M25.1,14.2h-1.9l1-2.5L25.1,14.2L25.1,14.2z M27.2,15.4
		v-4.2h-0.4v4.6h2v-0.4H27.2L27.2,15.4z"/>
	<path d="M8.9,18h1.5v-1.1H6.1V18h1.5v5.3h1.3V18L8.9,18z M13.9,16.8c-1.9,0-3.3,1.4-3.3,3.3c0,1.8,1.5,3.3,3.3,3.3
		c1.8,0,3.2-1.5,3.2-3.3c0-0.9-0.3-1.6-0.8-2.3C15.7,17.2,14.9,16.8,13.9,16.8L13.9,16.8z M13.9,18c1.1,0,1.9,0.9,1.9,2.1
		c0,1.1-0.9,2-1.9,2c-1.1,0-1.9-0.9-1.9-2.1C12,18.9,12.8,18,13.9,18L13.9,18z M19.4,16.9h-1.3v3.7c0,1,0.2,1.5,0.6,2
		c0.4,0.5,1.1,0.8,1.9,0.8c0.7,0,1.4-0.3,1.8-0.7c0.4-0.5,0.6-1.1,0.6-2v-3.7h-1.3v3.7c0,0.6-0.1,0.9-0.2,1.1
		c-0.2,0.3-0.5,0.4-0.9,0.4c-0.4,0-0.7-0.2-0.9-0.4c-0.2-0.2-0.3-0.6-0.3-1.2V16.9L19.4,16.9z M25.5,20.7l1.7,2.5h1.6l-1.7-2.4
		c1-0.2,1.5-0.9,1.5-1.9c0-1.3-0.8-2-2.4-2h-2v6.3h1.3V20.7L25.5,20.7z M25.5,20v-2h0.7c0.6,0,1,0.4,1,1c0,0.6-0.4,1-1.2,1H25.5
		L25.5,20z"/>
</g>
</svg>
