<svg width="39" height="39" xmlns="http://www.w3.org/2000/svg">
 <style type="text/css">.st0{fill:#FFFFFF;}</style>

 <g>
  <title>background</title>
  <rect fill="none" id="canvas_background" height="41" width="41" y="-1" x="-1"/>
 </g>
 <g>
  <title>Layer 1</title>
  <g id="svg_1">
   <path id="svg_2" d="m-696.8,-123.8c0,13.6 8.8,22.9 21.5,22.9c12.6,0 21.3,-9.2 21.3,-22.3c0,-14.8 -8,-23.5 -21.1,-23.5c-13.1,0 -21.7,9.2 -21.7,22.9m73.4,1c0,27.3 -22.9,48.7 -52,48.7c-29.9,0 -51.6,-20.8 -51.6,-49.7c0,-29.3 21.3,-49.8 52,-49.8c29.9,0 51.6,21.3 51.6,50.8" class="st0"/>
   <path id="svg_3" d="m-608.6,-50.2l-80.4,11.4c3.6,25.5 4.8,51.5 3.4,77.4c-11.4,219.4 -199.1,388.4 -418.4,376.9c-219.2,-11.5 -388.2,-199.2 -376.7,-418.5c11.5,-219.2 199.2,-388.2 418.4,-376.7c102.3,5.4 198.1,50 268,123.8l-57.5,44.9l161.1,19.8l19.8,-161.1l-59.3,46.3c-84.6,-92.1 -202.2,-148.1 -327.9,-154.7c-263.9,-13.8 -489.9,189.6 -503.8,453.6c-13.8,264 189.6,489.9 453.6,503.8c263.9,13.8 489.9,-189.7 503.8,-453.6c1.7,-31.3 0.3,-62.6 -4.1,-93.3" class="st0"/>
   <path id="svg_4" d="m-1348.1,-48.5l-38,-108.3l-11.5,0l45,126.1l9.1,0l45.8,-126.1l-11.5,0l-38.9,108.3l0,0zm79.2,-108.4l-10.8,0l0,126.1l10.8,0l0,-126.1l0,0zm44.8,71.7l56.3,54.5l14.7,0l-56.5,-54.5c1.9,0.2 3.6,0.2 4.3,0.2c9.5,0 16.3,-0.9 21.4,-3c13.6,-5.7 21.6,-18 21.6,-33.3c0,-21.7 -15.7,-35.5 -40.3,-35.5l-32.3,0l0,126.1l10.8,0l0,-54.5l0,0zm0,-8.3l0,-53.7l20.8,0c19.9,0 30.1,8.9 30.1,26.5c0,17.8 -11.5,27.2 -32.7,27.2l-18.2,0l0,0zm118,-53.7l33.1,0l0,-9.6l-77,0l0,9.6l33.1,0l0,116.5l10.8,0l0,-116.5l0,0zm61.3,-9.7l-10.8,0l0,75.6c0,19.9 2.1,27.8 9.6,36.9c8.5,10.2 21.6,15.9 35.9,15.9c14.2,0 26.7,-5.3 35,-14.9c7.9,-9.3 10.6,-18.5 10.6,-37.8l0,-75.6l-11.3,0l0,75.1c0,19.7 -2.1,26.5 -10.2,34c-6.4,5.7 -16.3,9.5 -24.6,9.5c-8.3,0 -18.5,-3.8 -24.4,-9.1c-7.2,-6.4 -9.8,-15.5 -9.8,-33.8l0,-75.8l0,0zm176.9,93.1l12.3,33.1l11.9,0l-48,-126.1l-11.7,0l-49.5,126.1l10.8,0l13.4,-33.1l60.8,0l0,0zm-3.7,-9.9l-53.1,0l26.8,-68.8l26.3,68.8l0,0zm57.1,32.2l0,-115.3l-10.8,0l0,126.1l56.3,0l0,-10.8l-45.5,0l0,0z" class="st0"/>
   <path id="svg_5" d="m-1319.7,30.9l41.4,0l0,-29.3l-119,0l0,29.4l41.7,0l0,145.5l35.9,0l0,-145.6l0,0zm138.4,-32.7c-51.9,0 -91.7,39.8 -91.7,91.7c0,50.3 40.1,89.9 91.2,89.9c49.5,0 89.4,-40.1 89.4,-89.9c0,-25.4 -7.3,-45.6 -22.3,-62.4c-17.4,-18.9 -41,-29.3 -66.6,-29.3l0,0zm-1.1,33.2c30.9,0 53.5,24.9 53.5,58.7c0,31.7 -23.6,56.6 -53.7,56.6c-30.4,0 -53.7,-24.9 -53.7,-57.4c-0.1,-33.2 23,-57.9 53.9,-57.9l0,0zm151.2,-29.8l-35.9,0l0,101.2c0,27 4.5,42.7 15.7,55.3c12.3,13.9 31.7,21.8 52.9,21.8c20.4,0 38.8,-7.3 50.6,-20.4c11.8,-13.1 17.3,-30.9 17.3,-56.6l0,-101.3l-36.2,0l0,102.2c0,16.3 -1.6,23.9 -6.8,30.9c-5.2,7.3 -15.2,12.1 -25.4,12.1c-9.7,0 -19.1,-4.2 -24.4,-10.7c-5.8,-6.8 -7.9,-15.7 -7.9,-32l0,-102.5l0.1,0zm170.4,105.3l48,69.5l43.5,0l-48.2,-67.1c27,-6.8 41.4,-25.2 41.4,-52.7c0,-35.9 -23.3,-55 -66.6,-55l-54,0l0,174.8l35.9,0l0,-69.5l0,0zm0,-20.9l0,-54.8l19.4,0c17.8,0 28.8,10.5 28.8,27.3c0,17.6 -11.5,27.5 -32,27.5l-16.2,0l0,0z" class="st0"/>
  </g>
  <g id="svg_6">
   <path id="svg_7" d="m33.49999,14.27499c0,0.5 0.3,0.8 0.8,0.8c0.5,0 0.8,-0.3 0.8,-0.8c0,-0.5 -0.3,-0.9 -0.8,-0.9c-0.5,0 -0.8,0.4 -0.8,0.9m2.6,0c0,1 -0.8,1.8 -1.9,1.8c-1.1,0 -1.9,-0.8 -1.9,-1.8c0,-1.1 0.8,-1.8 1.9,-1.8c1.1,0 1.9,0.7 1.9,1.8"/>
   <path id="svg_8" d="m36.69999,16.87499l-2.9,0.4c0.1,0.9 0.2,1.9 0.1,2.8c-0.4,7.9 -7.2,14 -15.1,13.6c-7.9,-0.4 -14,-7.2 -13.6,-15.1c0.4,-7.9 7.2,-14 15.1,-13.6c3.7,0.2 7.2,1.8 9.7,4.5l-2.1,1.6l5.8,0.7l0.7,-5.8l-2.1,1.7c-3.1,-3.3 -7.3,-5.4 -11.9,-5.6c-9.5,-0.5 -17.7,6.8 -18.2,16.4c-0.5,9.5 6.8,17.7 16.4,18.2c9.5,0.5 17.7,-6.9 18.2,-16.4c0.1,-1.1 0,-2.3 -0.1,-3.4"/>
   <path id="svg_9" d="m9.89999,16.97499l-1.4,-3.9l-0.4,0l1.6,4.6l0.3,0l1.7,-4.6l-0.4,0l-1.4,3.9l0,0zm2.9,-3.9l-0.4,0l0,4.6l0.4,0l0,-4.6l0,0zm1.6,2.6l2,2l0.6,0l-2,-2c0.1,0 0.1,0 0.2,0c0.3,0 0.6,0 0.8,-0.1c0.5,-0.2 0.8,-0.6 0.8,-1.2c0,-0.8 -0.6,-1.3 -1.5,-1.3l-1.3,0l0,4.6l0.4,0l0,-2l0,0zm0,-0.3l0,-1.9l0.8,0c0.7,0 1.1,0.3 1.1,1c0,0.6 -0.4,1 -1.2,1l-0.7,0l0,-0.1zm4.3,-2l1.2,0l0,-0.3l-2.8,0l0,0.3l1.2,0l0,4.2l0.4,0l0,-4.2l0,0zm2.2,-0.3l-0.4,0l0,2.7c0,0.7 0.1,1 0.3,1.3c0.3,0.4 0.8,0.6 1.3,0.6c0.5,0 1,-0.2 1.3,-0.5c0.3,-0.3 0.4,-0.7 0.4,-1.4l0,-2.7l-0.4,0l0,2.7c0,0.7 -0.1,1 -0.4,1.2c-0.2,0.2 -0.6,0.3 -0.9,0.3c-0.3,0 -0.7,-0.1 -0.9,-0.3c-0.3,-0.2 -0.4,-0.6 -0.4,-1.2l0,-2.7l0.1,0zm6.4,3.3l0.4,1.2l0.4,0l-1.7,-4.6l-0.4,0l-1.8,4.6l0.4,0l0.5,-1.2l2.2,0l0,0zm-0.2,-0.3l-1.9,0l1,-2.5l0.9,2.5l0,0zm2.1,1.2l0,-4.2l-0.4,0l0,4.6l2,0l0,-0.4l-1.6,0l0,0z"/>
   <path id="svg_10" d="m10.89999,19.87499l1.5,0l0,-1.1l-4.3,0l0,1.1l1.5,0l0,5.3l1.3,0l0,-5.3l0,0zm5,-1.2c-1.9,0 -3.3,1.4 -3.3,3.3c0,1.8 1.5,3.3 3.3,3.3c1.8,0 3.2,-1.5 3.2,-3.3c0,-0.9 -0.3,-1.6 -0.8,-2.3c-0.6,-0.6 -1.4,-1 -2.4,-1l0,0zm0,1.2c1.1,0 1.9,0.9 1.9,2.1c0,1.1 -0.9,2 -1.9,2c-1.1,0 -1.9,-0.9 -1.9,-2.1c0,-1.1 0.8,-2 1.9,-2l0,0zm5.5,-1.1l-1.3,0l0,3.7c0,1 0.2,1.5 0.6,2c0.4,0.5 1.1,0.8 1.9,0.8c0.7,0 1.4,-0.3 1.8,-0.7c0.4,-0.5 0.6,-1.1 0.6,-2l0,-3.7l-1.3,0l0,3.7c0,0.6 -0.1,0.9 -0.2,1.1c-0.2,0.3 -0.5,0.4 -0.9,0.4c-0.4,0 -0.7,-0.2 -0.9,-0.4c-0.2,-0.2 -0.3,-0.6 -0.3,-1.2l0,-3.7l0,0zm6.1,3.8l1.7,2.5l1.6,0l-1.7,-2.4c1,-0.2 1.5,-0.9 1.5,-1.9c0,-1.3 -0.8,-2 -2.4,-2l-2,0l0,6.3l1.3,0l0,-2.5l0,0zm0,-0.7l0,-2l0.7,0c0.6,0 1,0.4 1,1c0,0.6 -0.4,1 -1.2,1l-0.5,0l0,0z"/>
  </g>
 </g>
</svg>