<svg id="Layer_1" data-name="Layer 1" xmlns="http://www.w3.org/2000/svg" xmlns:xlink="http://www.w3.org/1999/xlink" viewBox="0 0 1280 720"><defs><style>.cls-1{fill:url(#linear-gradient);filter:url(#luminosity-noclip);}.cls-2{fill:none;}.cls-3{mask:url(#mask);}.cls-4{clip-path:url(#clip-path);}.cls-5{clip-path:url(#clip-path-2);}.cls-6{fill:url(#linear-gradient-2);}</style><linearGradient id="linear-gradient" x1="-7099.06" y1="899.81" x2="-7098.55" y2="899.81" gradientTransform="matrix(0, -883.43, -883.43, 0, 795555.04, -6270789.6)" gradientUnits="userSpaceOnUse"><stop offset="0" stop-color="#fff"/><stop offset="0.1" stop-color="#f0f0f0"/><stop offset="0.28" stop-color="#c7c7c7"/><stop offset="0.53" stop-color="#868686"/><stop offset="0.85" stop-color="#2e2e2e"/><stop offset="1"/></linearGradient><filter id="luminosity-noclip" x="-14.84" y="342.6" width="1300.08" height="538.11" filterUnits="userSpaceOnUse" color-interpolation-filters="sRGB"><feFlood flood-color="#fff" result="bg"/><feBlend in="SourceGraphic" in2="bg"/></filter><mask id="mask" x="-14.84" y="342.6" width="1300.08" height="538.11" maskUnits="userSpaceOnUse"><rect class="cls-1" x="-14.84" y="346.12" width="1295.56" height="534.59"/></mask><clipPath id="clip-path"><rect class="cls-2" x="-9.82" y="342.6" width="1295.06" height="379.23"/></clipPath><clipPath id="clip-path-2"><path class="cls-2" d="M385.48,560.07a.79.79,0,0,1-.76,0m-67.38-39.38,20.71,12.11a.75.75,0,0,1,0,1.3l-20.71,12.1a.75.75,0,0,1-1.13-.65V521.34a.75.75,0,0,1,1.13-.65m-71.16-13.42a.75.75,0,0,1,1.13.65v24.22a.75.75,0,0,1-1.13.65l-20.71-12.11a.75.75,0,0,1,0-1.3l10.36-6.06Zm2.25-55,20.71-12.11a.76.76,0,0,1,1.14.65V465a.75.75,0,0,1-1.13.65l-20.72-12.1a.75.75,0,0,1,0-1.3m0,108.67,20.71,12.11a.75.75,0,0,1,0,1.3l-20.71,12.11a.76.76,0,0,1-1.14-.66V561.6a.76.76,0,0,1,1.14-.65m-48.2-26.84a.76.76,0,0,1,1.14.66v25.08a.78.78,0,0,1-.38.66l-21.45,12.54a.76.76,0,0,1-1.14-.66v-12.1h0V546.87h0ZM590.67,599.9a.75.75,0,0,1,0,1.3L570,613.3a.76.76,0,0,1-1.14-.65V588.44a.76.76,0,0,1,1.14-.65l10.34,6.05Zm-45.93,0a.75.75,0,0,1,0,1.3L522.89,614l-22.59,13.2a.79.79,0,0,1-.76,0l-22.21-13a.74.74,0,0,1-.37-.65V588.44a.75.75,0,0,1,1.13-.65l10.36,6.05,11.09,6.49a.74.74,0,0,0,.76,0l11.11-6.49,11.1-6.49a.74.74,0,0,1,.76,0l11.1,6.49Zm-67.4-39.39,21.47,12.55a.75.75,0,0,1,0,1.3l-21.47,12.55a.74.74,0,0,1-.76,0l-21.47-12.55a.75.75,0,0,1,0-1.3l21.47-12.55a.74.74,0,0,1,.76,0m-91.1.44,21.45,12.54a.74.74,0,0,1,.38.65v25.1a.76.76,0,0,1-1.14.65l-10.35-6-11.1-6.49a.78.78,0,0,1-.38-.65V561.6a.76.76,0,0,1,1.14-.65m-48.19,52.36a.76.76,0,0,1,0,1.31l-21.46,12.55a.79.79,0,0,1-.76,0L293.24,614,271.39,601.2a.76.76,0,0,1,0-1.3l10.37-6.06,11.1-6.49a.74.74,0,0,1,.76,0l11.11,6.49,11.48,6.71ZM452.88,599.9a.75.75,0,0,1,0,1.3l-21.47,12.54a.74.74,0,0,1-.76,0L409.18,601.2a.76.76,0,0,1,0-1.3l10.37-6.06,11.1-6.49a.74.74,0,0,1,.76,0l11.1,6.49ZM87.68,546.21l21.47-12.54a.77.77,0,0,1,.75,0l21.47,12.54a.76.76,0,0,1,0,1.31l-21.46,12.55a.79.79,0,0,1-.76,0L87.68,547.52a.76.76,0,0,1,0-1.31m45.18.44,21.46-12.54a.75.75,0,0,1,1.13.66v25.08a.77.77,0,0,1-.37.66l-21.46,12.54a.75.75,0,0,1-1.13-.66V547.3a.74.74,0,0,1,.37-.65M661.77,587.9,682.48,600a.76.76,0,0,1,0,1.31l-20.71,12.1a.76.76,0,0,1-1.14-.65V588.55a.76.76,0,0,1,1.14-.65m-69.6,39.71,21.46,12.55a.75.75,0,0,1,0,1.3L592.17,654a.74.74,0,0,1-.76,0l-21.47-12.55a.75.75,0,0,1,0-1.3l21.47-12.55a.74.74,0,0,1,.76,0m23.71-13,21.46,12.54a.74.74,0,0,1,.37.65v51.94a.75.75,0,0,1-1.13.65l-21.46-12.54a.76.76,0,0,1-.37-.65V615.28a.75.75,0,0,1,1.13-.65m-551.15-161,20.71,12.1a.76.76,0,0,1,0,1.31L64.73,479.1a.75.75,0,0,1-1.13-.65V454.24a.75.75,0,0,1,1.13-.65m0-107.36,20.72,12.11a.76.76,0,0,1,0,1.3L64.73,371.75a.75.75,0,0,1-1.13-.66V346.88a.75.75,0,0,1,1.13-.65M86.19,519.81a.77.77,0,0,1,.37.65v25.09a.75.75,0,0,1-1.13.65L64,533.67a.76.76,0,0,1-.37-.65v-25.1a.75.75,0,0,1,1.13-.65l10.35,6.05Zm24.47-39.38,20.71,12.1a.76.76,0,0,1,0,1.31L110.66,506a.76.76,0,0,1-1.14-.66V481.08a.76.76,0,0,1,1.14-.65m-91.87-55L39.5,413.33a.75.75,0,0,1,1.13.65v24.21a.75.75,0,0,1-1.13.66L18.79,426.74a.75.75,0,0,1,0-1.3m137.78-53.68,20.71-12.11a.76.76,0,0,1,1.14.65v24.22a.76.76,0,0,1-1.14.65l-20.71-12.11a.75.75,0,0,1,0-1.3m0,81.83,20.72,12.1a.77.77,0,0,1,0,1.31l-20.72,12.1a.76.76,0,0,1-1.14-.65V454.24a.76.76,0,0,1,1.14-.65m43.66,53.68a.76.76,0,0,1,1.14.65v24.22a.76.76,0,0,1-1.14.65l-20.71-12.11a.75.75,0,0,1,0-1.3l10.36-6.06ZM385.1,613.38a.77.77,0,0,1-.37.65l-21.46,12.69a.76.76,0,0,1-1.14-.65V601a.78.78,0,0,1,.38-.65l11.11-6.49L384,587.79a.75.75,0,0,1,1.13.65Zm70,67,20.71-12.11a.75.75,0,0,0,0-1.3l-20.71-12.11a.75.75,0,0,0-1.13.65v24.22a.75.75,0,0,0,1.13.65m-91.86,26.84L384,695.14a.75.75,0,0,0,0-1.3l-20.72-12.11a.76.76,0,0,0-1.14.66v24.2a.76.76,0,0,0,1.14.66m-68.89-13.42,20.71-12.11a.75.75,0,0,0,0-1.3l-20.71-12.11a.76.76,0,0,0-1.14.66v24.2a.76.76,0,0,0,1.14.66m-116-14.07V655.54a.75.75,0,0,0-1.13-.65L156.57,667a.75.75,0,0,0,0,1.3l20.72,12.11a.75.75,0,0,0,1.13-.65m-45.93-26.84V628.7a.75.75,0,0,0-1.13-.65l-20.72,12.11a.75.75,0,0,0,0,1.3l20.72,12.11a.75.75,0,0,0,1.13-.65M86.56,706.59v-24.2a.75.75,0,0,0-1.13-.66L64.71,693.84a.75.75,0,0,0,0,1.3l20.72,12.11a.75.75,0,0,0,1.13-.66M40.63,652.92V628.7a.75.75,0,0,0-1.13-.65L18.79,640.16a.75.75,0,0,0,0,1.3L39.5,653.57a.75.75,0,0,0,1.13-.65m574.49,41.79,22.22,13a.76.76,0,0,1,.37.65v12.23a.75.75,0,0,1-.75.76H-4.54a.75.75,0,0,1-.75-.76V601.87a.75.75,0,0,1,1.13-.66l20.7,12.09a.75.75,0,0,0,1.13-.65V587.56a.76.76,0,0,1,.37-.65l22.22-13a.77.77,0,0,0,.37-.66V548.18a.76.76,0,0,1,1.14-.65L63.6,560.29l22.59,13.2a.76.76,0,0,1,.37.65v25.1a.75.75,0,0,1-1.13.65l-10.35-6-10.35-6.05a.75.75,0,0,0-1.13.65v25.09a.74.74,0,0,0,.37.65l22.21,13a.79.79,0,0,0,.76,0l21.47-12.55a.76.76,0,0,0,0-1.31L87.68,601.2a.75.75,0,0,1,0-1.3l10.37-6.06,11.1-6.49a.77.77,0,0,0,.37-.65V561.6a.76.76,0,0,1,1.14-.65l21.83,12.76,22.59,13.2a.76.76,0,0,1,.37.65v25.09a.76.76,0,0,0,1.14.65l20.72-12.1a.75.75,0,0,0,0-1.3l-10.37-6.06-11.11-6.49a.78.78,0,0,1-.38-.65V561.6a.76.76,0,0,1,1.14-.65l21.83,12.76,23,13.42,11.48,6.71,10.36,6.06a.75.75,0,0,1,0,1.3L201.39,614l-21.85,12.77a.75.75,0,0,0,0,1.3l20.71,12.11a.76.76,0,0,0,1.14-.66V615.28a.75.75,0,0,1,1.13-.65l21.83,12.76,21.83,12.76a.75.75,0,0,0,1.13-.66V614.4a.74.74,0,0,0-.37-.65L225.47,601.2a.75.75,0,0,1,0-1.3l10.36-6.06,11.1-6.49a.74.74,0,0,1,.76,0l11.1,6.49,11.11,6.49a.76.76,0,0,1,.38.65v51.94a.75.75,0,0,0,1.13.65l21.83-12.76,21.83-12.76a.76.76,0,0,1,1.14.65v24.22a.75.75,0,0,0,1.13.65l21.83-12.76,22.94-13.41h0V653.8a.78.78,0,0,0,.38.65l22.21,13a.74.74,0,0,0,.76,0L407,654.88a.75.75,0,0,0,0-1.3L386.29,641.5a.75.75,0,0,1,0-1.3L408,627.36l.06,0,21.83,12.76a.75.75,0,0,0,1.13-.66V615.28a.76.76,0,0,1,1.14-.65l21.45,12.54a.79.79,0,0,0,.76,0l21.45-12.54a.75.75,0,0,1,1.13.65v25.1a.77.77,0,0,0,.37.65l22.21,13a.74.74,0,0,0,.76,0l22.21-13a.76.76,0,0,0,.38-.65v-25.1a.75.75,0,0,1,1.13-.65l21.46,12.54a.74.74,0,0,1,.37.65v26a.76.76,0,0,0,.38.65l22.59,13.2,22.59,13.2a.74.74,0,0,0,.76,0l21.45-12.54a.75.75,0,0,1,1.13.66v25.08a.77.77,0,0,0,.37.66M-4.16,493.85,16.55,506a.75.75,0,0,1,0,1.3L6.18,513.32l-10.34,6a.75.75,0,0,1-1.13-.66V494.5a.75.75,0,0,1,1.13-.65m-.76,52.8,21.46-12.54a.75.75,0,0,1,1.13.66v25.08a.77.77,0,0,1-.37.66L-4.16,573.05a.75.75,0,0,1-1.13-.66V547.3a.74.74,0,0,1,.37-.65M1097,546.59h0l-21.83-12.76a.76.76,0,0,0-1.14.66V560h0l21.83,12.76a.76.76,0,0,0,1.14-.65V560h0Zm-68.9-14.73a.76.76,0,0,0,1.14.65L1050,520.4a.75.75,0,0,0,0-1.3L1039.6,513l-11.49-6.71v25.53Zm67.78-11.46a.75.75,0,0,0,0-1.3L1085.52,513l-10.34-6a.76.76,0,0,0-1.14.66v24.21a.76.76,0,0,0,1.14.65Zm22.95-67.09-20.72,12.11a.75.75,0,0,0,0,1.3l20.72,12.11a.75.75,0,0,0,1.13-.65V454a.75.75,0,0,0-1.13-.65m25.21,92.63a.75.75,0,0,0,0,1.3l20.72,12.11a.75.75,0,0,0,1.13-.65V534.49a.75.75,0,0,0-1.13-.66ZM890.33,613.26a.76.76,0,0,0,.37.65l22.21,13a.74.74,0,0,0,.76,0l22.21-13a.76.76,0,0,0,.37-.65V588.17a.75.75,0,0,0-1.13-.66l-10.35,6-11.48,6.71-11.48-6.71-10.35-6a.75.75,0,0,0-1.13.66Zm-11.49-19.7,11.49-6.71h0V561.33a.76.76,0,0,0-1.14-.66l-21.46,12.54a.77.77,0,0,0-.37.65v26.41h0Zm355.95,34.87v24.21a.76.76,0,0,0,1.14.65l20.71-12.11a.75.75,0,0,0,0-1.3l-20.71-12.11a.76.76,0,0,0-1.14.66m-23-40.26a.75.75,0,0,0-1.13-.66l-10.35,6-11.48,6.71L1210.7,613a.75.75,0,0,0,1.13-.65ZM1097,655.27v24.21a.75.75,0,0,0,1.13.65L1118.86,668a.76.76,0,0,0,0-1.3l-20.72-12.11a.75.75,0,0,0-1.13.66M1027,668l-20.72,12.11a.76.76,0,0,0,0,1.3L1027,693.55a.75.75,0,0,0,1.13-.65V668.69A.75.75,0,0,0,1027,668m253.74,52.27a.75.75,0,0,1-.75.75H684.4a.76.76,0,0,1-.76-.75V708.07a.78.78,0,0,1,.38-.66l22.21-13a.79.79,0,0,1,.76,0L728.44,707a.75.75,0,0,0,1.13-.65V681.23a.77.77,0,0,0-.37-.66L707.72,668a.76.76,0,0,1,0-1.3l21.47-12.55a.79.79,0,0,1,.76,0l22.21,13a.78.78,0,0,1,.38.65v25.1a.75.75,0,0,0,1.13.65L775.12,681a.79.79,0,0,1,.76,0l21.45,12.54a.76.76,0,0,0,1.14-.65V668.69a.75.75,0,0,1,1.13-.66l21.46,12.54a.77.77,0,0,1,.37.66v25.09a.75.75,0,0,0,1.13.65l20.72-12.11a.75.75,0,0,0,0-1.3L821.8,681a.76.76,0,0,1-.37-.65v-26a.77.77,0,0,1,.37-.66l21.46-12.54a.76.76,0,0,1,1.14.66v25.09a.76.76,0,0,0,.37.65l22.59,13.2,21.83,12.76a.76.76,0,0,0,1.14-.65V668.69a.76.76,0,0,0-1.14-.66l-20.7,12.1a.75.75,0,0,1-1.13-.65V627.54a.77.77,0,0,1,.37-.65l21.46-12.54a.76.76,0,0,1,1.14.66V640.1a.76.76,0,0,0,.37.65l21.46,12.54a.75.75,0,0,0,1.13-.65V628.43a.75.75,0,0,1,1.13-.66l21.83,12.76,23,13.42-21.85,12.77a.75.75,0,0,0,0,1.3l21.85,12.77h0V628.43a.75.75,0,0,1,1.13-.66l21.83,12.76L1004,653.29a.76.76,0,0,0,1.14-.65V628.43a.76.76,0,0,0-1.14-.66l-20.69,12.1a.76.76,0,0,1-1.14-.65v-25.1a.78.78,0,0,1,.38-.65l22.59-13.2h0l11.48-6.71,10.35-6a.75.75,0,0,1,1.13.66v51.05a.76.76,0,0,0,1.14.65l21.45-12.54a.74.74,0,0,0,.38-.65v-26a.77.77,0,0,1,.37-.65l11.11-6.49,11.48-6.71h0l11.48,6.71,10.37,6.06a.75.75,0,0,1,0,1.3L1075.16,613a.75.75,0,0,0,0,1.3L1097,627.11l21.83,12.76a.75.75,0,0,0,1.13-.65V615a.76.76,0,0,1,1.14-.66l21.45,12.54a.78.78,0,0,1,.38.65v25.1a.75.75,0,0,0,1.13.65l20.71-12.11a.75.75,0,0,0,0-1.3l-21.47-12.55a.76.76,0,0,1-.37-.65V600.27l11.48-6.71,11.48-6.71h0V561.33a.75.75,0,0,1,1.13-.66l21.84,12.76,22.58-13.2a.79.79,0,0,1,.76,0l22.58,13.2V547.91a.76.76,0,0,1,1.14-.66l20.7,12.1a.75.75,0,0,0,1.13-.65V534.49a.75.75,0,0,0-1.13-.66l-21.46,12.54a.74.74,0,0,1-.76,0l-22.58-13.2L1190,520.4a.75.75,0,0,1,0-1.3l10.37-6.06,11.48-6.71v25.53a.75.75,0,0,0,1.13.65l21.83-12.76,23,13.42,23,13.42v26.84h0l-44.81,26.19a.75.75,0,0,0,0,1.3l21.47,12.55a.74.74,0,0,0,.76,0l21.45-12.54a.75.75,0,0,1,1.13.66v25.52M1004,386.21,983.3,398.32a.75.75,0,0,0,0,1.3L1004,411.73a.76.76,0,0,0,1.14-.66V386.86a.76.76,0,0,0-1.14-.65M959.22,519.75m45.93-79.21v24.22a.75.75,0,0,0,1.13.65L1027,453.3a.75.75,0,0,0,0-1.3l-20.72-12.11a.75.75,0,0,0-1.13.65m23,145V561.33a.75.75,0,0,0-1.13-.66l-20.72,12.11a.76.76,0,0,0,0,1.3L1027,586.19a.75.75,0,0,0,1.13-.65M844.78,640.31l21.46-12.55a.75.75,0,0,0,0-1.3l-21.46-12.55a.79.79,0,0,0-.76,0l-21.47,12.55a.75.75,0,0,0,0,1.3L844,640.31a.74.74,0,0,0,.76,0m137.4-53.46ZM1118.84,613a.75.75,0,0,0,1.13-.65V588.17a.76.76,0,0,1,1.14-.66l10.34,6,10.35,6.05a.76.76,0,0,0,1.14-.65V574.75a.76.76,0,0,0-1.14-.66L1120,586.85h0l-11.48,6.71-10.37,6.06a.75.75,0,0,0,0,1.3ZM1120,558.7a.76.76,0,0,0,1.14.65l21.45-12.54a.76.76,0,0,0,.38-.65v-25.1a.76.76,0,0,0-1.14-.65L1120,533.17h0V558.7Zm-114.82,28.15v-12.1a.76.76,0,0,0-1.14-.66L983.3,586.2a.75.75,0,0,0,0,1.3l10.37,6.06,10.34,6.05a.76.76,0,0,0,1.14-.65Zm206.68-52.36a.75.75,0,0,0-1.13-.66l-21.84,12.76h0l21.83,12.76a.75.75,0,0,0,1.13-.65V546.59h0ZM1165.9,400.28V424.5a.75.75,0,0,0,1.13.65L1187.75,413a.75.75,0,0,0,0-1.3L1167,399.63a.75.75,0,0,0-1.13.65m93,106.7,10.36,6.06,10.35,6.05a.75.75,0,0,0,1.13-.65V494.22a.75.75,0,0,0-1.13-.65l-20.71,12.11a.75.75,0,0,0,0,1.3m-48.18-53.67L1190,465.42a.75.75,0,0,0,0,1.3l20.72,12.11a.75.75,0,0,0,1.13-.65V454a.75.75,0,0,0-1.13-.65m24.09,14.07V491.6a.76.76,0,0,0,1.14.65l20.71-12.11a.75.75,0,0,0,0-1.3l-20.71-12.11a.76.76,0,0,0-1.14.65m0-53.68v24.21a.76.76,0,0,0,1.14.66l20.71-12.11a.75.75,0,0,0,0-1.3l-20.71-12.11a.76.76,0,0,0-1.14.65M798.84,640.75l21.46,12.54a.75.75,0,0,0,1.13-.65v-25.1a.77.77,0,0,0-.37-.65L799.6,614.35a.75.75,0,0,0-1.13.66V640.1a.76.76,0,0,0,.37.65m160.38-121-70,39.6a.76.76,0,0,0,1.14-.65m45.92,28.15Zm23,38.95V601.59a.75.75,0,0,0-1.13-.66L937.37,613a.75.75,0,0,0,0,1.3l20.72,12.11a.75.75,0,0,0,1.13-.65m-1.13-105.39-20.72,12.11a.75.75,0,0,0,0,1.3l20.72,12.11a.75.75,0,0,0,1.13-.65V521.06a.75.75,0,0,0-1.13-.65M775.5,599a.76.76,0,0,0,1.14.65L787,593.56l11.49-6.71h0l-21.83-12.76a.76.76,0,0,0-1.14.66V599ZM844,613.47a.74.74,0,0,0,.76,0l21.46-12.55a.75.75,0,0,0,0-1.3l-10.36-6.06-11.48-6.71h0l-11.49,6.71-10.36,6.06a.75.75,0,0,0,0,1.3ZM753.65,668l20.72,12.11a.75.75,0,0,0,1.13-.65V655.27a.75.75,0,0,0-1.13-.66l-20.72,12.11a.75.75,0,0,0,0,1.3m-48.16-1.3-20.71-12.11a.76.76,0,0,0-1.14.66v24.21a.76.76,0,0,0,1.14.65L705.49,668a.75.75,0,0,0,0-1.3m0-26.84-20.71-12.11a.76.76,0,0,0-1.14.66v24.21a.76.76,0,0,0,1.14.65l20.71-12.11a.75.75,0,0,0,0-1.3M660.85,721l22.42-13.1a.76.76,0,0,0,.37-.65V682.11a.75.75,0,0,0-1.13-.66l-21.83,12.76-23,13.42h0V720.3a.76.76,0,0,0,.76.75h22a.7.7,0,0,0,.38-.1m90.55-106.6-20.71,12.11a.75.75,0,0,0,0,1.3l20.71,12.11a.76.76,0,0,0,1.14-.65V615a.76.76,0,0,0-1.14-.66M637.71,679.48a.76.76,0,0,0,1.14.65l21.45-12.54a.74.74,0,0,0,.38-.65V641.85a.75.75,0,0,0-1.13-.66L637.71,654Zm93-79.86a.75.75,0,0,0,0,1.3L751.4,613a.76.76,0,0,0,1.14-.65V586.85h0l-11.49,6.71Zm43.68,53.67-20.72-12.11a.75.75,0,0,1,0-1.3l20.72-12.11a.75.75,0,0,1,1.13.66v24.21a.75.75,0,0,1-1.13.65"/></clipPath><linearGradient id="linear-gradient-2" x1="-7101.62" y1="891.55" x2="-7101.12" y2="891.55" gradientTransform="matrix(2560, 0, 0, -2560, 18180151.94, 2282911.99)" gradientUnits="userSpaceOnUse"><stop offset="0" stop-color="#29235c"/><stop offset="0.25" stop-color="#662483"/><stop offset="0.74" stop-color="#951b81"/><stop offset="1" stop-color="#e6007e"/></linearGradient></defs><g class="cls-3"><g class="cls-4"><g class="cls-5"><rect class="cls-6" x="-5.07" y="345.98" width="1286.02" height="375.39"/></g></g></g></svg>