<svg xmlns="http://www.w3.org/2000/svg" xmlns:xlink="http://www.w3.org/1999/xlink" viewBox="0 0 1280 720"><defs><style>.cls-1{fill:url(#linear-gradient);filter:url(#luminosity-noclip);}.cls-2{fill:none;}.cls-3{fill:#fff;}.cls-4{mask:url(#mask);}.cls-5{clip-path:url(#clip-path);}.cls-6{clip-path:url(#clip-path-2);}.cls-7{fill:#009fe3;}</style><linearGradient id="linear-gradient" x1="-5798.67" y1="897.33" x2="-5798.17" y2="897.33" gradientTransform="matrix(0, -883.43, -883.43, 0, 793362.67, -5121987.67)" gradientUnits="userSpaceOnUse"><stop offset="0" stop-color="#fff"/><stop offset="0.1" stop-color="#f0f0f0"/><stop offset="0.28" stop-color="#c7c7c7"/><stop offset="0.53" stop-color="#868686"/><stop offset="0.85" stop-color="#2e2e2e"/><stop offset="1"/></linearGradient><filter id="luminosity-noclip" x="-9.4" y="343.44" width="1294.37" height="535.75" filterUnits="userSpaceOnUse" color-interpolation-filters="sRGB"><feFlood flood-color="#fff" result="bg"/><feBlend in="SourceGraphic" in2="bg"/></filter><mask id="mask" x="-9.4" y="343.44" width="1294.37" height="535.75" maskUnits="userSpaceOnUse"><rect class="cls-1" x="-9.4" y="346.94" width="1289.87" height="532.24"/></mask><clipPath id="clip-path"><rect class="cls-2" x="-4.4" y="343.44" width="1289.37" height="377.56"/></clipPath><clipPath id="clip-path-2"><path class="cls-3" d="M389.17,559.94a.74.74,0,0,1-.76,0m-67.09-39.2L342,532.8a.75.75,0,0,1,0,1.29l-20.63,12a.75.75,0,0,1-1.13-.65v-24.1a.75.75,0,0,1,1.13-.65m-70.84-13.36a.75.75,0,0,1,1.12.65v24.11a.75.75,0,0,1-1.12.65l-20.63-12.06a.76.76,0,0,1,0-1.3l10.32-6Zm2.24-54.75,20.62-12.05a.75.75,0,0,1,1.13.65v24.1a.75.75,0,0,1-1.13.65l-20.62-12.05a.75.75,0,0,1,0-1.3m0,108.19,20.63,12.06a.76.76,0,0,1,0,1.3l-20.63,12.05a.75.75,0,0,1-1.13-.65V561.47a.75.75,0,0,1,1.13-.65m-48-26.72a.75.75,0,0,1,1.13.65v25a.74.74,0,0,1-.37.65l-21.37,12.49a.75.75,0,0,1-1.12-.65V560.16h0V546.8h0Zm388.7,65.5a.75.75,0,0,1,0,1.3L572.83,613a.75.75,0,0,1-1.13-.65V588.2a.75.75,0,0,1,1.13-.65l10.3,6Zm-45.73,0a.75.75,0,0,1,0,1.3L526,613.61l-22.49,13.14a.77.77,0,0,1-.75,0l-22.12-12.93a.74.74,0,0,1-.37-.64v-25a.75.75,0,0,1,1.13-.65l10.31,6L502.73,600a.72.72,0,0,0,.75,0l11.06-6.46,11.05-6.46a.74.74,0,0,1,.76,0l11,6.46Zm-67.1-39.22L502,572.88a.75.75,0,0,1,0,1.3l-21.37,12.49a.79.79,0,0,1-.76,0l-21.37-12.49a.75.75,0,0,1,0-1.3l21.37-12.5a.79.79,0,0,1,.76,0m-90.7.44,21.36,12.49a.74.74,0,0,1,.37.65v25a.75.75,0,0,1-1.13.65l-10.3-6-11.06-6.46a.77.77,0,0,1-.37-.65v-25a.75.75,0,0,1,1.13-.65M342,613a.76.76,0,0,1,0,1.3l-21.38,12.49a.77.77,0,0,1-.75,0l-22.49-13.14L275.58,600.9a.75.75,0,0,1,0-1.3l10.32-6L297,587.11a.74.74,0,0,1,.76,0l11.06,6.46,11.42,6.68ZM456.27,599.6a.76.76,0,0,1,0,1.3l-21.38,12.49a.77.77,0,0,1-.75,0L412.76,600.9a.76.76,0,0,1,0-1.3l10.32-6,11.06-6.46a.72.72,0,0,1,.75,0l11.05,6.46ZM92.67,546.15,114,533.67a.74.74,0,0,1,.76,0l21.37,12.48a.75.75,0,0,1,0,1.3L114.8,559.94a.74.74,0,0,1-.76,0L92.67,547.45a.75.75,0,0,1,0-1.3m45,.43L159,534.1a.75.75,0,0,1,1.13.65v25a.73.73,0,0,1-.38.65l-21.36,12.49a.75.75,0,0,1-1.13-.65v-25a.78.78,0,0,1,.38-.65m526.58,41.07,20.62,12.05a.75.75,0,0,1,0,1.3l-20.62,12.06a.75.75,0,0,1-1.13-.65V588.3a.75.75,0,0,1,1.13-.65m-69.3,39.54,21.37,12.49a.75.75,0,0,1,0,1.3l-21.37,12.49a.74.74,0,0,1-.76,0L572.81,641a.75.75,0,0,1,0-1.3l21.37-12.49a.74.74,0,0,1,.76,0m23.61-12.92,21.37,12.48a.76.76,0,0,1,.37.65v51.71a.75.75,0,0,1-1.13.65L617.8,667.27a.74.74,0,0,1-.37-.65v-51.7a.74.74,0,0,1,1.12-.65M69.82,453.94,90.45,466a.75.75,0,0,1,0,1.29L69.82,479.34a.75.75,0,0,1-1.13-.65v-24.1a.75.75,0,0,1,1.13-.65m0-106.89L90.45,359.1a.76.76,0,0,1,0,1.3L69.82,372.45a.75.75,0,0,1-1.13-.65V347.7a.75.75,0,0,1,1.13-.65M91.19,519.87a.74.74,0,0,1,.37.65v25a.75.75,0,0,1-1.13.65L69.07,533.66a.75.75,0,0,1-.38-.65V508a.75.75,0,0,1,1.13-.65l10.3,6Zm24.36-39.21,20.62,12a.75.75,0,0,1,0,1.3l-20.62,12.05a.75.75,0,0,1-1.13-.65v-24.1a.75.75,0,0,1,1.13-.65M24.08,425.9l20.62-12a.75.75,0,0,1,1.13.65v24.11a.75.75,0,0,1-1.13.65L24.08,427.2a.75.75,0,0,1,0-1.3m137.18-53.44,20.62-12a.75.75,0,0,1,1.13.65v24.1a.75.75,0,0,1-1.13.65l-20.62-12.05a.75.75,0,0,1,0-1.3m0,81.48L181.9,466a.74.74,0,0,1,0,1.29l-20.62,12.06a.75.75,0,0,1-1.13-.65v-24.1a.75.75,0,0,1,1.13-.65m43.47,53.44a.75.75,0,0,1,1.13.65v24.11a.75.75,0,0,1-1.13.65l-20.62-12.06a.75.75,0,0,1,0-1.3l10.31-6ZM388.79,613a.76.76,0,0,1-.37.65L367.05,626.3a.75.75,0,0,1-1.13-.65v-25a.77.77,0,0,1,.37-.65l11.06-6.46,10.31-6a.75.75,0,0,1,1.13.65Zm69.72,66.74,20.62-12a.75.75,0,0,0,0-1.3l-20.62-12.06a.75.75,0,0,0-1.13.65v24.11a.75.75,0,0,0,1.13.65m-91.46,26.72,20.63-12.06a.75.75,0,0,0,0-1.29l-20.63-12a.75.75,0,0,0-1.13.65v24.1a.75.75,0,0,0,1.13.65m-68.59-13.36,20.62-12a.75.75,0,0,0,0-1.3l-20.62-12a.75.75,0,0,0-1.13.65v24.1a.75.75,0,0,0,1.13.65M183,679.11V655a.75.75,0,0,0-1.13-.65l-20.63,12.06a.75.75,0,0,0,0,1.3l20.63,12a.75.75,0,0,0,1.13-.65m-45.74-26.73v-24.1a.75.75,0,0,0-1.12-.65l-20.63,12a.76.76,0,0,0,0,1.3l20.63,12a.74.74,0,0,0,1.12-.65M91.56,705.83v-24.1a.75.75,0,0,0-1.13-.65l-20.62,12a.74.74,0,0,0,0,1.29l20.62,12.06a.75.75,0,0,0,1.13-.65M45.83,652.38v-24.1a.75.75,0,0,0-1.13-.65l-20.62,12a.75.75,0,0,0,0,1.3L44.7,653a.75.75,0,0,0,1.13-.65M617.8,694l22.12,12.93a.74.74,0,0,1,.37.65v12.18a.76.76,0,0,1-.75.75H.86a.75.75,0,0,1-.75-.75V601.56a.75.75,0,0,1,1.12-.65l20.61,12A.75.75,0,0,0,23,612.3v-25a.76.76,0,0,1,.37-.65l22.12-12.93a.74.74,0,0,0,.37-.65v-25a.75.75,0,0,1,1.13-.65l21.73,12.7,22.5,13.15a.74.74,0,0,1,.37.65v25a.75.75,0,0,1-1.13.65l-10.3-6-10.31-6a.75.75,0,0,0-1.13.65v25a.75.75,0,0,0,.38.64l22.11,12.93a.79.79,0,0,0,.76,0l21.37-12.49a.75.75,0,0,0,0-1.3L92.67,600.9a.75.75,0,0,1,0-1.3l10.32-6,11.06-6.46a.77.77,0,0,0,.37-.65v-25a.75.75,0,0,1,1.13-.65l21.73,12.71,22.49,13.14a.74.74,0,0,1,.38.65v25a.75.75,0,0,0,1.13.65L181.9,600.9a.75.75,0,0,0,0-1.3l-10.32-6-11.06-6.46a.77.77,0,0,1-.37-.65v-25a.75.75,0,0,1,1.13-.65L183,573.53l22.86,13.36,11.43,6.68,10.32,6a.75.75,0,0,1,0,1.3l-21.75,12.71-21.75,12.71a.75.75,0,0,0,0,1.3l20.62,12a.75.75,0,0,0,1.13-.65v-24.1a.75.75,0,0,1,1.13-.65L228.74,627l21.74,12.7a.75.75,0,0,0,1.12-.65V614a.74.74,0,0,0-.37-.65L229.85,600.9a.76.76,0,0,1,0-1.3l10.32-6,11.06-6.46a.72.72,0,0,1,.75,0l11,6.46L274.1,600a.77.77,0,0,1,.37.65v51.7a.75.75,0,0,0,1.13.65l21.73-12.7,21.74-12.7a.75.75,0,0,1,1.12.65v24.1a.75.75,0,0,0,1.13.65l21.74-12.7L365.9,627h0v26.29a.74.74,0,0,0,.37.65l22.12,12.92a.74.74,0,0,0,.76,0l21.37-12.49a.75.75,0,0,0,0-1.3L390,641a.75.75,0,0,1,0-1.3l21.64-12.78,0,0,21.74,12.7a.75.75,0,0,0,1.13-.65v-24.1a.74.74,0,0,1,1.12-.65L457,626.75a.79.79,0,0,0,.76,0l21.35-12.48a.75.75,0,0,1,1.13.65v25a.76.76,0,0,0,.37.65l22.12,12.92a.72.72,0,0,0,.75,0l22.12-12.92a.76.76,0,0,0,.37-.65v-25a.75.75,0,0,1,1.13-.65l21.36,12.48a.76.76,0,0,1,.37.65v25.86a.74.74,0,0,0,.37.65l22.5,13.15,22.48,13.14a.79.79,0,0,0,.76,0l21.36-12.48a.75.75,0,0,1,1.13.65v25a.74.74,0,0,0,.37.65M1.23,494l20.63,12.05a.76.76,0,0,1,0,1.3l-10.33,6-10.3,6a.74.74,0,0,1-1.12-.65v-24.1A.75.75,0,0,1,1.23,494M.48,546.58,21.84,534.1a.75.75,0,0,1,1.13.65v25a.74.74,0,0,1-.37.65L1.23,572.87a.75.75,0,0,1-1.12-.65v-25a.77.77,0,0,1,.37-.65m1097.08-.05h0l-21.73-12.7a.75.75,0,0,0-1.13.65v25.41h0l21.73,12.7a.75.75,0,0,0,1.13-.65V559.89h0ZM1029,531.86a.75.75,0,0,0,1.13.65l20.63-12.06a.75.75,0,0,0,0-1.29l-10.33-6L1029,506.44v25.42Zm67.48-11.41a.74.74,0,0,0,0-1.29l-10.32-6-10.3-6a.75.75,0,0,0-1.13.65v24.11a.75.75,0,0,0,1.13.65Zm22.85-66.79-20.62,12a.75.75,0,0,0,0,1.3l20.62,12.05a.75.75,0,0,0,1.13-.65v-24.1a.75.75,0,0,0-1.13-.65m25.1,92.22a.76.76,0,0,0,0,1.3L1165,559.23a.75.75,0,0,0,1.13-.65v-24.1a.75.75,0,0,0-1.13-.65Zm-252.61,67a.74.74,0,0,0,.37.65l22.12,12.92a.72.72,0,0,0,.75,0l22.12-12.92a.74.74,0,0,0,.37-.65v-25a.75.75,0,0,0-1.13-.65l-10.3,6L914.65,600l-11.43-6.68-10.3-6a.75.75,0,0,0-1.13.65Zm-11.43-19.61,11.43-6.68h0V561.2a.75.75,0,0,0-1.13-.65L869.3,573a.76.76,0,0,0-.37.65V600h0ZM1234.75,628v24.11a.75.75,0,0,0,1.13.65l20.62-12.06a.74.74,0,0,0,0-1.29l-20.62-12.06a.75.75,0,0,0-1.13.65m-22.87-40.08a.75.75,0,0,0-1.13-.65l-10.3,6L1189,600l21.73,12.7a.75.75,0,0,0,1.13-.65Zm-114.32,66.81v24.1a.75.75,0,0,0,1.13.65l20.63-12.05a.76.76,0,0,0,0-1.3l-20.63-12a.75.75,0,0,0-1.13.65m-69.72,12.71-20.62,12a.75.75,0,0,0,0,1.3l20.62,12.05a.75.75,0,0,0,1.13-.65v-24.1a.75.75,0,0,0-1.13-.65m252.63,52a.74.74,0,0,1-.75.75H686.77a.74.74,0,0,1-.75-.75V707.29a.77.77,0,0,1,.37-.65l22.11-12.92a.74.74,0,0,1,.76,0l21.36,12.48a.75.75,0,0,0,1.12-.65v-25a.76.76,0,0,0-.37-.65L710,667.43a.75.75,0,0,1,0-1.3l21.38-12.49a.72.72,0,0,1,.75,0l22.12,12.92a.74.74,0,0,1,.37.65v25a.75.75,0,0,0,1.13.65l21.35-12.48a.74.74,0,0,1,.76,0l21.36,12.48a.75.75,0,0,0,1.13-.65v-24.1a.74.74,0,0,1,1.12-.65l21.37,12.48a.76.76,0,0,1,.37.65v25a.75.75,0,0,0,1.13.65L845,694.15a.75.75,0,0,0,0-1.3l-21.38-12.49a.77.77,0,0,1-.37-.65V653.85a.74.74,0,0,1,.37-.65l21.36-12.49a.75.75,0,0,1,1.13.65v25a.77.77,0,0,0,.37.65l22.5,13.14,21.73,12.7a.75.75,0,0,0,1.13-.65v-24.1a.75.75,0,0,0-1.13-.65l-20.6,12a.75.75,0,0,1-1.13-.65v-51.7a.74.74,0,0,1,.37-.65L890.66,614a.75.75,0,0,1,1.13.65v25a.74.74,0,0,0,.37.65l21.37,12.49a.75.75,0,0,0,1.12-.65V628a.75.75,0,0,1,1.13-.65l21.74,12.71,22.86,13.36-21.75,12.71a.75.75,0,0,0,0,1.3l21.75,12.71h0V628a.75.75,0,0,1,1.13-.65l21.74,12.71,21.73,12.7a.75.75,0,0,0,1.13-.65V628a.75.75,0,0,0-1.13-.65l-20.61,12a.75.75,0,0,1-1.12-.65v-25a.74.74,0,0,1,.37-.65L1006.11,600h0l11.43-6.68,10.3-6a.75.75,0,0,1,1.13.65v50.83a.75.75,0,0,0,1.13.65l21.36-12.49a.75.75,0,0,0,.38-.65V600.4a.77.77,0,0,1,.37-.65l11.06-6.46,11.43-6.68h0l11.43,6.68,10.32,6a.75.75,0,0,1,0,1.3l-20.64,12.06a.76.76,0,0,0,0,1.3l21.75,12.71,21.74,12.71a.75.75,0,0,0,1.13-.65V614.64a.75.75,0,0,1,1.13-.65l21.36,12.49a.74.74,0,0,1,.37.65v25a.75.75,0,0,0,1.13.65L1165,640.7a.74.74,0,0,0,0-1.29l-21.38-12.5a.74.74,0,0,1-.37-.65V600l11.43-6.68,11.44-6.68h0V561.2a.75.75,0,0,1,1.12-.65l21.74,12.7,22.48-13.14a.74.74,0,0,1,.76,0l22.49,13.14V547.84a.75.75,0,0,1,1.13-.65l20.6,12a.75.75,0,0,0,1.13-.65v-24.1a.75.75,0,0,0-1.13-.65l-21.36,12.48a.77.77,0,0,1-.75,0l-22.49-13.14-21.75-12.72a.74.74,0,0,1,0-1.29l10.32-6,11.43-6.68v25.42a.75.75,0,0,0,1.13.65l21.74-12.7,22.86,13.36,22.86,13.36v26.72h0l-44.61,26.07a.75.75,0,0,0,0,1.3l21.37,12.49a.74.74,0,0,0,.76,0l21.36-12.48a.75.75,0,0,1,1.12.65v25.41M1005,386.85l-20.62,12.06a.74.74,0,0,0,0,1.29L1005,412.26a.75.75,0,0,0,1.13-.65V387.5a.75.75,0,0,0-1.13-.65m-44.6,133M1006.11,441v24.1a.75.75,0,0,0,1.13.65l20.62-12.05a.75.75,0,0,0,0-1.3l-20.62-12.05a.75.75,0,0,0-1.13.65M1029,585.3V561.2a.75.75,0,0,0-1.13-.65l-20.62,12.05a.75.75,0,0,0,0,1.3L1027.84,586a.75.75,0,0,0,1.13-.65M846.44,639.83l21.37-12.49a.75.75,0,0,0,0-1.3l-21.37-12.49a.79.79,0,0,0-.76,0L824.31,626a.75.75,0,0,0,0,1.3l21.37,12.49a.74.74,0,0,0,.76,0m136.81-53.22Zm136,26.06a.75.75,0,0,0,1.13-.65v-24.1a.75.75,0,0,1,1.13-.65l10.3,6,10.3,6a.75.75,0,0,0,1.13-.65v-24.1a.75.75,0,0,0-1.13-.65l-21.73,12.7h0L1109,593.29l-10.32,6a.75.75,0,0,0,0,1.3Zm1.13-54.09a.75.75,0,0,0,1.13.65l21.36-12.48a.77.77,0,0,0,.37-.65v-25a.75.75,0,0,0-1.13-.65l-21.73,12.71h0v25.41Zm-114.32,28V574.56a.75.75,0,0,0-1.13-.65L984.36,586a.75.75,0,0,0,0,1.3l10.32,6,10.3,6a.75.75,0,0,0,1.13-.65Zm205.77-52.13a.75.75,0,0,0-1.13-.65L1189,546.53h0l21.73,12.7a.75.75,0,0,0,1.13-.65V546.53h0Zm-45.72-133.62V425a.75.75,0,0,0,1.12.65l20.63-12.05a.76.76,0,0,0,0-1.3l-20.63-12.06a.75.75,0,0,0-1.12.65m92.56,106.23,10.32,6,10.31,6a.75.75,0,0,0,1.12-.65V494.39a.75.75,0,0,0-1.12-.65l-20.63,12.05a.76.76,0,0,0,0,1.3m-48-53.43-20.62,12a.75.75,0,0,0,0,1.3l20.62,12.05a.75.75,0,0,0,1.13-.65v-24.1a.75.75,0,0,0-1.13-.65m24,14v24.1a.75.75,0,0,0,1.13.65l20.62-12.05a.75.75,0,0,0,0-1.3L1235.88,467a.75.75,0,0,0-1.13.65m0-53.45v24.11a.75.75,0,0,0,1.13.65l20.62-12.05a.75.75,0,0,0,0-1.3l-20.62-12.05a.74.74,0,0,0-1.13.64m-434,226,21.36,12.49a.75.75,0,0,0,1.13-.65v-25a.74.74,0,0,0-.37-.65L801.46,614a.75.75,0,0,0-1.12.65v25a.74.74,0,0,0,.37.65M960.38,519.81m-69.72,39.42a.75.75,0,0,0,1.13-.65m45.73,28Zm22.86,38.78V601.28a.75.75,0,0,0-1.13-.65l-20.62,12a.75.75,0,0,0,0,1.3l20.62,12a.75.75,0,0,0,1.13-.64m-1.13-104.93-20.62,12.06a.75.75,0,0,0,0,1.3l20.62,12a.75.75,0,0,0,1.13-.65V521.11a.75.75,0,0,0-1.13-.65m-181.78,78.2a.75.75,0,0,0,1.13.65l10.3-6,11.44-6.68h0l-21.74-12.7a.75.75,0,0,0-1.13.65v24.1Zm68.21,14.45a.74.74,0,0,0,.76,0l21.37-12.49a.75.75,0,0,0,0-1.3l-10.32-6-11.43-6.68h0l-11.43,6.68-10.32,6a.75.75,0,0,0,0,1.3Zm-90,54.32,20.62,12.05a.75.75,0,0,0,1.13-.65v-24.1a.75.75,0,0,0-1.13-.65l-20.62,12a.75.75,0,0,0,0,1.3m-48-1.3-20.63-12a.74.74,0,0,0-1.12.65v24.1a.75.75,0,0,0,1.12.65l20.63-12.05a.76.76,0,0,0,0-1.3m0-26.72-20.63-12.06A.75.75,0,0,0,686,628v24.11a.75.75,0,0,0,1.12.65l20.63-12.06a.75.75,0,0,0,0-1.29m-44.44,80.71,22.31-13a.76.76,0,0,0,.38-.65v-25a.75.75,0,0,0-1.13-.65l-21.74,12.7-22.86,13.36h0v12.61a.74.74,0,0,0,.75.75H663a.75.75,0,0,0,.38-.1M753.48,614l-20.62,12a.75.75,0,0,0,0,1.3l20.62,12.06a.75.75,0,0,0,1.13-.65V614.64a.75.75,0,0,0-1.13-.65M640.29,678.83a.75.75,0,0,0,1.13.65L662.78,667a.77.77,0,0,0,.37-.65v-25a.75.75,0,0,0-1.13-.65l-21.73,12.71Zm92.57-79.51a.75.75,0,0,0,0,1.3l20.62,12a.75.75,0,0,0,1.13-.65V586.61h0l-11.43,6.68Zm43.48,53.44L755.72,640.7a.74.74,0,0,1,0-1.29l20.62-12.06a.75.75,0,0,1,1.13.65v24.11a.75.75,0,0,1-1.13.65"/></clipPath></defs><g id="Layer_1" data-name="Layer 1"><g class="cls-4"><g class="cls-5"><path class="cls-3" d="M389.17,559.94a.74.74,0,0,1-.76,0m-67.09-39.2L342,532.8a.75.75,0,0,1,0,1.29l-20.63,12a.75.75,0,0,1-1.13-.65v-24.1a.75.75,0,0,1,1.13-.65m-70.84-13.36a.75.75,0,0,1,1.12.65v24.11a.75.75,0,0,1-1.12.65l-20.63-12.06a.76.76,0,0,1,0-1.3l10.32-6Zm2.24-54.75,20.62-12.05a.75.75,0,0,1,1.13.65v24.1a.75.75,0,0,1-1.13.65l-20.62-12.05a.75.75,0,0,1,0-1.3m0,108.19,20.63,12.06a.76.76,0,0,1,0,1.3l-20.63,12.05a.75.75,0,0,1-1.13-.65V561.47a.75.75,0,0,1,1.13-.65m-48-26.72a.75.75,0,0,1,1.13.65v25a.74.74,0,0,1-.37.65l-21.37,12.49a.75.75,0,0,1-1.12-.65V560.16h0V546.8h0Zm388.7,65.5a.75.75,0,0,1,0,1.3L572.83,613a.75.75,0,0,1-1.13-.65V588.2a.75.75,0,0,1,1.13-.65l10.3,6Zm-45.73,0a.75.75,0,0,1,0,1.3L526,613.61l-22.49,13.14a.77.77,0,0,1-.75,0l-22.12-12.93a.74.74,0,0,1-.37-.64v-25a.75.75,0,0,1,1.13-.65l10.31,6L502.73,600a.72.72,0,0,0,.75,0l11.06-6.46,11.05-6.46a.74.74,0,0,1,.76,0l11,6.46Zm-67.1-39.22L502,572.88a.75.75,0,0,1,0,1.3l-21.37,12.49a.79.79,0,0,1-.76,0l-21.37-12.49a.75.75,0,0,1,0-1.3l21.37-12.5a.79.79,0,0,1,.76,0m-90.7.44,21.36,12.49a.74.74,0,0,1,.37.65v25a.75.75,0,0,1-1.13.65l-10.3-6-11.06-6.46a.77.77,0,0,1-.37-.65v-25a.75.75,0,0,1,1.13-.65M342,613a.76.76,0,0,1,0,1.3l-21.38,12.49a.77.77,0,0,1-.75,0l-22.49-13.14L275.58,600.9a.75.75,0,0,1,0-1.3l10.32-6L297,587.11a.74.74,0,0,1,.76,0l11.06,6.46,11.42,6.68ZM456.27,599.6a.76.76,0,0,1,0,1.3l-21.38,12.49a.77.77,0,0,1-.75,0L412.76,600.9a.76.76,0,0,1,0-1.3l10.32-6,11.06-6.46a.72.72,0,0,1,.75,0l11.05,6.46ZM92.67,546.15,114,533.67a.74.74,0,0,1,.76,0l21.37,12.48a.75.75,0,0,1,0,1.3L114.8,559.94a.74.74,0,0,1-.76,0L92.67,547.45a.75.75,0,0,1,0-1.3m45,.43L159,534.1a.75.75,0,0,1,1.13.65v25a.73.73,0,0,1-.38.65l-21.36,12.49a.75.75,0,0,1-1.13-.65v-25a.78.78,0,0,1,.38-.65m526.58,41.07,20.62,12.05a.75.75,0,0,1,0,1.3l-20.62,12.06a.75.75,0,0,1-1.13-.65V588.3a.75.75,0,0,1,1.13-.65m-69.3,39.54,21.37,12.49a.75.75,0,0,1,0,1.3l-21.37,12.49a.74.74,0,0,1-.76,0L572.81,641a.75.75,0,0,1,0-1.3l21.37-12.49a.74.74,0,0,1,.76,0m23.61-12.92,21.37,12.48a.76.76,0,0,1,.37.65v51.71a.75.75,0,0,1-1.13.65L617.8,667.27a.74.74,0,0,1-.37-.65v-51.7a.74.74,0,0,1,1.12-.65M69.82,453.94,90.45,466a.75.75,0,0,1,0,1.29L69.82,479.34a.75.75,0,0,1-1.13-.65v-24.1a.75.75,0,0,1,1.13-.65m0-106.89L90.45,359.1a.76.76,0,0,1,0,1.3L69.82,372.45a.75.75,0,0,1-1.13-.65V347.7a.75.75,0,0,1,1.13-.65M91.19,519.87a.74.74,0,0,1,.37.65v25a.75.75,0,0,1-1.13.65L69.07,533.66a.75.75,0,0,1-.38-.65V508a.75.75,0,0,1,1.13-.65l10.3,6Zm24.36-39.21,20.62,12a.75.75,0,0,1,0,1.3l-20.62,12.05a.75.75,0,0,1-1.13-.65v-24.1a.75.75,0,0,1,1.13-.65M24.08,425.9l20.62-12a.75.75,0,0,1,1.13.65v24.11a.75.75,0,0,1-1.13.65L24.08,427.2a.75.75,0,0,1,0-1.3m137.18-53.44,20.62-12a.75.75,0,0,1,1.13.65v24.1a.75.75,0,0,1-1.13.65l-20.62-12.05a.75.75,0,0,1,0-1.3m0,81.48L181.9,466a.74.74,0,0,1,0,1.29l-20.62,12.06a.75.75,0,0,1-1.13-.65v-24.1a.75.75,0,0,1,1.13-.65m43.47,53.44a.75.75,0,0,1,1.13.65v24.11a.75.75,0,0,1-1.13.65l-20.62-12.06a.75.75,0,0,1,0-1.3l10.31-6ZM388.79,613a.76.76,0,0,1-.37.65L367.05,626.3a.75.75,0,0,1-1.13-.65v-25a.77.77,0,0,1,.37-.65l11.06-6.46,10.31-6a.75.75,0,0,1,1.13.65Zm69.72,66.74,20.62-12a.75.75,0,0,0,0-1.3l-20.62-12.06a.75.75,0,0,0-1.13.65v24.11a.75.75,0,0,0,1.13.65m-91.46,26.72,20.63-12.06a.75.75,0,0,0,0-1.29l-20.63-12a.75.75,0,0,0-1.13.65v24.1a.75.75,0,0,0,1.13.65m-68.59-13.36,20.62-12a.75.75,0,0,0,0-1.3l-20.62-12a.75.75,0,0,0-1.13.65v24.1a.75.75,0,0,0,1.13.65M183,679.11V655a.75.75,0,0,0-1.13-.65l-20.63,12.06a.75.75,0,0,0,0,1.3l20.63,12a.75.75,0,0,0,1.13-.65m-45.74-26.73v-24.1a.75.75,0,0,0-1.12-.65l-20.63,12a.76.76,0,0,0,0,1.3l20.63,12a.74.74,0,0,0,1.12-.65M91.56,705.83v-24.1a.75.75,0,0,0-1.13-.65l-20.62,12a.74.74,0,0,0,0,1.29l20.62,12.06a.75.75,0,0,0,1.13-.65M45.83,652.38v-24.1a.75.75,0,0,0-1.13-.65l-20.62,12a.75.75,0,0,0,0,1.3L44.7,653a.75.75,0,0,0,1.13-.65M617.8,694l22.12,12.93a.74.74,0,0,1,.37.65v12.18a.76.76,0,0,1-.75.75H.86a.75.75,0,0,1-.75-.75V601.56a.75.75,0,0,1,1.12-.65l20.61,12A.75.75,0,0,0,23,612.3v-25a.76.76,0,0,1,.37-.65l22.12-12.93a.74.74,0,0,0,.37-.65v-25a.75.75,0,0,1,1.13-.65l21.73,12.7,22.5,13.15a.74.74,0,0,1,.37.65v25a.75.75,0,0,1-1.13.65l-10.3-6-10.31-6a.75.75,0,0,0-1.13.65v25a.75.75,0,0,0,.38.64l22.11,12.93a.79.79,0,0,0,.76,0l21.37-12.49a.75.75,0,0,0,0-1.3L92.67,600.9a.75.75,0,0,1,0-1.3l10.32-6,11.06-6.46a.77.77,0,0,0,.37-.65v-25a.75.75,0,0,1,1.13-.65l21.73,12.71,22.49,13.14a.74.74,0,0,1,.38.65v25a.75.75,0,0,0,1.13.65L181.9,600.9a.75.75,0,0,0,0-1.3l-10.32-6-11.06-6.46a.77.77,0,0,1-.37-.65v-25a.75.75,0,0,1,1.13-.65L183,573.53l22.86,13.36,11.43,6.68,10.32,6a.75.75,0,0,1,0,1.3l-21.75,12.71-21.75,12.71a.75.75,0,0,0,0,1.3l20.62,12a.75.75,0,0,0,1.13-.65v-24.1a.75.75,0,0,1,1.13-.65L228.74,627l21.74,12.7a.75.75,0,0,0,1.12-.65V614a.74.74,0,0,0-.37-.65L229.85,600.9a.76.76,0,0,1,0-1.3l10.32-6,11.06-6.46a.72.72,0,0,1,.75,0l11,6.46L274.1,600a.77.77,0,0,1,.37.65v51.7a.75.75,0,0,0,1.13.65l21.73-12.7,21.74-12.7a.75.75,0,0,1,1.12.65v24.1a.75.75,0,0,0,1.13.65l21.74-12.7L365.9,627h0v26.29a.74.74,0,0,0,.37.65l22.12,12.92a.74.74,0,0,0,.76,0l21.37-12.49a.75.75,0,0,0,0-1.3L390,641a.75.75,0,0,1,0-1.3l21.64-12.78,0,0,21.74,12.7a.75.75,0,0,0,1.13-.65v-24.1a.74.74,0,0,1,1.12-.65L457,626.75a.79.79,0,0,0,.76,0l21.35-12.48a.75.75,0,0,1,1.13.65v25a.76.76,0,0,0,.37.65l22.12,12.92a.72.72,0,0,0,.75,0l22.12-12.92a.76.76,0,0,0,.37-.65v-25a.75.75,0,0,1,1.13-.65l21.36,12.48a.76.76,0,0,1,.37.65v25.86a.74.74,0,0,0,.37.65l22.5,13.15,22.48,13.14a.79.79,0,0,0,.76,0l21.36-12.48a.75.75,0,0,1,1.13.65v25a.74.74,0,0,0,.37.65M1.23,494l20.63,12.05a.76.76,0,0,1,0,1.3l-10.33,6-10.3,6a.74.74,0,0,1-1.12-.65v-24.1A.75.75,0,0,1,1.23,494M.48,546.58,21.84,534.1a.75.75,0,0,1,1.13.65v25a.74.74,0,0,1-.37.65L1.23,572.87a.75.75,0,0,1-1.12-.65v-25a.77.77,0,0,1,.37-.65m1097.08-.05h0l-21.73-12.7a.75.75,0,0,0-1.13.65v25.41h0l21.73,12.7a.75.75,0,0,0,1.13-.65V559.89h0ZM1029,531.86a.75.75,0,0,0,1.13.65l20.63-12.06a.75.75,0,0,0,0-1.29l-10.33-6L1029,506.44v25.42Zm67.48-11.41a.74.74,0,0,0,0-1.29l-10.32-6-10.3-6a.75.75,0,0,0-1.13.65v24.11a.75.75,0,0,0,1.13.65Zm22.85-66.79-20.62,12a.75.75,0,0,0,0,1.3l20.62,12.05a.75.75,0,0,0,1.13-.65v-24.1a.75.75,0,0,0-1.13-.65m25.1,92.22a.76.76,0,0,0,0,1.3L1165,559.23a.75.75,0,0,0,1.13-.65v-24.1a.75.75,0,0,0-1.13-.65Zm-252.61,67a.74.74,0,0,0,.37.65l22.12,12.92a.72.72,0,0,0,.75,0l22.12-12.92a.74.74,0,0,0,.37-.65v-25a.75.75,0,0,0-1.13-.65l-10.3,6L914.65,600l-11.43-6.68-10.3-6a.75.75,0,0,0-1.13.65Zm-11.43-19.61,11.43-6.68h0V561.2a.75.75,0,0,0-1.13-.65L869.3,573a.76.76,0,0,0-.37.65V600h0ZM1234.75,628v24.11a.75.75,0,0,0,1.13.65l20.62-12.06a.74.74,0,0,0,0-1.29l-20.62-12.06a.75.75,0,0,0-1.13.65m-22.87-40.08a.75.75,0,0,0-1.13-.65l-10.3,6L1189,600l21.73,12.7a.75.75,0,0,0,1.13-.65Zm-114.32,66.81v24.1a.75.75,0,0,0,1.13.65l20.63-12.05a.76.76,0,0,0,0-1.3l-20.63-12a.75.75,0,0,0-1.13.65m-69.72,12.71-20.62,12a.75.75,0,0,0,0,1.3l20.62,12.05a.75.75,0,0,0,1.13-.65v-24.1a.75.75,0,0,0-1.13-.65m252.63,52a.74.74,0,0,1-.75.75H686.77a.74.74,0,0,1-.75-.75V707.29a.77.77,0,0,1,.37-.65l22.11-12.92a.74.74,0,0,1,.76,0l21.36,12.48a.75.75,0,0,0,1.12-.65v-25a.76.76,0,0,0-.37-.65L710,667.43a.75.75,0,0,1,0-1.3l21.38-12.49a.72.72,0,0,1,.75,0l22.12,12.92a.74.74,0,0,1,.37.65v25a.75.75,0,0,0,1.13.65l21.35-12.48a.74.74,0,0,1,.76,0l21.36,12.48a.75.75,0,0,0,1.13-.65v-24.1a.74.74,0,0,1,1.12-.65l21.37,12.48a.76.76,0,0,1,.37.65v25a.75.75,0,0,0,1.13.65L845,694.15a.75.75,0,0,0,0-1.3l-21.38-12.49a.77.77,0,0,1-.37-.65V653.85a.74.74,0,0,1,.37-.65l21.36-12.49a.75.75,0,0,1,1.13.65v25a.77.77,0,0,0,.37.65l22.5,13.14,21.73,12.7a.75.75,0,0,0,1.13-.65v-24.1a.75.75,0,0,0-1.13-.65l-20.6,12a.75.75,0,0,1-1.13-.65v-51.7a.74.74,0,0,1,.37-.65L890.66,614a.75.75,0,0,1,1.13.65v25a.74.74,0,0,0,.37.65l21.37,12.49a.75.75,0,0,0,1.12-.65V628a.75.75,0,0,1,1.13-.65l21.74,12.71,22.86,13.36-21.75,12.71a.75.75,0,0,0,0,1.3l21.75,12.71h0V628a.75.75,0,0,1,1.13-.65l21.74,12.71,21.73,12.7a.75.75,0,0,0,1.13-.65V628a.75.75,0,0,0-1.13-.65l-20.61,12a.75.75,0,0,1-1.12-.65v-25a.74.74,0,0,1,.37-.65L1006.11,600h0l11.43-6.68,10.3-6a.75.75,0,0,1,1.13.65v50.83a.75.75,0,0,0,1.13.65l21.36-12.49a.75.75,0,0,0,.38-.65V600.4a.77.77,0,0,1,.37-.65l11.06-6.46,11.43-6.68h0l11.43,6.68,10.32,6a.75.75,0,0,1,0,1.3l-20.64,12.06a.76.76,0,0,0,0,1.3l21.75,12.71,21.74,12.71a.75.75,0,0,0,1.13-.65V614.64a.75.75,0,0,1,1.13-.65l21.36,12.49a.74.74,0,0,1,.37.65v25a.75.75,0,0,0,1.13.65L1165,640.7a.74.74,0,0,0,0-1.29l-21.38-12.5a.74.74,0,0,1-.37-.65V600l11.43-6.68,11.44-6.68h0V561.2a.75.75,0,0,1,1.12-.65l21.74,12.7,22.48-13.14a.74.74,0,0,1,.76,0l22.49,13.14V547.84a.75.75,0,0,1,1.13-.65l20.6,12a.75.75,0,0,0,1.13-.65v-24.1a.75.75,0,0,0-1.13-.65l-21.36,12.48a.77.77,0,0,1-.75,0l-22.49-13.14-21.75-12.72a.74.74,0,0,1,0-1.29l10.32-6,11.43-6.68v25.42a.75.75,0,0,0,1.13.65l21.74-12.7,22.86,13.36,22.86,13.36v26.72h0l-44.61,26.07a.75.75,0,0,0,0,1.3l21.37,12.49a.74.74,0,0,0,.76,0l21.36-12.48a.75.75,0,0,1,1.12.65v25.41M1005,386.85l-20.62,12.06a.74.74,0,0,0,0,1.29L1005,412.26a.75.75,0,0,0,1.13-.65V387.5a.75.75,0,0,0-1.13-.65m-44.6,133M1006.11,441v24.1a.75.75,0,0,0,1.13.65l20.62-12.05a.75.75,0,0,0,0-1.3l-20.62-12.05a.75.75,0,0,0-1.13.65M1029,585.3V561.2a.75.75,0,0,0-1.13-.65l-20.62,12.05a.75.75,0,0,0,0,1.3L1027.84,586a.75.75,0,0,0,1.13-.65M846.44,639.83l21.37-12.49a.75.75,0,0,0,0-1.3l-21.37-12.49a.79.79,0,0,0-.76,0L824.31,626a.75.75,0,0,0,0,1.3l21.37,12.49a.74.74,0,0,0,.76,0m136.81-53.22Zm136,26.06a.75.75,0,0,0,1.13-.65v-24.1a.75.75,0,0,1,1.13-.65l10.3,6,10.3,6a.75.75,0,0,0,1.13-.65v-24.1a.75.75,0,0,0-1.13-.65l-21.73,12.7h0L1109,593.29l-10.32,6a.75.75,0,0,0,0,1.3Zm1.13-54.09a.75.75,0,0,0,1.13.65l21.36-12.48a.77.77,0,0,0,.37-.65v-25a.75.75,0,0,0-1.13-.65l-21.73,12.71h0v25.41Zm-114.32,28V574.56a.75.75,0,0,0-1.13-.65L984.36,586a.75.75,0,0,0,0,1.3l10.32,6,10.3,6a.75.75,0,0,0,1.13-.65Zm205.77-52.13a.75.75,0,0,0-1.13-.65L1189,546.53h0l21.73,12.7a.75.75,0,0,0,1.13-.65V546.53h0Zm-45.72-133.62V425a.75.75,0,0,0,1.12.65l20.63-12.05a.76.76,0,0,0,0-1.3l-20.63-12.06a.75.75,0,0,0-1.12.65m92.56,106.23,10.32,6,10.31,6a.75.75,0,0,0,1.12-.65V494.39a.75.75,0,0,0-1.12-.65l-20.63,12.05a.76.76,0,0,0,0,1.3m-48-53.43-20.62,12a.75.75,0,0,0,0,1.3l20.62,12.05a.75.75,0,0,0,1.13-.65v-24.1a.75.75,0,0,0-1.13-.65m24,14v24.1a.75.75,0,0,0,1.13.65l20.62-12.05a.75.75,0,0,0,0-1.3L1235.88,467a.75.75,0,0,0-1.13.65m0-53.45v24.11a.75.75,0,0,0,1.13.65l20.62-12.05a.75.75,0,0,0,0-1.3l-20.62-12.05a.74.74,0,0,0-1.13.64m-434,226,21.36,12.49a.75.75,0,0,0,1.13-.65v-25a.74.74,0,0,0-.37-.65L801.46,614a.75.75,0,0,0-1.12.65v25a.74.74,0,0,0,.37.65M960.38,519.81m-69.72,39.42a.75.75,0,0,0,1.13-.65m45.73,28Zm22.86,38.78V601.28a.75.75,0,0,0-1.13-.65l-20.62,12a.75.75,0,0,0,0,1.3l20.62,12a.75.75,0,0,0,1.13-.64m-1.13-104.93-20.62,12.06a.75.75,0,0,0,0,1.3l20.62,12a.75.75,0,0,0,1.13-.65V521.11a.75.75,0,0,0-1.13-.65m-181.78,78.2a.75.75,0,0,0,1.13.65l10.3-6,11.44-6.68h0l-21.74-12.7a.75.75,0,0,0-1.13.65v24.1Zm68.21,14.45a.74.74,0,0,0,.76,0l21.37-12.49a.75.75,0,0,0,0-1.3l-10.32-6-11.43-6.68h0l-11.43,6.68-10.32,6a.75.75,0,0,0,0,1.3Zm-90,54.32,20.62,12.05a.75.75,0,0,0,1.13-.65v-24.1a.75.75,0,0,0-1.13-.65l-20.62,12a.75.75,0,0,0,0,1.3m-48-1.3-20.63-12a.74.74,0,0,0-1.12.65v24.1a.75.75,0,0,0,1.12.65l20.63-12.05a.76.76,0,0,0,0-1.3m0-26.72-20.63-12.06A.75.75,0,0,0,686,628v24.11a.75.75,0,0,0,1.12.65l20.63-12.06a.75.75,0,0,0,0-1.29m-44.44,80.71,22.31-13a.76.76,0,0,0,.38-.65v-25a.75.75,0,0,0-1.13-.65l-21.74,12.7-22.86,13.36h0v12.61a.74.74,0,0,0,.75.75H663a.75.75,0,0,0,.38-.1M753.48,614l-20.62,12a.75.75,0,0,0,0,1.3l20.62,12.06a.75.75,0,0,0,1.13-.65V614.64a.75.75,0,0,0-1.13-.65M640.29,678.83a.75.75,0,0,0,1.13.65L662.78,667a.77.77,0,0,0,.37-.65v-25a.75.75,0,0,0-1.13-.65l-21.73,12.71Zm92.57-79.51a.75.75,0,0,0,0,1.3l20.62,12a.75.75,0,0,0,1.13-.65V586.61h0l-11.43,6.68Zm43.48,53.44L755.72,640.7a.74.74,0,0,1,0-1.29l20.62-12.06a.75.75,0,0,1,1.13.65v24.11a.75.75,0,0,1-1.13.65"/><g class="cls-6"><rect class="cls-3" x="0.33" y="346.8" width="1280.37" height="373.75"/></g></g></g></g><g id="Layer_2" data-name="Layer 2"><path class="cls-7" d="M.75,0H0V.74A.74.74,0,0,1,.75,0Z"/><polygon class="cls-7" points="204.13 158.77 204.13 158.77 204.13 158.77 204.13 158.77"/><path class="cls-7" d="M385.58,160.06a.74.74,0,0,1,1.12-.64Z"/><polyline class="cls-2" points="579 25 0 25 0 348.59"/></g></svg>