<?xml version="1.0" encoding="utf-8"?>
<!-- Generator: Adobe Illustrator 25.0.0, SVG Export Plug-In . SVG Version: 6.00 Build 0)  -->
<svg version="1.1" id="Layer_1" xmlns="http://www.w3.org/2000/svg" xmlns:xlink="http://www.w3.org/1999/xlink" x="0px" y="0px"
	 viewBox="0 0 2560 1551" style="enable-background:new 0 0 2560 1551;" xml:space="preserve">
<style type="text/css">
	.st0{fill:#FFFFFF;}
	.st1{fill:none;}
	.st2{opacity:0.5;fill:#FFFFFF;enable-background:new    ;}
	.st3{opacity:0.75;fill:#FFFFFF;enable-background:new    ;}
	.st4{opacity:0.85;fill:#FFFFFF;enable-background:new    ;}
	.st5{opacity:0.5;fill:#009FE3;enable-background:new    ;}
	.st6{opacity:0.95;fill:#FFFFFF;enable-background:new    ;}
	.st7{opacity:0.4;fill:#FFFFFF;enable-background:new    ;}
	.st8{opacity:0.6;fill:#FFFFFF;enable-background:new    ;}
</style>
<g id="Layer_1_1_">
	<rect x="1.3" y="792.6" class="st0" width="2558.4" height="758.6"/>
	<path class="st0" d="M89.3,677.6l-42.8-25c-0.5-0.3-1-0.3-1.5,0l-42.7,25c-0.7,0.4-1.6,0.2-2.1-0.6c-0.1-0.2-0.2-0.5-0.2-0.8v56.1
		l89.3-52.2c0.7-0.4,1-1.3,0.6-2C89.7,677.9,89.5,677.7,89.3,677.6z"/>
	<polygon class="st1" points="686.2,312.3 686.2,312.3 686.2,312.3 	"/>
	<path class="st1" d="M777.6,259.7c0-0.5-0.3-1-0.8-1.3l-44.2-25.9c-0.5-0.3-1-0.3-1.5,0l-44.2,25.9c-0.5,0.3-0.7,0.8-0.7,1.3v50
		c0,0.8,0.7,1.5,1.5,1.5c0.3,0,0.5-0.1,0.7-0.2l20.6-12l22.9-13.4l22.9,13.4l20.6,12c0.7,0.4,1.6,0.2,2.1-0.6
		c0.1-0.2,0.2-0.5,0.2-0.7V259.7z"/>
	<path class="st1" d="M777.6,368.4l2.2-1.3c-0.7-0.4-1.6-0.2-2,0.5C777.7,367.9,777.6,368.1,777.6,368.4z"/>
	<path class="st1" d="M683.9,257.6l-41.3-24.1c-0.7-0.4-1.6-0.2-2,0.5c-0.1,0.2-0.2,0.5-0.2,0.8V283c0,0.8,0.6,1.5,1.5,1.5
		c0.3,0,0.5-0.1,0.8-0.2l41.3-24.1c0.7-0.4,1-1.3,0.6-2.1C684.4,257.9,684.2,257.7,683.9,257.6z"/>
	<path class="st1" d="M592.4,311l-20.7-12l-20.6-12c-0.7-0.4-1.6-0.2-2.1,0.6c-0.1,0.2-0.2,0.5-0.2,0.7v48.2c0,0.8,0.7,1.5,1.5,1.5
		c0.3,0,0.5-0.1,0.7-0.2l41.3-24.1c0.7-0.4,1-1.3,0.6-2C592.9,311.4,592.7,311.1,592.4,311z"/>
	<path class="st1" d="M800.5,299l-22.9,13.4l0,0v50.8c0,0.8,0.7,1.5,1.5,1.5c0.3,0,0.5-0.1,0.8-0.2l42.7-25c0.5-0.3,0.8-0.8,0.8-1.3
		v-52.6l0,0L800.5,299z"/>
	<path class="st1" d="M592.4,685.3l-41.3-24.1c-0.7-0.4-1.6-0.2-2.1,0.6c-0.1,0.2-0.2,0.5-0.2,0.7v48.2c0,0.8,0.7,1.5,1.5,1.5
		c0.3,0,0.5-0.1,0.7-0.2l41.3-24.1c0.7-0.4,1-1.3,0.5-2.1C592.8,685.6,592.7,685.4,592.4,685.3z"/>
	<path class="st1" d="M683.9,418l-41.3-24.1c-0.7-0.4-1.6-0.2-2,0.5c-0.1,0.2-0.2,0.5-0.2,0.8v48.2c0,0.8,0.6,1.5,1.5,1.5
		c0.3,0,0.5-0.1,0.8-0.2l41.3-24.1c0.7-0.4,1-1.4,0.5-2.1C684.3,418.3,684.1,418.1,683.9,418z"/>
	<path class="st1" d="M1049.9,150.6l-41.3-24.1c-0.7-0.4-1.6-0.2-2.1,0.6c-0.1,0.2-0.2,0.5-0.2,0.7v48.2c0,0.8,0.7,1.5,1.5,1.5
		c0.3,0,0.5-0.1,0.7-0.2l41.3-24.1c0.7-0.4,1-1.3,0.6-2C1050.3,151,1050.1,150.8,1049.9,150.6z"/>
	<path class="st1" d="M1054.3,257.5l41.3-24.1c0.7-0.4,1-1.4,0.5-2.1c-0.1-0.2-0.3-0.4-0.5-0.5l-41.3-24.1c-0.7-0.4-1.6-0.2-2,0.5
		c-0.1,0.2-0.2,0.5-0.2,0.8v48.2c0,0.8,0.6,1.5,1.5,1.5C1053.8,257.8,1054.1,257.7,1054.3,257.5z"/>
	<path class="st1" d="M1049.9,204.1l-41.3-24.1c-0.7-0.4-1.6-0.2-2.1,0.5c-0.1,0.2-0.2,0.5-0.2,0.8v48.2c0,0.8,0.7,1.5,1.5,1.5
		c0.3,0,0.5-0.1,0.8-0.2l41.3-24.1c0.7-0.4,1-1.3,0.6-2C1050.3,204.4,1050.1,204.2,1049.9,204.1z"/>
	<path class="st1" d="M1095.6,284.3l-41.3-24.1c-0.7-0.4-1.6-0.2-2,0.5c-0.1,0.2-0.2,0.5-0.2,0.8v50.8L1075,299l20.7-12.1
		c0.7-0.4,1-1.3,0.5-2.1C1096.1,284.6,1095.9,284.4,1095.6,284.3z"/>
	<path class="st1" d="M1004.1,286.9L983.5,299l-22.9,13.4l0,0l43.5,25.4c0.7,0.4,1.6,0.2,2.1-0.5c0.1-0.2,0.2-0.5,0.2-0.8v-48.2
		c0-0.8-0.7-1.5-1.5-1.5C1004.6,286.7,1004.3,286.8,1004.1,286.9z"/>
	<path class="st1" d="M912.6,284.3l-42.8-25c-0.5-0.3-1-0.3-1.5,0l-42.8,25c-0.7,0.4-1,1.4-0.5,2.1c0.1,0.2,0.3,0.4,0.5,0.5
		l20.7,12.1l22.9,13.4L892,299l20.7-12.1c0.7-0.4,1-1.3,0.6-2C913.1,284.6,912.9,284.4,912.6,284.3z"/>
	<path class="st1" d="M960.6,206.3c0-0.5-0.3-1-0.8-1.3l-42.7-25c-0.7-0.4-1.6-0.2-2,0.5c-0.1,0.2-0.2,0.5-0.2,0.8v50
		c0,0.5,0.3,1,0.7,1.3l42.7,25c0.7,0.4,1.6,0.2,2.1-0.5c0.1-0.2,0.2-0.5,0.2-0.8V206.3z"/>
	<path class="st1" d="M912.6,230.8l-42.8-25c-0.5-0.3-1-0.3-1.5,0l-42.8,25c-0.7,0.4-1,1.4-0.5,2.1c0.1,0.2,0.3,0.4,0.5,0.5l42.8,25
		c0.5,0.3,1,0.3,1.5,0l42.8-25c0.7-0.4,1-1.3,0.6-2C913.1,231.2,912.9,231,912.6,230.8z"/>
	<path class="st1" d="M180.8,944.9l-41.3-24.1c-0.7-0.4-1.6-0.2-2.1,0.5c-0.1,0.2-0.2,0.5-0.2,0.8v48.2c0,0.8,0.7,1.5,1.5,1.5
		c0.3,0,0.5-0.1,0.8-0.2l41.3-24.1c0.7-0.4,1-1.4,0.5-2.1C181.2,945.2,181,945,180.8,944.9z"/>
	<path class="st1" d="M139.5,760.4c-0.7-0.4-1.6-0.2-2.1,0.6c-0.1,0.2-0.2,0.5-0.2,0.7v24.1l0,0v24.1c0,0.8,0.7,1.5,1.5,1.5
		c0.3,0,0.5-0.1,0.8-0.2l43.5-25.4l0,0L139.5,760.4z"/>
	<path class="st1" d="M226.5,1027.7l-41.3,24.1c-0.7,0.4-1,1.3-0.6,2c0.1,0.2,0.3,0.4,0.6,0.6l41.3,24.1c0.7,0.4,1.6,0.2,2.1-0.6
		c0.1-0.2,0.2-0.5,0.2-0.7V1029c0-0.8-0.7-1.5-1.5-1.5C226.9,1027.5,226.7,1027.6,226.5,1027.7z"/>
	<path class="st1" d="M89.2,894.1L48,918.2c-0.7,0.4-1,1.3-0.6,2c0.1,0.2,0.3,0.4,0.6,0.6l41.3,24.1c0.7,0.4,1.6,0.2,2.1-0.5
		c0.1-0.2,0.2-0.5,0.2-0.8v-48.2c0-0.8-0.6-1.5-1.5-1.5C89.8,893.8,89.5,893.9,89.2,894.1z"/>
	<path class="st1" d="M272.2,784.5L231,760.4c-0.7-0.4-1.6-0.2-2.1,0.5c-0.1,0.2-0.2,0.5-0.2,0.8v48.2c0,0.8,0.7,1.5,1.5,1.5
		c0.3,0,0.5-0.1,0.8-0.2l41.3-24.1c0.7-0.4,0.9-1.4,0.5-2.1C272.6,784.8,272.5,784.6,272.2,784.5z"/>
	<path class="st1" d="M89.2,1001L48,1025.1c-0.7,0.4-1,1.3-0.6,2c0.1,0.2,0.3,0.4,0.6,0.6l41.3,24.1c0.7,0.4,1.6,0.2,2.1-0.6
		c0.1-0.2,0.2-0.5,0.2-0.7v-48.2c0-0.8-0.7-1.5-1.5-1.5C89.7,1000.8,89.5,1000.9,89.2,1001z"/>
	<path class="st1" d="M366,341.7v24.1l0,0v26.7l0,0l43.5,25.4c0.7,0.4,1.6,0.2,2.1-0.5c0.1-0.2,0.2-0.5,0.2-0.8v-50.8l0,0
		l-43.5-25.4c-0.7-0.4-1.6-0.2-2.1,0.5C366.1,341.2,366,341.4,366,341.7z"/>
	<path class="st1" d="M500.9,420.6l-41.3,24.1c-0.7,0.4-1,1.3-0.6,2c0.1,0.2,0.3,0.4,0.6,0.6l20.6,12.1l22.9,13.4v-50.8
		c0-0.8-0.7-1.5-1.5-1.5C501.4,420.4,501.1,420.5,500.9,420.6z"/>
	<path class="st1" d="M548.9,555.5c0-0.8-0.7-1.5-1.5-1.5c-0.3,0-0.5,0.1-0.8,0.2l-41.3,24.1c-0.7,0.4-1,1.4-0.5,2.1
		c0.1,0.2,0.3,0.4,0.5,0.5l41.3,24.1c0.7,0.4,1.6,0.2,2.1-0.5c0.1-0.2,0.2-0.5,0.2-0.8V555.5z"/>
	<path class="st1" d="M505.4,364.5l41.3-24.1c0.7-0.4,1-1.4,0.5-2.1c-0.1-0.2-0.3-0.4-0.5-0.5l-41.3-24.1c-0.7-0.4-1.6-0.2-2,0.5
		c-0.1,0.2-0.2,0.5-0.2,0.8v48.2c0,0.8,0.7,1.5,1.5,1.5C504.9,364.7,505.2,364.6,505.4,364.5z"/>
	<path class="st1" d="M320.2,812.5v-50.8c0-0.8-0.7-1.5-1.5-1.5c-0.3,0-0.5,0.1-0.8,0.2l-42.7,25c-0.5,0.3-0.8,0.8-0.8,1.3v50
		c0,0.8,0.7,1.5,1.5,1.5c0.3,0,0.5-0.1,0.7-0.2L320.2,812.5L320.2,812.5z"/>
	<path class="st1" d="M363.7,677.6l-41.3-24.1c-0.7-0.4-1.6-0.2-2.1,0.6c-0.1,0.2-0.2,0.5-0.2,0.7V703c0,0.8-0.7,1.5-1.5,1.5
		c-0.3,0-0.5-0.1-0.8-0.2l-20.6-12l-20.6-12c-0.7-0.4-1.6-0.2-2.1,0.5c-0.1,0.2-0.2,0.5-0.2,0.8v48.2c0,0.8,0.7,1.5,1.5,1.5
		c0.3,0,0.5-0.1,0.8-0.2l43.5-25.4l0,0l22.9-13.4l20.6-12.1c0.8,0,1.5-0.5,1.5-1.3C365.2,678.1,364.5,677.4,363.7,677.6z"/>
	<path class="st1" d="M363.7,944.9l-41.3-24.1c-0.7-0.4-1.6-0.2-2.1,0.5c-0.1,0.2-0.2,0.5-0.2,0.8v48.2c0,0.8,0.7,1.5,1.5,1.5
		c0.3,0,0.5-0.1,0.8-0.2l41.3-24.1c0.7-0.4,1-1.3,0.6-2C364.1,945.2,363.9,945,363.7,944.9z"/>
	<path class="st1" d="M409.4,420.6l-41.3,24.1c-0.7,0.4-1,1.4-0.5,2.1c0.1,0.2,0.3,0.4,0.5,0.5l20.6,12.1l20.6,12
		c0.7,0.4,1.6,0.2,2.1-0.6c0.1-0.2,0.2-0.5,0.2-0.7v-48.2c0-0.8-0.7-1.5-1.5-1.5C409.9,420.4,409.7,420.5,409.4,420.6z"/>
	<path class="st1" d="M2239.2,738.2l-41.3-24.1c-0.7-0.4-1.6-0.2-2,0.5c-0.1,0.2-0.2,0.5-0.2,0.8v48.2c0,0.8,0.7,1.5,1.5,1.5
		c0.3,0,0.5-0.1,0.8-0.2l41.3-24.1c0.7-0.4,1-1.3,0.6-2C2239.6,738.5,2239.4,738.3,2239.2,738.2z"/>
	<path class="st1" d="M2239.2,527l-41.3,24.1c-0.7,0.4-1,1.3-0.6,2c0.1,0.2,0.3,0.4,0.6,0.6l41.3,24.1c0.7,0.4,1.6,0.2,2.1-0.5
		c0.1-0.2,0.2-0.5,0.2-0.8v-48.2c0-0.8-0.7-1.5-1.5-1.5C2239.6,526.8,2239.4,526.9,2239.2,527z"/>
	<path class="st1" d="M2284.9,339.8l-42.7,25c-0.5,0.3-0.7,0.8-0.7,1.3v50c0,0.8,0.7,1.5,1.5,1.5c0.3,0,0.5-0.1,0.8-0.2l42.7-25
		c0.5-0.3,0.8-0.8,0.8-1.3v-50c0-0.8-0.7-1.5-1.5-1.5C2285.4,339.6,2285.1,339.7,2284.9,339.8z"/>
	<path class="st1" d="M2102,444.1l-41.3-24.1c-0.7-0.4-1.6-0.2-2.1,0.5c-0.1,0.2-0.2,0.5-0.2,0.8v48.2c0,0.8,0.7,1.5,1.5,1.5
		c0.3,0,0.5-0.1,0.8-0.2l20.6-12l20.7-12.1c0.7-0.4,1-1.4,0.5-2.1C2102.4,444.5,2102.2,444.3,2102,444.1z"/>
	<path class="st1" d="M2330.6,473.5l-41.3,24.1c-0.7,0.4-1,1.4-0.5,2.1c0.1,0.2,0.3,0.4,0.5,0.5l41.3,24.1c0.7,0.4,1.6,0.2,2.1-0.6
		c0.1-0.2,0.2-0.5,0.2-0.7v-48.2c0-0.8-0.7-1.5-1.5-1.5C2331.1,473.3,2330.9,473.4,2330.6,473.5z"/>
	<path class="st1" d="M2195.7,365.2L2195.7,365.2v-24.1c0-0.8-0.7-1.5-1.5-1.5c-0.3,0-0.5,0.1-0.8,0.2l-42.7,25
		c-0.5,0.3-0.8,0.8-0.8,1.3v50c0,0.8,0.7,1.5,1.5,1.5c0.3,0,0.5-0.1,0.8-0.2l43.5-25.4l0,0V365.2z"/>
	<path class="st1" d="M2193.4,444.1l-41.3-24.1c-0.7-0.4-1.6-0.2-2.1,0.6c-0.1,0.2-0.2,0.5-0.2,0.7v48.2c0,0.8,0.7,1.5,1.5,1.5
		c0.3,0,0.5-0.1,0.8-0.2l20.6-12l20.6-12.1c0.7-0.4,1-1.3,0.6-2.1C2193.9,444.5,2193.7,444.3,2193.4,444.1z"/>
	<path class="st1" d="M2422.1,527l-41.3,24.1c-0.7,0.4-1,1.3-0.6,2c0.1,0.2,0.3,0.4,0.6,0.6l41.3,24.1c0.7,0.4,1.6,0.2,2-0.5
		c0.1-0.2,0.2-0.5,0.2-0.8v-48.2c0-0.8-0.7-1.5-1.5-1.5C2422.6,526.8,2422.4,526.9,2422.1,527z"/>
	<path class="st1" d="M2376.4,390.7l-42.8-25c-0.5-0.3-1-0.3-1.5,0l-42.8,25c-0.7,0.4-1,1.4-0.5,2.1c0.1,0.2,0.3,0.4,0.5,0.5
		l42.8,25c0.5,0.3,1,0.3,1.5,0l42.8-25c0.7-0.4,1-1.4,0.5-2.1C2376.8,391,2376.6,390.8,2376.4,390.7z"/>
	<path class="st1" d="M2423.6,418.3l-42.7-25c-0.7-0.4-1.6-0.2-2.1,0.5c-0.1,0.2-0.2,0.5-0.2,0.8v50c0,0.5,0.3,1,0.8,1.3l22.1,12.9
		l20.6,12c0.7,0.4,1.6,0.2,2-0.5c0.1-0.2,0.2-0.5,0.2-0.8v-50C2424.4,419,2424.1,418.5,2423.6,418.3z"/>
	<path class="st1" d="M2513.7,631.3l-41.3-24.1c-0.7-0.4-1.6-0.2-2,0.5c-0.1,0.2-0.2,0.5-0.2,0.8v48.2c0,0.8,0.6,1.5,1.5,1.5
		c0.3,0,0.5-0.1,0.8-0.2l41.3-24.1c0.7-0.4,1-1.4,0.5-2.1C2514.1,631.6,2513.9,631.4,2513.7,631.3z"/>
	<path class="st1" d="M2058.4,314.4c0-0.8-0.7-1.5-1.5-1.5c-0.3,0-0.5,0.1-0.8,0.2l-41.3,24.1c-0.7,0.4-1,1.4-0.5,2.1
		c0.1,0.2,0.3,0.4,0.5,0.5l41.3,24.1c0.7,0.4,1.6,0.2,2.1-0.6c0.1-0.2,0.2-0.5,0.2-0.7V314.4z"/>
	<path class="st1" d="M2422.1,740.8l-41.3,24.1c-0.7,0.4-1,1.3-0.6,2c0.1,0.2,0.3,0.4,0.6,0.6l41.3,24.1c0.7,0.4,1.6,0.2,2-0.5
		c0.1-0.2,0.2-0.5,0.2-0.8v-48.2c0-0.8-0.7-1.5-1.5-1.5C2422.6,740.6,2422.4,740.7,2422.1,740.8z"/>
	<path class="st1" d="M1187.1,180l-41.3,24.1c-0.7,0.4-1,1.3-0.6,2c0.1,0.2,0.3,0.4,0.6,0.6l41.3,24.1c0.7,0.4,1.6,0.2,2.1-0.5
		c0.1-0.2,0.2-0.5,0.2-0.8v-48.2c0-0.8-0.7-1.5-1.5-1.5C1187.6,179.8,1187.3,179.9,1187.1,180z"/>
	<path class="st1" d="M1415.8,203.6l-42.8-25c-0.5-0.3-1-0.3-1.5,0l-42.8,25c-0.7,0.4-1,1.3-0.6,2c0.1,0.2,0.3,0.4,0.6,0.6l42.8,25
		c0.5,0.3,1,0.3,1.5,0l42.8-25c0.7-0.4,1-1.3,0.6-2C1416.2,203.9,1416,203.7,1415.8,203.6z"/>
	<path class="st1" d="M1325.8,151l-42.7-25c-0.7-0.4-1.6-0.2-2.1,0.6c-0.1,0.2-0.2,0.5-0.2,0.7v0.6c0-0.8-0.7-1.5-1.5-1.5
		c-0.3,0-0.5,0.1-0.8,0.2l-42.7,25c-0.5,0.3-0.7,0.8-0.7,1.3v50c0,0.8,0.7,1.5,1.5,1.5c0.3,0,0.5-0.1,0.7-0.2l43.5-25.4v52
		c0,0.5,0.3,1,0.8,1.3l42.7,25c0.7,0.4,1.6,0.2,2-0.5c0.1-0.2,0.2-0.5,0.2-0.8V152.2C1326.5,151.7,1326.3,151.3,1325.8,151z"/>
	<path class="st1" d="M1598.8,310.5c0.7,0.4,1.6,0.2,2.1-0.5c0.1-0.2,0.2-0.5,0.2-0.8v-50c0-0.5-0.3-1-0.8-1.3L1556,232
		c-0.5-0.3-1-0.3-1.5,0l-45,26.3l-43.5,25.5c-0.7,0.4-1,1.4-0.5,2.1c0.1,0.2,0.3,0.4,0.5,0.5l20.7,12.1l22.1,12.9
		c0.5,0.3,1,0.3,1.5,0l22.1-12.9l22.1-12.9c0.5-0.3,1-0.3,1.5,0l22.1,12.9L1598.8,310.5z"/>
	<path class="st1" d="M1415.8,259.6l-41.3,24.1c-0.7,0.4-1,1.4-0.5,2.1c0.1,0.2,0.3,0.4,0.5,0.5l20.7,12.1l20.6,12
		c0.7,0.4,1.6,0.2,2.1-0.6c0.1-0.2,0.2-0.5,0.2-0.7v-48.2c0-0.8-0.7-1.5-1.5-1.5C1416.3,259.4,1416,259.5,1415.8,259.6z"/>
	<path class="st1" d="M2056.2,577.8l-41.2-24.1c-0.7-0.4-1.6-0.2-2,0.5c-0.1,0.2-0.2,0.5-0.2,0.8v48.2c0,0.8,0.7,1.5,1.5,1.5
		c0.3,0,0.5-0.1,0.8-0.2l41.3-24.1c0.7-0.4,0.9-1.3,0.5-2.1C2056.6,578.1,2056.5,577.9,2056.2,577.8z"/>
	<path class="st1" d="M1187.1,126.5l-41.3,24.1c-0.7,0.4-1,1.3-0.6,2c0.1,0.2,0.3,0.4,0.6,0.6l41.3,24.1c0.7,0.4,1.6,0.2,2.1-0.6
		c0.1-0.2,0.2-0.5,0.2-0.7v-48.2c0-0.8-0.7-1.5-1.5-1.5C1187.5,126.3,1187.3,126.4,1187.1,126.5z"/>
	<path class="st1" d="M1232.9,259.4l-41.3,24.1c-0.7,0.4-1,1.4-0.5,2.1c0.1,0.2,0.3,0.4,0.5,0.5l41.3,24.1c0.7,0.4,1.6,0.2,2.1-0.5
		c0.1-0.2,0.2-0.5,0.2-0.8v-48.2c0-0.8-0.7-1.5-1.5-1.5C1233.4,259.2,1233.1,259.3,1232.9,259.4z"/>
	<path class="st1" d="M1919,393.3l-41.3,24.1c-0.7,0.4-1,1.4-0.5,2.1c0.1,0.2,0.3,0.4,0.5,0.5l41.3,24.1c0.7,0.4,1.6,0.2,2.1-0.6
		c0.1-0.2,0.2-0.5,0.2-0.7v-48.2c0-0.8-0.7-1.5-1.5-1.5C1919.5,393.1,1919.2,393.2,1919,393.3z"/>
	<path class="st1" d="M1827.5,232.9l-42.8,25.3c-0.5,0.3-0.7,0.8-0.7,1.3v49.7c0,0.8,0.7,1.5,1.5,1.5c0.3,0,0.5-0.1,0.8-0.2l20.6-12
		l22.1-13c0.5-0.3,0.8-0.8,0.8-1.3v-50c0-0.8-0.7-1.5-1.6-1.5C1827.9,232.7,1827.7,232.8,1827.5,232.9z"/>
	<path class="st1" d="M1783.2,365.7h1.5C1784.3,365.4,1783.7,365.4,1783.2,365.7z"/>
	<path class="st1" d="M2010.5,283.8l-43.5-25.4l-45-26.3c-0.5-0.3-1-0.3-1.5,0l-42.8,25c-0.7,0.4-1,1.4-0.5,2.1
		c0.1,0.2,0.3,0.4,0.5,0.5l43.5,25.4l22.9,13.4l22.1,12.9c0.5,0.3,1,0.3,1.5,0l22.1-12.9l20.7-12.1c0.7-0.4,0.9-1.4,0.5-2.1
		C2010.9,284.1,2010.7,283.9,2010.5,283.8z"/>
	<path class="st1" d="M1784,362.6v-50c0-0.5-0.3-1-0.7-1.3l-22.1-12.9l-20.6-12c-0.7-0.4-1.6-0.2-2.1,0.5c-0.1,0.2-0.2,0.5-0.2,0.8
		v50c0,0.5,0.3,1,0.8,1.3l42.7,25c0.7,0.4,1.6,0.2,2-0.5C1783.9,363.2,1784,362.9,1784,362.6z"/>
	<path class="st1" d="M1736,283.8l-42.8-25c-0.5-0.3-1-0.3-1.5,0l-42.8,25c-0.7,0.4-1,1.4-0.5,2.1c0.1,0.2,0.3,0.4,0.5,0.5
		l20.7,12.1l22.1,12.9c0.5,0.3,1,0.3,1.5,0l22.1-12.9l20.6-12.1c0.7-0.4,1-1.4,0.5-2.1C1736.4,284.1,1736.2,283.9,1736,283.8z"/>
	<path class="st1" d="M1644.5,337.2l-42.8-25c-0.5-0.3-1-0.3-1.5,0l-42.8,25c-0.7,0.4-1,1.4-0.5,2.1c0.1,0.2,0.3,0.4,0.5,0.5
		l42.8,25c0.5,0.3,1,0.3,1.5,0l42.8-25c0.7-0.4,1-1.4,0.5-2.1C1644.9,337.5,1644.8,337.3,1644.5,337.2z"/>
	<path class="st0" d="M2560,497.8c-0.2,0-0.4-0.1-0.6-0.2l-41.3-24.1c-0.7-0.4-1-1.4-0.5-2.1c0.1-0.2,0.3-0.4,0.5-0.5l20.7-12.1
		l20.6-12c0.2-0.1,0.4-0.2,0.6-0.2v-53.6l-41.9,24.5c-0.7,0.4-1.6,0.2-2.1-0.5c-0.1-0.2-0.2-0.5-0.2-0.8v-50c0-0.5,0.3-1,0.7-1.3
		l42.7-25c0.2-0.1,0.4-0.2,0.6-0.2v-55.7c-0.2,0-0.4-0.1-0.6-0.2l-41.2-24.1c-0.7-0.4-1.6-0.2-2.1,0.5c-0.1,0.2-0.2,0.5-0.2,0.8v50
		c0,0.5-0.3,1-0.8,1.3l-44.2,25.9c-0.5,0.3-0.7,0.8-0.7,1.3v50c0,0.8-0.7,1.5-1.5,1.5c-0.3,0-0.5-0.1-0.8-0.2l-43.5-25.4l-45-26.3
		c-0.5-0.3-0.7-0.8-0.8-1.3v-50c0-0.8,0.7-1.5,1.5-1.5c0.3,0,0.5,0.1,0.8,0.2l20.6,12l20.6,12c0.7,0.4,1.6,0.2,2-0.5
		c0.1-0.2,0.2-0.5,0.2-0.8v-50c0-0.5-0.3-1-0.7-1.3l-44.2-25.8c-0.5-0.3-1-0.3-1.5,0l-42.8,25c-0.7,0.4-1,1.4-0.5,2.1
		c0.1,0.2,0.3,0.4,0.5,0.5l41.3,24.1c0.7,0.4,1,1.4,0.5,2.1c-0.1,0.2-0.3,0.4-0.5,0.5l-20.6,12.1l-22.1,12.9
		c-0.5,0.3-0.8,0.8-0.8,1.3v50c0,0.8-0.7,1.5-1.5,1.5c-0.3,0-0.5-0.1-0.7-0.2l-43.5-25.4l-45-26.3c-0.5-0.3-0.7-0.8-0.7-1.3v-50
		c0-0.8-0.7-1.5-1.5-1.5c-0.3,0-0.5,0.1-0.7,0.2l-41.3,24.1c-0.7,0.4-1,1.3-0.6,2c0.1,0.2,0.3,0.4,0.6,0.6l20.6,12.1l22.1,12.9
		c0.5,0.3,0.7,0.8,0.8,1.3v50c0,0.8-0.7,1.5-1.5,1.5c-0.3,0-0.5-0.1-0.7-0.2l-43.5-25.4l-45.7-26.7l-22.9-13.4l-20.7-12.1
		c-0.7-0.4-1-1.4-0.5-2.1c0.1-0.2,0.3-0.4,0.5-0.5l43.5-25.4l43.5-25.4c0.7-0.4,1-1.4,0.5-2.1c-0.1-0.2-0.3-0.4-0.5-0.5l-41.3-24.1
		c-0.7-0.4-1.6-0.2-2.1,0.5c-0.1,0.2-0.2,0.5-0.2,0.8v48.2c0,0.8-0.7,1.5-1.5,1.5c-0.3,0-0.5-0.1-0.8-0.2l-43.5-25.4l-43.5-25.4
		c-0.7-0.4-1.6-0.2-2.1,0.5c-0.1,0.2-0.2,0.5-0.2,0.8v50c0,0.5,0.3,1,0.7,1.3l42.8,25c0.7,0.4,1,1.4,0.5,2.1
		c-0.1,0.2-0.3,0.4-0.5,0.5l-20.6,12.1l-22.1,12.9c-0.5,0.3-1,0.3-1.5,0l-22.1-12.9l-22.1-12.9c-0.5-0.3-0.7-0.8-0.7-1.3V180.7
		c0-0.8-0.7-1.5-1.5-1.5c-0.3,0-0.5,0.1-0.7,0.2l-43.4,25.4l-43.5,25.4c-0.7,0.4-1.6,0.2-2.1-0.5c-0.1-0.2-0.2-0.5-0.2-0.8v-48.2
		c0-0.8-0.7-1.5-1.5-1.5c-0.3,0-0.5,0.1-0.7,0.2l-43.5,25.4l-45.7,26.7l0,0V179c0-0.5-0.3-1-0.8-1.3l-44.2-25.9
		c-0.5-0.3-1-0.3-1.5,0l-42.8,25c-0.7,0.4-1,1.3-0.6,2c0.1,0.2,0.3,0.4,0.6,0.6l41.2,24.1c0.7,0.4,1,1.3,0.5,2.1
		c-0.1,0.2-0.3,0.4-0.5,0.5l-43.3,25.6l-0.1-0.1l-43.5-25.4c-0.7-0.4-1.6-0.2-2.1,0.5c-0.1,0.2-0.2,0.5-0.2,0.8v48.2
		c0,0.8-0.7,1.5-1.5,1.5c-0.3,0-0.5-0.1-0.8-0.2l-42.7-25c-0.5-0.3-1-0.3-1.5,0l-42.7,25c-0.7,0.4-1.6,0.2-2-0.5
		c-0.1-0.2-0.2-0.5-0.2-0.8v-50c0-0.5-0.3-1-0.8-1.3l-44.4-25.9c-0.5-0.3-1-0.3-1.5,0l-44.2,25.9c-0.5,0.3-0.7,0.8-0.8,1.3v50
		c0,0.8-0.7,1.5-1.5,1.5c-0.3,0-0.5-0.1-0.8-0.2l-42.7-25c-0.5-0.3-0.8-0.8-0.8-1.3V179c0-0.5-0.3-1-0.7-1.3l-45-26.3l-45-26.3
		c-0.5-0.3-1-0.3-1.5,0l-42.7,25c-0.7,0.4-1.6,0.2-2.1-0.6c-0.1-0.2-0.2-0.5-0.2-0.7v-50c0-0.5-0.3-1-0.7-1.3l-44.2-25.9
		c-0.5-0.3-0.7-0.8-0.8-1.3v1.4l0,0L1235,98.5l-43.5,25.4c-0.7,0.4-1.6,0.2-2-0.5c-0.1-0.2-0.2-0.5-0.2-0.8v-50c0-0.5,0.3-1,0.7-1.3
		l42-24.6h-0.3l1.1-1c1-1.1,1-2.8,0-3.8l-41.2-35.7c-1-0.9-2.3,0.2-2.3,1.9v38.7l0,0v24.1c0,0.5-0.3,1-0.8,1.3L1144.3,98
		c-0.5,0.3-1,0.3-1.5,0l-42.7-25c-0.7-0.4-1.6-0.2-2.1,0.6c-0.1,0.2-0.2,0.5-0.2,0.7v50c0,0.5,0.3,1,0.7,1.3l42.8,25
		c0.7,0.4,1,1.4,0.5,2.1c-0.1,0.2-0.3,0.4-0.5,0.5l-42.8,25c-0.5,0.3-1,0.3-1.5,0l-44.2-25.9c-0.5-0.3-0.7-0.8-0.7-1.3v-50
		c0-0.8-0.7-1.5-1.5-1.5c-0.3,0-0.5,0.1-0.7,0.2l-42.7,25c-0.5,0.3-1,0.3-1.5,0l-42.7-25c-0.7-0.4-1.6-0.2-2.1,0.6
		c-0.1,0.2-0.2,0.5-0.2,0.7v48.2c0,0.8-0.7,1.5-1.5,1.5c-0.3,0-0.5-0.1-0.7-0.2l-42.7-25c-0.5-0.3-0.7-0.8-0.7-1.3v-50
		c0-0.8-0.7-1.5-1.5-1.5c-0.3,0-0.5,0.1-0.7,0.2l-41.3,24.2c-0.7,0.4-1,1.3-0.6,2c0.1,0.2,0.3,0.4,0.6,0.6l42.8,25
		c0.5,0.3,0.7,0.8,0.8,1.3v51.7c0,0.5-0.3,1-0.8,1.3l-42.7,25c-0.7,0.4-1.6,0.2-2.1-0.6c-0.1-0.2-0.2-0.5-0.2-0.7v-50
		c0-0.5-0.3-1-0.7-1.3l-45-26.3l-43.5-25.4c-0.7-0.4-1.6-0.2-2,0.5c-0.1,0.2-0.2,0.5-0.2,0.8v48.2c0,0.8,0.7,1.5,1.5,1.5
		c0.3,0,0.5-0.1,0.8-0.2l41.2-24.1c0.7-0.4,1.6-0.2,2.1,0.6c0.1,0.2,0.2,0.5,0.2,0.7v103.4c0,0.5-0.3,1-0.8,1.3l-42.7,25
		c-0.7,0.4-1.6,0.2-2-0.5c-0.1-0.2-0.2-0.5-0.2-0.8v-50c0-0.5-0.3-1-0.8-1.3l-42.7-25c-0.7-0.4-1.6-0.2-2.1,0.5
		c-0.1,0.2-0.2,0.5-0.2,0.8v48.2c0,0.8-0.7,1.5-1.5,1.5c-0.3,0-0.5-0.1-0.8-0.2l-43.5-25.4l-45.7-26.7v50.8c0,0.8-0.7,1.5-1.5,1.5
		c-0.3,0-0.5-0.1-0.8-0.2l-43.5-25.4L551.2,180c-0.7-0.4-1.6-0.2-2.1,0.5c-0.1,0.2-0.2,0.5-0.2,0.8v48.2c0,0.8,0.7,1.5,1.5,1.5
		c0.3,0,0.5-0.1,0.8-0.2l41.2-24.1c0.7-0.4,1.6-0.2,2.1,0.5c0.1,0.2,0.2,0.5,0.2,0.8v50c0,0.5-0.3,1-0.7,1.3l-45,26.3l0,0L526,299
		l-20.6,12c-0.7,0.4-1.6,0.2-2-0.5c-0.1-0.2-0.2-0.5-0.2-0.8V208c0-0.8-0.7-1.5-1.5-1.5c-0.3,0-0.5,0.1-0.8,0.2l-42.7,25
		c-0.5,0.3-0.7,0.8-0.8,1.3v51.7c0,0.5-0.3,1-0.7,1.3l-22.1,13l-22.9,13.4L388.8,299l-20.6-12.1c-0.7-0.4-1-1.4-0.5-2.1
		c0.1-0.2,0.3-0.4,0.5-0.5l41.3-24.1c0.7-0.4,1-1.4,0.5-2.1c-0.1-0.2-0.3-0.4-0.5-0.5L366,232.1l-43.5-25.4
		c-0.7-0.4-1.6-0.2-2.1,0.5c-0.1,0.2-0.2,0.5-0.2,0.8v48.2c0,0.8-0.6,1.5-1.5,1.5c-0.3,0-0.5-0.1-0.8-0.2l-42.7-25
		c-0.5-0.3-0.8-0.8-0.8-1.3v-50c0-0.8-0.7-1.5-1.5-1.5c-0.3,0-0.5,0.1-0.8,0.2L231,204.1c-0.7,0.4-1,1.4-0.5,2.1
		c0.1,0.2,0.3,0.4,0.5,0.5l42.8,25c0.5,0.3,0.7,0.8,0.7,1.3v52.6L251.6,299l-22.9,13.4l0,0v50.8c0,0.8-0.7,1.5-1.5,1.5
		c-0.3,0-0.5-0.1-0.7-0.2L183,339.1l-45,26.3c-0.5,0.3-1,0.3-1.5,0l-45-26.3v50.8c0,0.8-0.7,1.5-1.5,1.5c-0.3,0-0.5-0.1-0.8-0.2
		L48,367.1c-0.7-0.4-1.6-0.2-2.1,0.5c-0.1,0.2-0.2,0.5-0.2,0.8v48.2c0,0.8,0.7,1.5,1.5,1.5c0.3,0,0.5-0.1,0.8-0.2l42.7-25
		c0.5-0.3,1-0.3,1.5,0l45,26.3l43.5,25.4c0.7,0.4,1,1.4,0.5,2.1c-0.1,0.2-0.3,0.4-0.5,0.5l-20.7,12.1l-22.9,13.4v-50.8
		c0-0.8-0.7-1.5-1.5-1.5c-0.3,0-0.5,0.1-0.7,0.2L91.5,446l-45.7-26.7L0,392.5v56.1c0-0.8,0.7-1.5,1.5-1.5c0.3,0,0.5,0.1,0.7,0.2
		l20.6,12l20.6,12.1c0.7,0.4,1,1.3,0.5,2.1c-0.1,0.2-0.3,0.4-0.5,0.5L2.3,498.1c-0.7,0.4-1.6,0.2-2.1-0.6c-0.1-0.2-0.2-0.5-0.2-0.7
		v298.8h2560V497.8z M91.5,657.2c0,0.8-0.7,1.5-1.5,1.5c-0.3,0-0.5-0.1-0.8-0.2L48,634.4c-0.7-0.4-1-1.3-0.6-2
		c0.1-0.2,0.3-0.4,0.6-0.6l41.2-24.1c0.7-0.4,1.6-0.2,2.1,0.6c0.1,0.2,0.2,0.5,0.2,0.7L91.5,657.2z M91.5,550.3
		c0,0.8-0.7,1.5-1.5,1.5c-0.3,0-0.5-0.1-0.7-0.2L48,527.5c-0.7-0.4-1-1.3-0.6-2c0.1-0.2,0.3-0.4,0.6-0.6l41.3-24.1
		c0.7-0.4,1.6-0.2,2.1,0.5c0.1,0.2,0.2,0.5,0.2,0.8L91.5,550.3z M180.8,554.2l-41.3,24.1c-0.7,0.4-1.6,0.2-2.1-0.5
		c-0.1-0.2-0.2-0.5-0.2-0.8v-48.2c0-0.8,0.7-1.5,1.5-1.5c0.3,0,0.5,0.1,0.8,0.2l41.3,24.1c0.7,0.4,1,1.4,0.5,2.1
		C181.2,553.9,181,554.1,180.8,554.2z M139.5,417.9c-0.7,0.4-1.6,0.2-2.1-0.5c-0.1-0.2-0.2-0.5-0.2-0.8v-24.1l0,0v-24.1
		c0-0.8,0.7-1.5,1.5-1.5c0.3,0,0.5,0.1,0.8,0.2l43.5,25.4l0,0L139.5,417.9z M228.7,683.9c0,0.8-0.7,1.5-1.5,1.5
		c-0.3,0-0.5-0.1-0.7-0.2l-41.3-24.1c-0.7-0.4-1-1.3-0.6-2c0.1-0.2,0.3-0.4,0.6-0.6l41.3-24.1c0.7-0.4,1.6-0.2,2.1,0.6
		c0.1,0.2,0.2,0.5,0.2,0.7L228.7,683.9z M272.2,393.8L231,417.9c-0.7,0.4-1.6,0.2-2.1-0.5c-0.1-0.2-0.2-0.5-0.2-0.8v-48.2
		c0-0.8,0.7-1.5,1.5-1.5c0.3,0,0.5,0.1,0.8,0.2l41.3,24.1c0.7,0.4,0.9,1.4,0.5,2.1C272.6,393.5,272.5,393.7,272.2,393.8L272.2,393.8
		z M274.5,443.4v-50c0-0.5,0.3-1,0.8-1.3l42.7-25c0.7-0.4,1.6-0.2,2,0.5c0.1,0.2,0.2,0.5,0.2,0.8v50.8l0,0l-43.5,25.4
		c-0.7,0.4-1.6,0.2-2.1-0.5C274.5,443.9,274.5,443.6,274.5,443.4L274.5,443.4z M363.7,554.2l-41.3,24.1c-0.7,0.4-1.6,0.2-2.1-0.5
		c-0.1-0.2-0.2-0.5-0.2-0.8v-48.2c0-0.8,0.7-1.5,1.5-1.5c0.3,0,0.5,0.1,0.8,0.2l41.3,24.1c0.7,0.4,1,1.3,0.6,2
		C364.1,553.9,363.9,554.1,363.7,554.2L363.7,554.2z M363.7,286.9L343.1,299l-22.9,13.3l0,0l-43.5,25.4c-0.7,0.4-1.6,0.2-2.1-0.6
		c-0.1-0.2-0.2-0.5-0.2-0.7v-48.2c0-0.8,0.7-1.5,1.5-1.5c0.3,0,0.5,0.1,0.7,0.2l20.6,12.1l20.7,12c0.7,0.4,1.6,0.2,2-0.5
		c0.1-0.2,0.2-0.5,0.2-0.8v-48.2c0-0.8,0.7-1.5,1.5-1.5c0.3,0,0.5,0.1,0.7,0.2l41.3,24.1c0.7,0.4,0.9,1.3,0.5,2.1
		C364.1,286.6,364,286.8,363.7,286.9L363.7,286.9z M411.7,446v24.1c0,0.8-0.7,1.5-1.5,1.5c-0.3,0-0.5-0.1-0.7-0.2l-20.6-12
		l-20.6-12.1c-0.7-0.4-1-1.4-0.5-2.1c0.1-0.2,0.3-0.4,0.5-0.5l41.3-24.1c0.7-0.4,1.6-0.2,2.1,0.6c0.1,0.2,0.2,0.5,0.2,0.7V446z
		 M411.7,365.8v50.8c0,0.8-0.7,1.5-1.5,1.5c-0.3,0-0.5-0.1-0.8-0.2L366,392.5l0,0v-26.7l0,0v-24.1c0-0.8,0.7-1.5,1.5-1.5
		c0.3,0,0.5,0.1,0.8,0.2L411.7,365.8L411.7,365.8z M503.2,446v26.7l-22.9-13.4l-20.6-12.1c-0.7-0.4-1-1.3-0.6-2
		c0.1-0.2,0.3-0.4,0.6-0.6l41.3-24.1c0.7-0.4,1.6-0.2,2.1,0.6c0.1,0.2,0.2,0.5,0.2,0.7V446z M503.2,363.2V315c0-0.8,0.7-1.5,1.5-1.5
		c0.3,0,0.5,0.1,0.8,0.2l41.3,24.1c0.7,0.4,1,1.4,0.5,2.1c-0.1,0.2-0.3,0.4-0.5,0.5l-41.3,24.1c-0.7,0.4-1.6,0.2-2-0.5
		C503.2,363.7,503.2,363.5,503.2,363.2L503.2,363.2z M546.7,605.1L505.4,581c-0.7-0.4-1-1.4-0.5-2.1c0.1-0.2,0.3-0.4,0.5-0.5
		l41.3-24.1c0.7-0.4,1.6-0.2,2.1,0.5c0.1,0.2,0.2,0.5,0.2,0.8v48.2c0,0.8-0.7,1.5-1.5,1.5C547.1,605.3,546.9,605.2,546.7,605.1
		L546.7,605.1z M592.4,687.9L551.2,712c-0.7,0.4-1.6,0.2-2.1-0.6c-0.1-0.2-0.2-0.5-0.2-0.7v-48.2c0-0.8,0.7-1.5,1.5-1.5
		c0.3,0,0.5,0.1,0.7,0.2l41.3,24.1c0.7,0.4,1,1.3,0.5,2.1C592.8,687.6,592.7,687.7,592.4,687.9L592.4,687.9z M592.4,313.6
		l-41.3,24.1c-0.7,0.4-1.6,0.2-2.1-0.6c-0.1-0.2-0.2-0.5-0.2-0.7v-48.2c0-0.8,0.7-1.5,1.5-1.5c0.3,0,0.5,0.1,0.7,0.2l20.6,12.1
		l20.7,12c0.7,0.4,1,1.3,0.6,2C592.9,313.3,592.7,313.5,592.4,313.6L592.4,313.6z M683.9,420.6l-41.3,24.1c-0.7,0.4-1.6,0.2-2-0.5
		c-0.1-0.2-0.2-0.5-0.2-0.8v-48.2c0-0.8,0.6-1.5,1.5-1.5c0.3,0,0.5,0.1,0.8,0.2l41.3,24.1c0.7,0.4,0.9,1.4,0.5,2.1
		C684.3,420.3,684.1,420.4,683.9,420.6L683.9,420.6z M683.9,260.2l-41.3,24.1c-0.7,0.4-1.6,0.2-2-0.5c-0.1-0.2-0.2-0.5-0.2-0.8
		v-48.2c0-0.8,0.7-1.5,1.5-1.5c0.3,0,0.5,0.1,0.8,0.2l41.3,24.1c0.7,0.4,0.9,1.4,0.5,2.1C684.3,259.9,684.1,260,683.9,260.2
		L683.9,260.2z M686.1,312.3L686.1,312.3z M775.4,311l-20.6-12l-22.9-13.4L709,299l-20.6,12c-0.7,0.4-1.6,0.2-2.1-0.6
		c-0.1-0.2-0.2-0.5-0.2-0.7v-50c0-0.5,0.3-1,0.7-1.3l44.2-25.9c0.5-0.3,1-0.3,1.5,0l44.2,25.9c0.5,0.3,0.7,0.8,0.8,1.3v50
		c0,0.8-0.7,1.5-1.5,1.5C775.8,311.2,775.6,311.1,775.4,311z M777.6,368.4c0-0.8,0.6-1.5,1.5-1.5c0.3,0,0.5,0.1,0.8,0.2L777.6,368.4
		z M823.4,312.3v25.9c0,0.5-0.3,1-0.8,1.3l-42.7,25c-0.7,0.4-1.6,0.2-2-0.5c-0.1-0.2-0.2-0.5-0.2-0.8v-50.9l0,0l22.9-13.3l22.9-13.4
		l0,0V312.3z M912.6,286.9L892,299l-22.9,13.4L846.2,299l-20.7-12.1c-0.7-0.4-1-1.4-0.5-2.1c0.1-0.2,0.3-0.4,0.5-0.5l42.8-25
		c0.5-0.3,1-0.3,1.5,0l42.8,25c0.7,0.4,1,1.3,0.6,2C913.1,286.6,912.9,286.8,912.6,286.9L912.6,286.9z M912.6,233.4l-42.8,25
		c-0.5,0.3-1,0.3-1.5,0l-42.8-25c-0.7-0.4-1-1.4-0.5-2.1c0.1-0.2,0.3-0.4,0.5-0.5l42.8-25c0.5-0.3,1-0.3,1.5,0l42.8,25
		c0.7,0.4,1,1.3,0.6,2C913.1,233.1,912.9,233.3,912.6,233.4L912.6,233.4z M958.4,257.5l-42.7-25c-0.5-0.3-0.7-0.8-0.7-1.3v-50
		c0-0.8,0.6-1.5,1.5-1.5c0.3,0,0.5,0.1,0.8,0.2l42.7,25c0.5,0.3,0.8,0.8,0.8,1.3v50c0,0.8-0.6,1.5-1.5,1.5
		C958.9,257.8,958.6,257.7,958.4,257.5L958.4,257.5z M1006.4,312.3v24.1c0,0.8-0.7,1.5-1.5,1.5c-0.3,0-0.5-0.1-0.8-0.2l-43.5-25.4
		l0,0l22.9-13.3l20.6-12c0.7-0.4,1.6-0.2,2.1,0.5c0.1,0.2,0.2,0.5,0.2,0.8L1006.4,312.3z M1049.9,206.7l-41.3,24.1
		c-0.7,0.4-1.6,0.2-2.1-0.5c-0.1-0.2-0.2-0.5-0.2-0.8v-48.2c0-0.8,0.7-1.5,1.5-1.5c0.3,0,0.5,0.1,0.8,0.2l41.3,24.1
		c0.7,0.4,1,1.3,0.6,2C1050.3,206.4,1050.1,206.6,1049.9,206.7L1049.9,206.7z M1049.9,153.2l-41.3,24.1c-0.7,0.4-1.6,0.2-2.1-0.6
		c-0.1-0.2-0.2-0.5-0.2-0.7v-48.2c0-0.8,0.7-1.5,1.5-1.5c0.3,0,0.5,0.1,0.7,0.2l41.3,24.1c0.7,0.4,1,1.3,0.6,2
		C1050.3,152.9,1050.1,153.1,1049.9,153.2L1049.9,153.2z M1052.1,208c0-0.8,0.6-1.5,1.5-1.5c0.3,0,0.5,0.1,0.8,0.2l41.3,24.1
		c0.7,0.4,1,1.4,0.5,2.1c-0.1,0.2-0.3,0.4-0.5,0.5l-41.3,24.1c-0.7,0.4-1.6,0.2-2-0.5c-0.1-0.2-0.2-0.5-0.2-0.8V208z M1095.6,286.9
		L1075,299l-22.9,13.4v-50.9c0-0.8,0.7-1.5,1.5-1.5c0.3,0,0.5,0.1,0.8,0.2l41.3,24.1c0.7,0.4,0.9,1.4,0.5,2.1
		C1096,286.6,1095.8,286.8,1095.6,286.9L1095.6,286.9z M1189.3,229.5c0,0.8-0.7,1.5-1.5,1.5c-0.3,0-0.5-0.1-0.8-0.2l-41.3-24.1
		c-0.7-0.4-1-1.3-0.6-2c0.1-0.2,0.3-0.4,0.6-0.6l41.3-24.1c0.7-0.4,1.6-0.2,2.1,0.5c0.1,0.2,0.2,0.5,0.2,0.8V229.5z M1189.3,176
		c0,0.8-0.7,1.5-1.5,1.5c-0.3,0-0.5-0.1-0.7-0.2l-41.3-24.1c-0.7-0.4-1-1.3-0.6-2c0.1-0.2,0.3-0.4,0.6-0.6l41.3-24.1
		c0.7-0.4,1.6-0.2,2.1,0.6c0.1,0.2,0.2,0.5,0.2,0.7V176z M1235.2,309c0,0.8-0.7,1.5-1.5,1.5c-0.3,0-0.5-0.1-0.8-0.2l-41.3-24.1
		c-0.7-0.4-1-1.4-0.5-2.1c0.1-0.2,0.3-0.4,0.5-0.5l41.3-24.1c0.7-0.4,1.6-0.2,2.1,0.5c0.1,0.2,0.2,0.5,0.2,0.8V309z M1326.6,255.8
		c0,0.8-0.7,1.5-1.5,1.5c-0.3,0-0.5-0.1-0.8-0.2l-42.7-25c-0.5-0.3-0.7-0.8-0.8-1.3v-52l-43.5,25.4c-0.7,0.4-1.6,0.2-2.1-0.6
		c-0.1-0.2-0.2-0.5-0.2-0.7v-50c0-0.5,0.3-1,0.7-1.3l42.7-25c0.7-0.4,1.6-0.2,2.1,0.5c0.1,0.2,0.2,0.5,0.2,0.8v-0.6
		c0-0.8,0.7-1.5,1.5-1.5c0.3,0,0.5,0.1,0.7,0.2l42.7,25c0.5,0.3,0.7,0.8,0.7,1.3V255.8z M1371.6,231.2l-42.8-25
		c-0.7-0.4-1-1.3-0.6-2c0.1-0.2,0.3-0.4,0.6-0.6l42.8-25c0.5-0.3,1-0.3,1.5,0l42.8,25c0.7,0.4,1,1.3,0.6,2c-0.1,0.2-0.3,0.4-0.6,0.6
		l-42.8,25C1372.6,231.5,1372,231.4,1371.6,231.2L1371.6,231.2z M1418.1,309.2c0,0.8-0.7,1.5-1.5,1.5c-0.3,0-0.5-0.1-0.7-0.2
		l-20.6-12l-20.7-12.1c-0.7-0.4-1-1.4-0.5-2.1c0.1-0.2,0.3-0.4,0.5-0.5l41.3-24.1c0.7-0.4,1.6-0.2,2.1,0.6c0.1,0.2,0.2,0.5,0.2,0.7
		V309.2z M1554.5,285.5l-22.1,12.9l-22.1,12.9c-0.5,0.3-1,0.3-1.5,0l-22.1-12.9l-20.7-12.1c-0.7-0.4-1-1.4-0.5-2.1
		c0.1-0.2,0.3-0.4,0.5-0.5l43.5-25.4l45-26.3c0.5-0.3,1-0.3,1.5,0l44.2,25.9c0.5,0.3,0.7,0.8,0.8,1.3v50c0,0.8-0.7,1.5-1.5,1.5
		c-0.3,0-0.5-0.1-0.8-0.2l-20.6-12l-22.1-13C1555.5,285.2,1555,285.2,1554.5,285.5L1554.5,285.5z M1644.5,339.9l-42.8,25
		c-0.5,0.3-1,0.3-1.5,0l-42.8-25c-0.7-0.4-1-1.4-0.5-2.1c0.1-0.2,0.3-0.4,0.5-0.5l42.8-25c0.5-0.3,1-0.3,1.5,0l42.8,25
		c0.7,0.4,0.9,1.4,0.5,2.1C1644.9,339.5,1644.7,339.7,1644.5,339.9L1644.5,339.9z M1736,286.4l-20.6,12.1l-22.1,12.9
		c-0.5,0.3-1,0.3-1.5,0l-22.1-12.9l-20.6-12.1c-0.7-0.4-1-1.4-0.5-2.1c0.1-0.2,0.3-0.4,0.5-0.5l42.8-25c0.5-0.3,1-0.3,1.5,0l42.8,25
		c0.7,0.4,0.9,1.4,0.5,2.1C1736.4,286,1736.2,286.2,1736,286.4z M1781.7,363.9L1739,339c-0.5-0.3-0.7-0.8-0.8-1.3v-50
		c0-0.8,0.7-1.5,1.5-1.5c0.3,0,0.5,0.1,0.8,0.2l20.6,12l22.1,12.9c0.5,0.3,0.7,0.8,0.7,1.3v50c0,0.8-0.7,1.5-1.5,1.5
		C1782.2,364.1,1781.9,364.1,1781.7,363.9L1781.7,363.9z M1783.2,365.7c0.5-0.3,1-0.3,1.5,0H1783.2z M1829.7,284.2
		c0,0.5-0.3,1-0.8,1.3l-22.1,12.9l-20.6,12c-0.7,0.4-1.6,0.2-2.1-0.5c-0.1-0.2-0.2-0.5-0.2-0.8v-49.6c0-0.5,0.3-1,0.7-1.3l42.8-25.3
		c0.7-0.4,1.6-0.2,2.1,0.5c0.1,0.2,0.2,0.5,0.2,0.7V284.2z M1921.2,442.8c0,0.8-0.7,1.5-1.5,1.5c-0.3,0-0.5-0.1-0.7-0.2l-41.2-24.1
		c-0.7-0.4-1-1.4-0.5-2.1c0.1-0.2,0.3-0.4,0.5-0.5l41.3-24.1c0.7-0.4,1.6-0.2,2.1,0.5c0.1,0.2,0.2,0.5,0.2,0.8L1921.2,442.8z
		 M2010.5,286.4l-20.7,12.1l-22.1,12.9c-0.5,0.3-1,0.3-1.5,0l-22.1-12.9l-22.9-13.4l-43.5-25.4c-0.7-0.4-1-1.4-0.5-2.1
		c0.1-0.2,0.3-0.4,0.5-0.5l42.8-25c0.5-0.3,1-0.3,1.5,0l45,26.3l43.5,25.4c0.7,0.4,1,1.3,0.6,2
		C2010.9,286,2010.7,286.2,2010.5,286.4L2010.5,286.4z M2056.2,580.3l-41.2,24.2c-0.7,0.4-1.6,0.2-2-0.5c-0.1-0.2-0.2-0.5-0.2-0.8
		V555c0-0.8,0.6-1.5,1.5-1.5c0.3,0,0.5,0.1,0.8,0.2l41.3,24.1c0.7,0.4,0.9,1.4,0.5,2.1C2056.6,580.1,2056.4,580.3,2056.2,580.3
		L2056.2,580.3z M2056.2,363.9l-41.3-24.1c-0.7-0.4-1-1.4-0.5-2.1c0.1-0.2,0.3-0.4,0.5-0.5l41.3-24.1c0.7-0.4,1.6-0.2,2.1,0.5
		c0.1,0.2,0.2,0.5,0.2,0.8v48.2c0,0.8-0.6,1.5-1.5,1.5C2056.7,364.1,2056.4,364.1,2056.2,363.9L2056.2,363.9z M2102,446.7
		l-20.6,12.1l-20.6,12c-0.7,0.4-1.6,0.2-2.1-0.5c-0.1-0.2-0.2-0.5-0.2-0.8v-48.2c0-0.8,0.7-1.5,1.5-1.5c0.3,0,0.5,0.1,0.8,0.2
		l41.3,24.1c0.7,0.4,1,1.4,0.5,2.1C2102.4,446.4,2102.2,446.6,2102,446.7z M2193.5,446.7l-20.6,12.1l-20.6,12
		c-0.7,0.4-1.6,0.2-2.1-0.5c-0.1-0.2-0.2-0.5-0.2-0.8v-48.2c0-0.8,0.7-1.5,1.5-1.5c0.3,0,0.5,0.1,0.7,0.2l41.3,24.1
		c0.7,0.4,0.9,1.4,0.5,2.1C2193.9,446.4,2193.7,446.6,2193.5,446.7L2193.5,446.7z M2195.7,392l-43.5,25.4c-0.7,0.4-1.6,0.2-2.1-0.5
		c-0.1-0.2-0.2-0.5-0.2-0.8v-50c0-0.5,0.3-1,0.8-1.3l42.7-25c0.7-0.4,1.6-0.2,2,0.5c0.1,0.2,0.2,0.5,0.2,0.8v24.1l0,0V392
		L2195.7,392L2195.7,392z M2239.2,740.8l-41.3,24.1c-0.7,0.4-1.6,0.2-2-0.5c-0.1-0.2-0.2-0.5-0.2-0.8v-48.2c0-0.8,0.6-1.5,1.5-1.5
		c0.3,0,0.5,0.1,0.8,0.2l41.3,24.1c0.7,0.4,0.9,1.3,0.5,2.1C2239.6,740.5,2239.4,740.7,2239.2,740.8L2239.2,740.8z M2241.5,576.5
		c0,0.8-0.7,1.5-1.5,1.5c-0.3,0-0.5-0.1-0.8-0.2l-41.3-24.1c-0.7-0.4-1-1.3-0.6-2c0.1-0.2,0.3-0.4,0.6-0.6l41.2-24.1
		c0.7-0.4,1.6-0.2,2.1,0.5c0.1,0.2,0.2,0.5,0.2,0.8L2241.5,576.5z M2287.2,391.1c0,0.5-0.3,1-0.8,1.3l-42.7,25
		c-0.7,0.4-1.6,0.2-2.1-0.5c-0.1-0.2-0.2-0.5-0.2-0.8v-50c0-0.5,0.3-1,0.7-1.3l42.7-25c0.7-0.4,1.6-0.2,2.1,0.6
		c0.1,0.2,0.2,0.5,0.2,0.7V391.1z M2332.9,523c0,0.8-0.7,1.5-1.5,1.5c-0.3,0-0.5-0.1-0.7-0.2l-41.3-24.1c-0.7-0.4-1-1.4-0.5-2.1
		c0.1-0.2,0.3-0.4,0.5-0.5l41.3-24.1c0.7-0.4,1.6-0.2,2.1,0.5c0.1,0.2,0.2,0.5,0.2,0.8V523z M2376.4,393.3l-42.8,25
		c-0.5,0.3-1,0.3-1.5,0l-42.8-25c-0.7-0.4-1-1.4-0.5-2.1c0.1-0.2,0.3-0.4,0.5-0.5l42.8-25c0.5-0.3,1-0.3,1.5,0l42.8,25
		c0.7,0.4,1,1.3,0.6,2.1C2376.9,393,2376.7,393.1,2376.4,393.3L2376.4,393.3z M2424.4,790.3c0,0.8-0.7,1.5-1.5,1.5
		c-0.3,0-0.5-0.1-0.8-0.2l-41.3-24.1c-0.7-0.4-1-1.3-0.6-2c0.1-0.2,0.3-0.4,0.6-0.6l41.3-24.1c0.7-0.4,1.6-0.2,2,0.5
		c0.1,0.2,0.2,0.5,0.2,0.8V790.3z M2424.4,576.5c0,0.8-0.6,1.5-1.5,1.5c-0.3,0-0.5-0.1-0.8-0.2l-41.3-24.1c-0.7-0.4-1-1.3-0.6-2
		c0.1-0.2,0.3-0.4,0.6-0.6l41.2-24.1c0.7-0.4,1.6-0.2,2,0.5c0.1,0.2,0.2,0.5,0.2,0.8L2424.4,576.5z M2424.4,469.5
		c0,0.8-0.6,1.5-1.5,1.5c-0.3,0-0.5-0.1-0.8-0.2l-20.6-12l-22.1-12.9c-0.5-0.3-0.7-0.8-0.8-1.3v-50c0-0.8,0.7-1.5,1.5-1.5
		c0.3,0,0.5,0.1,0.8,0.2l42.7,25c0.5,0.3,0.7,0.8,0.7,1.3V469.5z M2513.7,633.8l-41.3,24.2c-0.7,0.4-1.6,0.2-2-0.5
		c-0.1-0.2-0.2-0.5-0.2-0.8v-48.3c0-0.8,0.7-1.5,1.5-1.5c0.3,0,0.5,0.1,0.8,0.2l41.3,24.1c0.7,0.4,1,1.4,0.5,2.1
		C2514.1,633.5,2513.9,633.7,2513.7,633.8L2513.7,633.8z"/>
</g>
<g id="Layer_2_1_">
	<rect x="-20" y="-273" class="st1" width="2580.6" height="1064.8"/>
	<path class="st2" d="M0,732.4l89.3-52.2c0.7-0.4,1-1.3,0.6-2c-0.1-0.2-0.3-0.4-0.6-0.6l-42.8-25c-0.5-0.3-1-0.3-1.5,0l-42.7,25"/>
	<path class="st3" d="M2.3,840.6l20.6,12l20.6,12.1c0.7,0.4,1,1.4,0.5,2.1c-0.1,0.2-0.3,0.4-0.5,0.5L2.3,891.4"/>
	<path class="st2" d="M91.5,1050.5c0,0.8-0.7,1.5-1.5,1.5c-0.3,0-0.5-0.1-0.7-0.2L48,1027.7c-0.7-0.4-1-1.3-0.6-2
		c0.1-0.2,0.3-0.4,0.6-0.6l41.2-24.1c0.7-0.4,1.6-0.2,2.1,0.6c0.1,0.2,0.2,0.5,0.2,0.7L91.5,1050.5z"/>
	<path class="st3" d="M91.5,943.6c0,0.8-0.7,1.5-1.5,1.5c-0.3,0-0.5-0.1-0.8-0.2L48,920.8c-0.7-0.4-1-1.3-0.6-2
		c0.1-0.2,0.3-0.4,0.6-0.6l41.3-24.1c0.7-0.4,1.6-0.2,2.1,0.5c0.1,0.2,0.2,0.5,0.2,0.8L91.5,943.6z"/>
	<path class="st3" d="M180.8,947.5l-41.3,24.1c-0.7,0.4-1.6,0.2-2.1-0.5c-0.1-0.2-0.2-0.5-0.2-0.8v-48.2c0-0.8,0.7-1.5,1.5-1.5
		c0.3,0,0.5,0.1,0.8,0.2l41.3,24.1c0.7,0.4,1,1.4,0.5,2.1C181.2,947.2,181,947.4,180.8,947.5z"/>
	<path class="st4" d="M139.5,811.2c-0.7,0.4-1.6,0.2-2.1-0.5c-0.1-0.2-0.2-0.5-0.2-0.8v-24.1l0,0v-24.1c0-0.8,0.7-1.5,1.5-1.5
		c0.3,0,0.5,0.1,0.7,0.2l43.5,25.4l0,0L139.5,811.2z"/>
	<path class="st2" d="M228.7,1077.2c0,0.8-0.7,1.5-1.5,1.5c-0.3,0-0.5-0.1-0.7-0.2l-41.3-24.1c-0.7-0.4-1-1.3-0.6-2
		c0.1-0.2,0.3-0.4,0.6-0.6l41.3-24.1c0.7-0.4,1.6-0.2,2.1,0.5c0.1,0.2,0.2,0.5,0.2,0.8V1077.2z"/>
	<path class="st4" d="M272.2,787.1L231,811.2c-0.7,0.4-1.6,0.2-2.1-0.5c-0.1-0.2-0.2-0.5-0.2-0.8v-48.2c0-0.8,0.7-1.5,1.5-1.5
		c0.3,0,0.5,0.1,0.8,0.2l41.3,24.1c0.7,0.4,0.9,1.4,0.5,2.1C272.6,786.8,272.5,787,272.2,787.1z"/>
	<path class="st3" d="M274.5,836.7v-50c0-0.5,0.3-1,0.8-1.3l42.7-25c0.7-0.4,1.6-0.2,2,0.5c0.1,0.2,0.2,0.5,0.2,0.8v50.8l0,0
		L276.7,838c-0.7,0.4-1.6,0.2-2.1-0.6C274.5,837.2,274.5,836.9,274.5,836.7z"/>
	<path class="st3" d="M363.7,947.5l-41.3,24.1c-0.7,0.4-1.6,0.2-2.1-0.5c-0.1-0.2-0.2-0.5-0.2-0.8v-48.2c0-0.8,0.7-1.5,1.5-1.5
		c0.3,0,0.5,0.1,0.8,0.2l41.3,24.1c0.7,0.4,1,1.3,0.6,2C364.1,947.2,363.9,947.4,363.7,947.5z"/>
	<path class="st4" d="M363.7,680.2l-20.6,12.1l-22.9,13.4l0,0L276.7,731c-0.7,0.4-1.6,0.2-2.1-0.5c-0.1-0.2-0.2-0.5-0.2-0.8v-48.2
		c0-0.8,0.7-1.5,1.5-1.5c0.3,0,0.5,0.1,0.8,0.2l20.6,12l20.6,12c0.7,0.4,1.6,0.2,2-0.5c0.1-0.2,0.2-0.5,0.2-0.8v-48.1
		c0-0.8,0.7-1.5,1.5-1.5c0.3,0,0.5,0.1,0.7,0.2l41.3,24.1c0.6,0.6,0.4,1.7-0.1,2.3C363.6,679.9,363.6,680,363.7,680.2z"/>
	<path class="st3" d="M411.7,446v24.1c0,0.8-0.7,1.5-1.5,1.5c-0.3,0-0.5-0.1-0.7-0.2l-20.6-12l-20.6-12.1c-0.7-0.4-1-1.4-0.5-2.1
		c0.1-0.2,0.3-0.4,0.5-0.5l41.3-24.1c0.7-0.4,1.6-0.2,2.1,0.6c0.1,0.2,0.2,0.5,0.2,0.7L411.7,446z"/>
	<path class="st3" d="M411.7,365.8v50.8c0,0.8-0.7,1.5-1.5,1.5c-0.3,0-0.5-0.1-0.8-0.2L366,392.5l0,0v-26.7l0,0v-24.1
		c0-0.8,0.7-1.5,1.5-1.5c0.3,0,0.5,0.1,0.8,0.2L411.7,365.8L411.7,365.8z"/>
	<path class="st3" d="M503.2,446v26.7l-22.9-13.4l-20.6-12.1c-0.7-0.4-1-1.3-0.6-2c0.1-0.2,0.3-0.4,0.6-0.6l41.3-24.1
		c0.7-0.4,1.6-0.2,2.1,0.6c0.1,0.2,0.2,0.5,0.2,0.7V446z"/>
	<path class="st4" d="M503.2,363.2V315c0-0.8,0.7-1.5,1.5-1.5c0.3,0,0.5,0.1,0.8,0.2l41.3,24.1c0.7,0.4,1,1.4,0.5,2.1
		c-0.1,0.2-0.3,0.4-0.5,0.5l-41.3,24.1c-0.7,0.4-1.6,0.2-2-0.5C503.2,363.7,503.2,363.5,503.2,363.2z"/>
	<path class="st3" d="M546.7,605.1L505.4,581c-0.7-0.4-1-1.4-0.5-2.1c0.1-0.2,0.3-0.4,0.5-0.5l41.3-24.1c0.7-0.4,1.6-0.2,2.1,0.5
		c0.1,0.2,0.2,0.5,0.2,0.8v48.2c0,0.8-0.7,1.5-1.5,1.5C547.1,605.3,546.9,605.2,546.7,605.1z"/>
	<path class="st2" d="M592.4,687.9L551.2,712c-0.7,0.4-1.6,0.2-2.1-0.6c-0.1-0.2-0.2-0.5-0.2-0.7v-48.2c0-0.8,0.7-1.5,1.5-1.5
		c0.3,0,0.5,0.1,0.7,0.2l41.3,24.1c0.7,0.4,1,1.3,0.5,2.1C592.8,687.6,592.7,687.7,592.4,687.9z"/>
	<path class="st4" d="M592.4,313.6l-41.3,24.1c-0.7,0.4-1.6,0.2-2.1-0.6c-0.1-0.2-0.2-0.5-0.2-0.7v-48.2c0-0.8,0.7-1.5,1.5-1.5
		c0.3,0,0.5,0.1,0.7,0.2l20.6,12.1l20.7,12c0.7,0.4,1,1.3,0.6,2C592.9,313.3,592.7,313.5,592.4,313.6z"/>
	<path class="st3" d="M683.9,420.6l-41.3,24.1c-0.7,0.4-1.6,0.2-2-0.5c-0.1-0.2-0.2-0.5-0.2-0.8v-48.2c0-0.8,0.6-1.5,1.5-1.5
		c0.3,0,0.5,0.1,0.8,0.2l41.3,24.1c0.7,0.4,0.9,1.4,0.5,2.1C684.3,420.3,684.1,420.4,683.9,420.6z"/>
	<path class="st4" d="M683.9,260.2l-41.3,24.1c-0.7,0.4-1.6,0.2-2-0.5c-0.1-0.2-0.2-0.5-0.2-0.8v-48.2c0-0.8,0.7-1.5,1.5-1.5
		c0.3,0,0.5,0.1,0.8,0.2l41.3,24.1c0.7,0.4,1,1.4,0.5,2.1C684.3,259.9,684.1,260,683.9,260.2z"/>
	<polygon class="st5" points="686.2,312.3 686.2,312.3 686.2,312.3 	"/>
	<path class="st4" d="M775.4,311l-20.6-12l-22.9-13.4L709,299l-20.6,12c-0.7,0.4-1.6,0.2-2.1-0.6c-0.1-0.2-0.2-0.5-0.2-0.7v-50
		c0-0.5,0.3-1,0.7-1.3l44.2-25.9c0.5-0.3,1-0.3,1.5,0l44.2,25.9c0.5,0.3,0.7,0.8,0.8,1.3v50c0,0.8-0.7,1.5-1.5,1.5
		C775.8,311.2,775.6,311.1,775.4,311z"/>
	<path class="st5" d="M777.6,368.4c0-0.8,0.6-1.5,1.5-1.5c0.3,0,0.5,0.1,0.8,0.2L777.6,368.4z"/>
	<path class="st4" d="M823.4,312.3v25.9c0,0.5-0.3,1-0.8,1.3l-42.7,25c-0.7,0.4-1.6,0.2-2-0.5c-0.1-0.2-0.2-0.5-0.2-0.8v-50.9l0,0
		l22.9-13.3l22.9-13.4l0,0V312.3z"/>
	<path class="st4" d="M912.6,286.9L892,299l-22.9,13.4L846.2,299l-20.7-12.1c-0.7-0.4-1-1.4-0.5-2.1c0.1-0.2,0.3-0.4,0.5-0.5
		l42.8-25c0.5-0.3,1-0.3,1.5,0l42.8,25c0.7,0.4,1,1.3,0.6,2C913.1,286.6,912.9,286.8,912.6,286.9z"/>
	<path class="st6" d="M912.6,233.4l-42.8,25c-0.5,0.3-1,0.3-1.5,0l-42.8-25c-0.7-0.4-1-1.4-0.5-2.1c0.1-0.2,0.3-0.4,0.5-0.5l42.8-25
		c0.5-0.3,1-0.3,1.5,0l42.8,25c0.7,0.4,1,1.3,0.6,2C913.1,233.1,912.9,233.3,912.6,233.4z"/>
	<path class="st6" d="M958.3,257.5l-42.7-25c-0.5-0.3-0.7-0.8-0.7-1.3v-50c0-0.8,0.6-1.5,1.5-1.5c0.3,0,0.5,0.1,0.8,0.2l42.7,25
		c0.5,0.3,0.8,0.8,0.8,1.3v50c0,0.8-0.7,1.5-1.5,1.5C958.8,257.8,958.6,257.7,958.3,257.5z"/>
	<path class="st4" d="M1006.3,312.3v24.1c0,0.8-0.7,1.5-1.5,1.5c-0.3,0-0.5-0.1-0.8-0.2l-43.5-25.4l0,0l22.9-13.3l20.6-12
		c0.7-0.4,1.6-0.2,2.1,0.5c0.1,0.2,0.2,0.5,0.2,0.8V312.3z"/>
	<path class="st6" d="M1049.9,206.7l-41.3,24.1c-0.7,0.4-1.6,0.2-2.1-0.5c-0.1-0.2-0.2-0.5-0.2-0.8v-48.2c0-0.8,0.7-1.5,1.5-1.5
		c0.3,0,0.5,0.1,0.8,0.2l41.3,24.1c0.7,0.4,1,1.3,0.6,2C1050.3,206.4,1050.1,206.6,1049.9,206.7z"/>
	<path class="st6" d="M1049.9,153.2l-41.3,24.1c-0.7,0.4-1.6,0.2-2.1-0.6c-0.1-0.2-0.2-0.5-0.2-0.7v-48.2c0-0.8,0.7-1.5,1.5-1.5
		c0.3,0,0.5,0.1,0.7,0.2l41.3,24.1c0.7,0.4,1,1.3,0.6,2C1050.3,152.9,1050.1,153.1,1049.9,153.2z"/>
	<path class="st6" d="M1052.1,208c0-0.8,0.6-1.5,1.5-1.5c0.3,0,0.5,0.1,0.8,0.2l41.3,24.1c0.7,0.4,1,1.4,0.5,2.1
		c-0.1,0.2-0.3,0.4-0.5,0.5l-41.3,24.1c-0.7,0.4-1.6,0.2-2-0.5c-0.1-0.2-0.2-0.5-0.2-0.8V208z"/>
	<path class="st4" d="M1095.6,286.9L1075,299l-22.9,13.4v-50.9c0-0.8,0.7-1.5,1.5-1.5c0.3,0,0.5,0.1,0.8,0.2l41.3,24.1
		c0.7,0.4,0.9,1.4,0.5,2.1C1096,286.6,1095.8,286.8,1095.6,286.9z"/>
	<path class="st6" d="M1189.3,229.5c0,0.8-0.7,1.5-1.5,1.5c-0.3,0-0.5-0.1-0.8-0.2l-41.3-24.1c-0.7-0.4-1-1.3-0.6-2
		c0.1-0.2,0.3-0.4,0.6-0.6l41.3-24.1c0.7-0.4,1.6-0.2,2.1,0.5c0.1,0.2,0.2,0.5,0.2,0.8V229.5z"/>
	<path class="st6" d="M1189.3,176.1c0,0.8-0.7,1.5-1.5,1.5c-0.3,0-0.5-0.1-0.7-0.2l-41.3-24.1c-0.7-0.4-1-1.3-0.6-2
		c0.1-0.2,0.3-0.4,0.6-0.6l41.3-24.1c0.7-0.4,1.6-0.2,2.1,0.6c0.1,0.2,0.2,0.5,0.2,0.7V176.1z"/>
	<path class="st4" d="M1235.2,309c0,0.8-0.7,1.5-1.5,1.5c-0.3,0-0.5-0.1-0.8-0.2l-41.3-24.1c-0.7-0.4-1-1.4-0.5-2.1
		c0.1-0.2,0.3-0.4,0.5-0.5l41.3-24.1c0.7-0.4,1.6-0.2,2.1,0.5c0.1,0.2,0.2,0.5,0.2,0.8V309z"/>
	<path class="st6" d="M1326.6,255.7c0,0.8-0.7,1.5-1.5,1.5c-0.3,0-0.5-0.1-0.8-0.2l-42.7-25c-0.5-0.3-0.7-0.8-0.8-1.3v-52
		l-43.5,25.4c-0.7,0.4-1.6,0.2-2.1-0.6c-0.1-0.2-0.2-0.5-0.2-0.7v-50c0-0.5,0.3-1,0.7-1.3l42.7-25c0.7-0.4,1.6-0.2,2.1,0.5
		c0.1,0.2,0.2,0.5,0.2,0.8v-0.6c0-0.8,0.7-1.5,1.5-1.5c0.3,0,0.5,0.1,0.7,0.2l42.7,25c0.5,0.3,0.7,0.8,0.7,1.3V255.7z"/>
	<path class="st6" d="M1371.5,231.1l-42.8-25c-0.7-0.4-1-1.3-0.6-2c0.1-0.2,0.3-0.4,0.6-0.6l42.8-25c0.5-0.3,1-0.3,1.5,0l42.8,25
		c0.7,0.4,1,1.3,0.6,2c-0.1,0.2-0.3,0.4-0.6,0.6l-42.8,25C1372.6,231.4,1372,231.4,1371.5,231.1z"/>
	<path class="st4" d="M1418,309.2c0,0.8-0.7,1.5-1.5,1.5c-0.3,0-0.5-0.1-0.7-0.2l-20.6-12l-20.7-12.1c-0.7-0.4-1-1.4-0.5-2.1
		c0.1-0.2,0.3-0.4,0.5-0.5l41.3-24.1c0.7-0.4,1.6-0.2,2.1,0.6c0.1,0.2,0.2,0.5,0.2,0.7V309.2z"/>
	<path class="st4" d="M1554.5,285.5l-22.1,12.9l-22.1,12.9c-0.5,0.3-1,0.3-1.5,0l-22.1-12.9l-20.7-12.1c-0.7-0.4-1-1.4-0.5-2.1
		c0.1-0.2,0.3-0.4,0.5-0.5l43.5-25.4l45-26.3c0.5-0.3,1-0.3,1.5,0l44.2,25.9c0.5,0.3,0.7,0.8,0.8,1.3v50c0,0.8-0.7,1.5-1.5,1.5
		c-0.3,0-0.5-0.1-0.8-0.2l-20.6-12l-22.1-13C1555.5,285.2,1555,285.2,1554.5,285.5z"/>
	<path class="st4" d="M1644.5,339.8l-42.8,25c-0.5,0.3-1,0.3-1.5,0l-42.8-25c-0.7-0.4-1-1.4-0.5-2.1c0.1-0.2,0.3-0.4,0.5-0.5
		l42.8-25c0.5-0.3,1-0.3,1.5,0l42.8,25c0.7,0.4,1,1.4,0.5,2.1C1644.9,339.5,1644.8,339.7,1644.5,339.8z"/>
	<path class="st4" d="M1736,286.4l-20.6,12.1l-22.1,12.9c-0.5,0.3-1,0.3-1.5,0l-22.1-12.9l-20.6-12.1c-0.7-0.4-1-1.4-0.5-2.1
		c0.1-0.2,0.3-0.4,0.5-0.5l42.8-25c0.5-0.3,1-0.3,1.5,0l42.8,25c0.7,0.4,0.9,1.4,0.5,2.1C1736.4,286,1736.2,286.2,1736,286.4z"/>
	<path class="st4" d="M1781.7,363.9L1739,339c-0.5-0.3-0.7-0.8-0.8-1.3v-50c0-0.8,0.7-1.5,1.5-1.5c0.3,0,0.5,0.1,0.8,0.2l20.6,12
		l22.1,12.9c0.5,0.3,0.7,0.8,0.7,1.3v50c0,0.8-0.7,1.5-1.5,1.5C1782.2,364.1,1781.9,364.1,1781.7,363.9z"/>
	<path class="st5" d="M1783.2,365.7c0.5-0.3,1-0.3,1.5,0H1783.2z"/>
	<path class="st4" d="M1829.7,284.2c0,0.5-0.3,1-0.8,1.3l-22.1,12.9l-20.6,12c-0.7,0.4-1.6,0.2-2.1-0.5c-0.1-0.2-0.2-0.5-0.2-0.8
		v-49.6c0-0.5,0.3-1,0.7-1.3l42.8-25.3c0.7-0.4,1.6-0.2,2.1,0.5c0.1,0.2,0.2,0.5,0.2,0.7V284.2z"/>
	<path class="st3" d="M1921.2,442.8c0,0.8-0.7,1.5-1.5,1.5c-0.3,0-0.5-0.1-0.7-0.2l-41.3-24.1c-0.7-0.4-1-1.4-0.5-2.1
		c0.1-0.2,0.3-0.4,0.5-0.5l41.3-24.1c0.7-0.4,1.6-0.2,2.1,0.5c0.1,0.2,0.2,0.5,0.2,0.8L1921.2,442.8z"/>
	<path class="st4" d="M2010.5,286.4l-20.7,12.1l-22.1,12.9c-0.5,0.3-1,0.3-1.5,0l-22.1-12.9l-22.9-13.4l-43.5-25.4
		c-0.7-0.4-1-1.4-0.5-2.1c0.1-0.2,0.3-0.4,0.5-0.5l42.8-25c0.5-0.3,1-0.3,1.5,0l45,26.3l43.5,25.4c0.7,0.4,1,1.3,0.5,2
		C2010.9,286,2010.7,286.2,2010.5,286.4z"/>
	<path class="st3" d="M2056.2,580.4l-41.2,24.1c-0.7,0.4-1.6,0.2-2-0.5c-0.1-0.2-0.2-0.5-0.2-0.8V555c0-0.8,0.6-1.5,1.5-1.5
		c0.3,0,0.5,0.1,0.8,0.2l41.3,24.1c0.7,0.4,0.9,1.4,0.5,2.1C2056.6,580.1,2056.4,580.3,2056.2,580.4z"/>
	<path class="st4" d="M2056.2,363.9l-41.3-24.1c-0.7-0.4-1-1.4-0.5-2.1c0.1-0.2,0.3-0.4,0.5-0.5l41.3-24.1c0.7-0.4,1.6-0.2,2.1,0.5
		c0.1,0.2,0.2,0.5,0.2,0.8v48.2c0,0.8-0.7,1.5-1.5,1.5C2056.7,364.1,2056.4,364.1,2056.2,363.9z"/>
	<path class="st3" d="M2102,446.7l-20.6,12.1l-20.6,12c-0.7,0.4-1.6,0.2-2.1-0.5c-0.1-0.2-0.2-0.5-0.2-0.8v-48.2
		c0-0.8,0.7-1.5,1.5-1.5c0.3,0,0.5,0.1,0.8,0.2l41.3,24.1c0.7,0.4,1,1.4,0.5,2.1C2102.4,446.4,2102.2,446.6,2102,446.7z"/>
	<path class="st3" d="M2193.4,446.7l-20.6,12.1l-20.6,12c-0.7,0.4-1.6,0.2-2.1-0.5c-0.1-0.2-0.2-0.5-0.2-0.8v-48.2
		c0-0.8,0.7-1.5,1.5-1.5c0.3,0,0.5,0.1,0.7,0.2l41.3,24.1c0.7,0.4,1,1.4,0.5,2.1C2193.9,446.4,2193.7,446.6,2193.4,446.7z"/>
	<path class="st3" d="M2195.7,392l-43.5,25.4c-0.7,0.4-1.6,0.2-2.1-0.5c-0.1-0.2-0.2-0.5-0.2-0.8v-50c0-0.5,0.3-1,0.8-1.3l42.7-25
		c0.7-0.4,1.6-0.2,2,0.5c0.1,0.2,0.2,0.5,0.2,0.8v24.1l0,0V392L2195.7,392z"/>
	<path class="st7" d="M2239.2,740.8l-41.3,24.1c-0.7,0.4-1.6,0.2-2-0.5c-0.1-0.2-0.2-0.5-0.2-0.8v-48.2c0-0.8,0.6-1.5,1.5-1.5
		c0.3,0,0.5,0.1,0.8,0.2l41.3,24.1c0.7,0.4,1,1.3,0.6,2C2239.6,740.5,2239.4,740.6,2239.2,740.8z"/>
	<path class="st8" d="M2241.4,576.5c0,0.8-0.7,1.5-1.5,1.5c-0.3,0-0.5-0.1-0.8-0.2l-41.3-24.1c-0.7-0.4-1-1.3-0.6-2
		c0.1-0.2,0.3-0.4,0.6-0.6l41.3-24.1c0.7-0.4,1.6-0.2,2.1,0.5c0.1,0.2,0.2,0.5,0.2,0.8V576.5z"/>
	<path class="st3" d="M2287.2,391.1c0,0.5-0.3,1-0.8,1.3l-42.7,25c-0.7,0.4-1.6,0.2-2.1-0.5c-0.1-0.2-0.2-0.5-0.2-0.8v-50
		c0-0.5,0.3-1,0.7-1.3l42.7-25c0.7-0.4,1.6-0.2,2.1,0.6c0.1,0.2,0.2,0.5,0.2,0.7V391.1z"/>
	<path class="st3" d="M2332.9,523c0,0.8-0.7,1.5-1.5,1.5c-0.3,0-0.5-0.1-0.7-0.2l-41.3-24.1c-0.7-0.4-1-1.4-0.5-2.1
		c0.1-0.2,0.3-0.4,0.5-0.5l41.3-24.1c0.7-0.4,1.6-0.2,2.1,0.5c0.1,0.2,0.2,0.5,0.2,0.8V523z"/>
	<path class="st3" d="M2376.4,393.3l-42.8,25c-0.5,0.3-1,0.3-1.5,0l-42.8-25c-0.7-0.4-1-1.4-0.5-2.1c0.1-0.2,0.3-0.4,0.5-0.5
		l42.8-25c0.5-0.3,1-0.3,1.5,0l42.8,25c0.7,0.4,1,1.4,0.5,2.1C2376.8,393,2376.6,393.2,2376.4,393.3z"/>
	<path class="st8" d="M2424.4,576.5c0,0.8-0.6,1.5-1.5,1.5c-0.3,0-0.5-0.1-0.8-0.2l-41.3-24.1c-0.7-0.4-1-1.3-0.6-2
		c0.1-0.2,0.3-0.4,0.6-0.6l41.3-24.1c0.7-0.4,1.6-0.2,2,0.5c0.1,0.2,0.2,0.5,0.2,0.8V576.5z"/>
	<path class="st3" d="M2424.4,469.5c0,0.8-0.6,1.5-1.5,1.5c-0.3,0-0.5-0.1-0.8-0.2l-20.6-12l-22.1-12.9c-0.5-0.3-0.7-0.8-0.8-1.3
		v-50c0-0.8,0.7-1.5,1.5-1.5c0.3,0,0.5,0.1,0.8,0.2l42.7,25c0.5,0.3,0.7,0.8,0.7,1.3V469.5z"/>
	<path class="st8" d="M2513.7,633.9l-41.3,24.1c-0.7,0.4-1.6,0.2-2-0.5c-0.1-0.2-0.2-0.5-0.2-0.8v-48.3c0-0.8,0.7-1.5,1.5-1.5
		c0.3,0,0.5,0.1,0.8,0.2l41.3,24.1c0.7,0.4,1,1.4,0.5,2.1C2514.1,633.5,2513.9,633.7,2513.7,633.9z"/>
	<path class="st7" d="M2423.7,790.3c0,0.8-0.7,1.5-1.5,1.5c-0.3,0-0.5-0.1-0.7-0.2l-41.3-24.1c-0.7-0.4-1-1.3-0.6-2
		c0.1-0.2,0.3-0.4,0.6-0.6l41.3-24.1c0.7-0.4,1.6-0.2,2.1,0.6c0.1,0.2,0.2,0.5,0.2,0.7V790.3z"/>
</g>
</svg>
