<svg xmlns="http://www.w3.org/2000/svg" xmlns:xlink="http://www.w3.org/1999/xlink" viewBox="0 0 385 350"><defs><style>.cls-1{fill:url(#linear-gradient);filter:url(#luminosity-noclip);}.cls-2{fill:url(#linear-gradient-2);}.cls-3{mask:url(#mask);}.cls-4{clip-path:url(#clip-path);}.cls-5{fill:url(#linear-gradient-4);}</style><linearGradient id="linear-gradient" x1="6445.33" y1="-49.28" x2="6446.35" y2="-49.28" gradientTransform="matrix(0, 429.52, 429.52, 0, 21462.12, -2768376.26)" gradientUnits="userSpaceOnUse"><stop offset="0" stop-color="#fff"/><stop offset="1"/></linearGradient><linearGradient id="linear-gradient-2" y1="165.11" x2="590.86" y2="165.11" gradientUnits="userSpaceOnUse"><stop offset="0" stop-color="#29235c"/><stop offset="0.26" stop-color="#662483"/><stop offset="0.48" stop-color="#951b81"/></linearGradient><filter id="luminosity-noclip" x="0" y="0" width="590.86" height="330.4" filterUnits="userSpaceOnUse" color-interpolation-filters="sRGB"><feFlood flood-color="#fff" result="bg"/><feBlend in="SourceGraphic" in2="bg"/></filter><mask id="mask" x="0" y="0" width="590.86" height="330.4" maskUnits="userSpaceOnUse"><rect class="cls-1" width="590.86" height="330.21"/></mask><clipPath id="clip-path"><path class="cls-2" d="M590.86,119.34a.74.74,0,0,1,0-1.29M181.45,172h0L203,184.58a.75.75,0,0,0,1.12-.65V158.77h0l-21.56-12.58a.74.74,0,0,0-1.12.64v11.94h0Zm68,14.53a.75.75,0,0,0-1.12-.65l-20.46,11.94a.74.74,0,0,0,0,1.28l10.24,6,11.34,6.62V186.53Zm-66.94,11.29a.74.74,0,0,0,0,1.28l10.24,6L203,211a.75.75,0,0,0,1.12-.65V186.53a.75.75,0,0,0-1.12-.65ZM159.89,264,180.35,252a.75.75,0,0,0,0-1.29L159.89,238.8a.75.75,0,0,0-1.12.65v23.87a.74.74,0,0,0,1.12.64M135,172.64a.73.73,0,0,0,0-1.28l-20.45-11.94a.74.74,0,0,0-1.12.64v23.87a.75.75,0,0,0,1.12.65Zm250.6-66.37a.74.74,0,0,0-.37-.64l-21.94-12.8a.77.77,0,0,0-.75,0l-21.93,12.8a.74.74,0,0,0-.37.64V131a.74.74,0,0,0,1.12.64l10.22-6,11.34-6.61,11.34,6.61,10.22,6a.74.74,0,0,0,1.12-.64Zm11.34,19.42-11.34,6.62v25.16a.74.74,0,0,0,1.12.64l21.19-12.36a.73.73,0,0,0,.37-.64v-26ZM45.36,91.32V67.45a.74.74,0,0,0-1.12-.64L23.78,78.74a.75.75,0,0,0,0,1.29L44.24,92a.74.74,0,0,0,1.12-.64M90.72,38.4V14.53a.75.75,0,0,0-1.12-.65L69.15,25.82a.73.73,0,0,0,0,1.28L89.6,39a.74.74,0,0,0,1.12-.64M68,131a.74.74,0,0,0,1.12.64l10.22-6,11.34-6.61L69.16,106.5a.75.75,0,0,0-1.12.64ZM181.45,64.86V41a.74.74,0,0,0-1.12-.64L159.87,52.28a.75.75,0,0,0,0,1.29L180.33,65.5a.74.74,0,0,0,1.12-.64m69.16-12.59,20.46-11.93a.75.75,0,0,0,0-1.29L250.61,27.12a.74.74,0,0,0-1.12.64V51.63a.75.75,0,0,0,1.12.64M589.71.74V12.8a.76.76,0,0,1-.37.65L567.4,26.24a.72.72,0,0,1-.75,0L545.47,13.88a.75.75,0,0,0-1.12.65V39.26a.76.76,0,0,0,.37.65l21.21,12.37a.75.75,0,0,1,0,1.29L544.72,65.94a.77.77,0,0,1-.75,0L522,53.14a.75.75,0,0,1-.36-.64V27.76a.74.74,0,0,0-1.12-.64L499.36,39.47a.72.72,0,0,1-.75,0L477.42,27.12a.74.74,0,0,0-1.12.64V51.63a.74.74,0,0,1-1.12.64L454,39.91a.76.76,0,0,1-.37-.65V14.53a.75.75,0,0,0-1.12-.65L432,25.82a.74.74,0,0,0,0,1.28l21.21,12.38a.74.74,0,0,1,.37.64V65.73a.74.74,0,0,1-.37.64L432.06,78.73a.74.74,0,0,1-1.12-.64V53.35a.74.74,0,0,0-.37-.64l-22.31-13L386.7,27.12a.74.74,0,0,0-1.12.64V51.63a.74.74,0,0,0,1.12.64l20.44-11.92a.74.74,0,0,1,1.12.64v51.2a.74.74,0,0,1-.37.64L386.7,105.19a.74.74,0,0,1-1.12-.64V79.81a.74.74,0,0,0-.37-.64L364,66.81a.74.74,0,0,0-1.12.64V91.32a.75.75,0,0,1-1.12.64L340.22,79.38,317.54,66.15l21.57-12.58a.74.74,0,0,0,0-1.29L317.54,39.69V91.32a.75.75,0,0,1-1.12.64L294.85,79.38,273.29,66.81a.74.74,0,0,0-1.12.64V91.32a.75.75,0,0,0,1.12.64L293.73,80a.74.74,0,0,1,1.12.64v24.74a.74.74,0,0,1-.37.64l-22.31,13-11.34,6.61-10.22,6a.74.74,0,0,1-1.12-.64V80.68a.74.74,0,0,0-1.12-.64L227.18,92.4a.74.74,0,0,0-.37.64v25.61a.74.74,0,0,1-.37.64l-11,6.4-11.34,6.62-11.34-6.62-10.24-6a.75.75,0,0,1,0-1.29L203,106.49a.75.75,0,0,0,0-1.29L181.45,92.62,159.89,80a.74.74,0,0,0-1.12.64v23.87a.75.75,0,0,1-1.12.64L136.46,92.83a.74.74,0,0,1-.37-.64V67.45a.74.74,0,0,0-1.12-.64L114.51,78.74a.75.75,0,0,0,0,1.29L135.72,92.4a.74.74,0,0,1,.37.64v26l-11.34,6.61-11.34,6.62v25.16a.74.74,0,0,1-1.12.64L90.72,145.54l-22.3,13a.72.72,0,0,1-.75,0l-22.31-13V170.7a.75.75,0,0,1-1.12.65L23.8,159.42a.74.74,0,0,0-1.12.64v23.87a.75.75,0,0,0,1.12.65L45,172.22a.72.72,0,0,1,.75,0l22.3,13,21.58,12.59a.74.74,0,0,1,0,1.28l-10.24,6L68,211.69V186.53a.75.75,0,0,0-1.12-.65L45.36,198.46,22.68,185.23,0,172H0V145.54l44.26-25.82a.75.75,0,0,0,0-1.29l-21.2-12.37a.77.77,0,0,0-.75,0L1.12,118.42A.74.74,0,0,1,0,117.78V.74A.74.74,0,0,1,.74,0H589a.74.74,0,0,1,.75.74M273.29,330.11l20.46-11.93a.75.75,0,0,0,0-1.29L273.29,305a.75.75,0,0,0-1.12.64v23.87a.75.75,0,0,0,1.12.64m44.25-131.65Zm-45.37,78.09V252.68a.74.74,0,0,0-1.12-.64L250.59,264a.75.75,0,0,0,0,1.29l20.46,11.93a.74.74,0,0,0,1.12-.64m-22.68-143v23.87a.74.74,0,0,0,1.12.64l20.46-11.93a.75.75,0,0,0,0-1.29L250.61,133a.75.75,0,0,0-1.12.64m181.08-54L409.36,92a.75.75,0,0,0,0,1.29l21.21,12.37a.77.77,0,0,0,.75,0l21.2-12.37a.75.75,0,0,0,0-1.29L431.32,79.6a.77.77,0,0,0-.75,0M294.85,132.31Zm-135-25.81a.74.74,0,0,0-1.12.64V131a.74.74,0,0,1-1.12.64l-10.22-6-10.22-6a.74.74,0,0,0-1.12.64v23.87a.74.74,0,0,0,1.12.64l21.56-12.57,11.34-6.62,10.24-6a.75.75,0,0,0,0-1.29Zm-1.12,53.56a.75.75,0,0,0-1.12-.64l-21.19,12.36a.76.76,0,0,0-.37.65v24.73a.75.75,0,0,0,1.12.65l21.56-12.58V160.06Zm113.4-27.75v11.93a.74.74,0,0,0,1.12.64L293.75,133a.75.75,0,0,0,0-1.29l-10.24-6-10.22-6a.75.75,0,0,0-1.12.64ZM68,183.93a.75.75,0,0,0,1.12.65L90.73,172h0L69.16,159.42a.75.75,0,0,0-1.12.64V172h0Zm45.37,132.31V292.37a.75.75,0,0,0-1.12-.64L91.83,303.66a.74.74,0,0,0,0,1.29l20.46,11.93a.75.75,0,0,0,1.12-.64M21.58,211.05l-10.24-6-10.22-6a.75.75,0,0,0-1.12.65v23.87a.74.74,0,0,0,1.12.64l20.46-11.94a.74.74,0,0,0,0-1.28M69.16,264,89.62,252a.74.74,0,0,0,0-1.29L69.16,238.8a.75.75,0,0,0-1.12.65v23.87a.75.75,0,0,0,1.12.64m-23.8-13.87V226.22a.75.75,0,0,0-1.12-.65L23.78,237.51a.74.74,0,0,0,0,1.28l20.46,11.94a.74.74,0,0,0,1.12-.64m0,52.92V279.14a.74.74,0,0,0-1.12-.64L23.78,290.43a.75.75,0,0,0,0,1.29l20.46,11.93a.74.74,0,0,0,1.12-.64M475.93,79.17,454.74,66.81a.74.74,0,0,0-1.12.64V92.19a.74.74,0,0,0,.37.64l21.19,12.36a.74.74,0,0,0,1.12-.64V79.81a.74.74,0,0,0-.37-.64M317.54,198.46Zm69.16-39a.74.74,0,0,0-1.12.64m-45.36-27.75Zm-22.68-38.4v23.87a.74.74,0,0,0,1.11.64l20.46-11.93a.74.74,0,0,0,0-1.29L318.65,93.27a.74.74,0,0,0-1.11.64m1.11,103.9,20.46-11.94a.73.73,0,0,0,0-1.28l-20.46-11.94a.74.74,0,0,0-1.11.65v23.86a.74.74,0,0,0,1.11.65M499,120.37a.74.74,0,0,0-1.12-.64l-10.22,6-11.34,6.62,21.56,12.57a.74.74,0,0,0,1.12-.64V120.37Zm-67.66-14.31a.77.77,0,0,0-.75,0l-21.21,12.37a.75.75,0,0,0,0,1.29l10.24,6,11.34,6.62,11.34-6.62,10.24-6a.75.75,0,0,0,0-1.29Zm89.24-53.78L500.1,40.35A.74.74,0,0,0,499,41V64.86a.75.75,0,0,0,1.12.64l20.46-11.93a.74.74,0,0,0,0-1.29m47.57,1.29L588.59,65.5a.74.74,0,0,0,1.12-.64V41a.74.74,0,0,0-1.12-.64L568.13,52.28a.75.75,0,0,0,0,1.29m0,26.46L588.59,92a.74.74,0,0,0,1.12-.64V67.45a.74.74,0,0,0-1.12-.64L568.13,78.74a.75.75,0,0,0,0,1.29m22-67a.73.73,0,0,0-.37.64V38.4a.74.74,0,0,0,1.12.64m-68.05,66.15,20.46-11.93a.74.74,0,0,0,0-1.29L522.78,80a.74.74,0,0,0-1.11.64v23.87a.74.74,0,0,0,1.11.64m20.46,14.53a.74.74,0,0,0,0-1.29L522.78,106.5a.74.74,0,0,0-1.11.64v25.17L533,125.69ZM500.1,66.81l20.46,11.93a.74.74,0,0,1,0,1.29L500.1,92a.75.75,0,0,1-1.12-.64V67.45a.74.74,0,0,1,1.12-.64"/></clipPath><linearGradient id="linear-gradient-4" x1="6439.55" y1="-33.85" x2="6440.57" y2="-33.85" gradientTransform="matrix(1300.4, 0, 0, -1300.4, -8373866.23, -43857.01)" xlink:href="#linear-gradient-2"/></defs><g id="Layer_2" data-name="Layer 2"><g class="cls-3"><path class="cls-2" d="M590.86,119.34a.74.74,0,0,1,0-1.29M181.45,172h0L203,184.58a.75.75,0,0,0,1.12-.65V158.77h0l-21.56-12.58a.74.74,0,0,0-1.12.64v11.94h0Zm68,14.53a.75.75,0,0,0-1.12-.65l-20.46,11.94a.74.74,0,0,0,0,1.28l10.24,6,11.34,6.62V186.53Zm-66.94,11.29a.74.74,0,0,0,0,1.28l10.24,6L203,211a.75.75,0,0,0,1.12-.65V186.53a.75.75,0,0,0-1.12-.65ZM159.89,264,180.35,252a.75.75,0,0,0,0-1.29L159.89,238.8a.75.75,0,0,0-1.12.65v23.87a.74.74,0,0,0,1.12.64M135,172.64a.73.73,0,0,0,0-1.28l-20.45-11.94a.74.74,0,0,0-1.12.64v23.87a.75.75,0,0,0,1.12.65Zm250.6-66.37a.74.74,0,0,0-.37-.64l-21.94-12.8a.77.77,0,0,0-.75,0l-21.93,12.8a.74.74,0,0,0-.37.64V131a.74.74,0,0,0,1.12.64l10.22-6,11.34-6.61,11.34,6.61,10.22,6a.74.74,0,0,0,1.12-.64Zm11.34,19.42-11.34,6.62v25.16a.74.74,0,0,0,1.12.64l21.19-12.36a.73.73,0,0,0,.37-.64v-26ZM45.36,91.32V67.45a.74.74,0,0,0-1.12-.64L23.78,78.74a.75.75,0,0,0,0,1.29L44.24,92a.74.74,0,0,0,1.12-.64M90.72,38.4V14.53a.75.75,0,0,0-1.12-.65L69.15,25.82a.73.73,0,0,0,0,1.28L89.6,39a.74.74,0,0,0,1.12-.64M68,131a.74.74,0,0,0,1.12.64l10.22-6,11.34-6.61L69.16,106.5a.75.75,0,0,0-1.12.64ZM181.45,64.86V41a.74.74,0,0,0-1.12-.64L159.87,52.28a.75.75,0,0,0,0,1.29L180.33,65.5a.74.74,0,0,0,1.12-.64m69.16-12.59,20.46-11.93a.75.75,0,0,0,0-1.29L250.61,27.12a.74.74,0,0,0-1.12.64V51.63a.75.75,0,0,0,1.12.64M589.71.74V12.8a.76.76,0,0,1-.37.65L567.4,26.24a.72.72,0,0,1-.75,0L545.47,13.88a.75.75,0,0,0-1.12.65V39.26a.76.76,0,0,0,.37.65l21.21,12.37a.75.75,0,0,1,0,1.29L544.72,65.94a.77.77,0,0,1-.75,0L522,53.14a.75.75,0,0,1-.36-.64V27.76a.74.74,0,0,0-1.12-.64L499.36,39.47a.72.72,0,0,1-.75,0L477.42,27.12a.74.74,0,0,0-1.12.64V51.63a.74.74,0,0,1-1.12.64L454,39.91a.76.76,0,0,1-.37-.65V14.53a.75.75,0,0,0-1.12-.65L432,25.82a.74.74,0,0,0,0,1.28l21.21,12.38a.74.74,0,0,1,.37.64V65.73a.74.74,0,0,1-.37.64L432.06,78.73a.74.74,0,0,1-1.12-.64V53.35a.74.74,0,0,0-.37-.64l-22.31-13L386.7,27.12a.74.74,0,0,0-1.12.64V51.63a.74.74,0,0,0,1.12.64l20.44-11.92a.74.74,0,0,1,1.12.64v51.2a.74.74,0,0,1-.37.64L386.7,105.19a.74.74,0,0,1-1.12-.64V79.81a.74.74,0,0,0-.37-.64L364,66.81a.74.74,0,0,0-1.12.64V91.32a.75.75,0,0,1-1.12.64L340.22,79.38,317.54,66.15l21.57-12.58a.74.74,0,0,0,0-1.29L317.54,39.69V91.32a.75.75,0,0,1-1.12.64L294.85,79.38,273.29,66.81a.74.74,0,0,0-1.12.64V91.32a.75.75,0,0,0,1.12.64L293.73,80a.74.74,0,0,1,1.12.64v24.74a.74.74,0,0,1-.37.64l-22.31,13-11.34,6.61-10.22,6a.74.74,0,0,1-1.12-.64V80.68a.74.74,0,0,0-1.12-.64L227.18,92.4a.74.74,0,0,0-.37.64v25.61a.74.74,0,0,1-.37.64l-11,6.4-11.34,6.62-11.34-6.62-10.24-6a.75.75,0,0,1,0-1.29L203,106.49a.75.75,0,0,0,0-1.29L181.45,92.62,159.89,80a.74.74,0,0,0-1.12.64v23.87a.75.75,0,0,1-1.12.64L136.46,92.83a.74.74,0,0,1-.37-.64V67.45a.74.74,0,0,0-1.12-.64L114.51,78.74a.75.75,0,0,0,0,1.29L135.72,92.4a.74.74,0,0,1,.37.64v26l-11.34,6.61-11.34,6.62v25.16a.74.74,0,0,1-1.12.64L90.72,145.54l-22.3,13a.72.72,0,0,1-.75,0l-22.31-13V170.7a.75.75,0,0,1-1.12.65L23.8,159.42a.74.74,0,0,0-1.12.64v23.87a.75.75,0,0,0,1.12.65L45,172.22a.72.72,0,0,1,.75,0l22.3,13,21.58,12.59a.74.74,0,0,1,0,1.28l-10.24,6L68,211.69V186.53a.75.75,0,0,0-1.12-.65L45.36,198.46,22.68,185.23,0,172H0V145.54l44.26-25.82a.75.75,0,0,0,0-1.29l-21.2-12.37a.77.77,0,0,0-.75,0L1.12,118.42A.74.74,0,0,1,0,117.78V.74A.74.74,0,0,1,.74,0H589a.74.74,0,0,1,.75.74M273.29,330.11l20.46-11.93a.75.75,0,0,0,0-1.29L273.29,305a.75.75,0,0,0-1.12.64v23.87a.75.75,0,0,0,1.12.64m44.25-131.65Zm-45.37,78.09V252.68a.74.74,0,0,0-1.12-.64L250.59,264a.75.75,0,0,0,0,1.29l20.46,11.93a.74.74,0,0,0,1.12-.64m-22.68-143v23.87a.74.74,0,0,0,1.12.64l20.46-11.93a.75.75,0,0,0,0-1.29L250.61,133a.75.75,0,0,0-1.12.64m181.08-54L409.36,92a.75.75,0,0,0,0,1.29l21.21,12.37a.77.77,0,0,0,.75,0l21.2-12.37a.75.75,0,0,0,0-1.29L431.32,79.6a.77.77,0,0,0-.75,0M294.85,132.31Zm-135-25.81a.74.74,0,0,0-1.12.64V131a.74.74,0,0,1-1.12.64l-10.22-6-10.22-6a.74.74,0,0,0-1.12.64v23.87a.74.74,0,0,0,1.12.64l21.56-12.57,11.34-6.62,10.24-6a.75.75,0,0,0,0-1.29Zm-1.12,53.56a.75.75,0,0,0-1.12-.64l-21.19,12.36a.76.76,0,0,0-.37.65v24.73a.75.75,0,0,0,1.12.65l21.56-12.58V160.06Zm113.4-27.75v11.93a.74.74,0,0,0,1.12.64L293.75,133a.75.75,0,0,0,0-1.29l-10.24-6-10.22-6a.75.75,0,0,0-1.12.64ZM68,183.93a.75.75,0,0,0,1.12.65L90.73,172h0L69.16,159.42a.75.75,0,0,0-1.12.64V172h0Zm45.37,132.31V292.37a.75.75,0,0,0-1.12-.64L91.83,303.66a.74.74,0,0,0,0,1.29l20.46,11.93a.75.75,0,0,0,1.12-.64M21.58,211.05l-10.24-6-10.22-6a.75.75,0,0,0-1.12.65v23.87a.74.74,0,0,0,1.12.64l20.46-11.94a.74.74,0,0,0,0-1.28M69.16,264,89.62,252a.74.74,0,0,0,0-1.29L69.16,238.8a.75.75,0,0,0-1.12.65v23.87a.75.75,0,0,0,1.12.64m-23.8-13.87V226.22a.75.75,0,0,0-1.12-.65L23.78,237.51a.74.74,0,0,0,0,1.28l20.46,11.94a.74.74,0,0,0,1.12-.64m0,52.92V279.14a.74.74,0,0,0-1.12-.64L23.78,290.43a.75.75,0,0,0,0,1.29l20.46,11.93a.74.74,0,0,0,1.12-.64M475.93,79.17,454.74,66.81a.74.74,0,0,0-1.12.64V92.19a.74.74,0,0,0,.37.64l21.19,12.36a.74.74,0,0,0,1.12-.64V79.81a.74.74,0,0,0-.37-.64M317.54,198.46Zm69.16-39a.74.74,0,0,0-1.12.64m-45.36-27.75Zm-22.68-38.4v23.87a.74.74,0,0,0,1.11.64l20.46-11.93a.74.74,0,0,0,0-1.29L318.65,93.27a.74.74,0,0,0-1.11.64m1.11,103.9,20.46-11.94a.73.73,0,0,0,0-1.28l-20.46-11.94a.74.74,0,0,0-1.11.65v23.86a.74.74,0,0,0,1.11.65M499,120.37a.74.74,0,0,0-1.12-.64l-10.22,6-11.34,6.62,21.56,12.57a.74.74,0,0,0,1.12-.64V120.37Zm-67.66-14.31a.77.77,0,0,0-.75,0l-21.21,12.37a.75.75,0,0,0,0,1.29l10.24,6,11.34,6.62,11.34-6.62,10.24-6a.75.75,0,0,0,0-1.29Zm89.24-53.78L500.1,40.35A.74.74,0,0,0,499,41V64.86a.75.75,0,0,0,1.12.64l20.46-11.93a.74.74,0,0,0,0-1.29m47.57,1.29L588.59,65.5a.74.74,0,0,0,1.12-.64V41a.74.74,0,0,0-1.12-.64L568.13,52.28a.75.75,0,0,0,0,1.29m0,26.46L588.59,92a.74.74,0,0,0,1.12-.64V67.45a.74.74,0,0,0-1.12-.64L568.13,78.74a.75.75,0,0,0,0,1.29m22-67a.73.73,0,0,0-.37.64V38.4a.74.74,0,0,0,1.12.64m-68.05,66.15,20.46-11.93a.74.74,0,0,0,0-1.29L522.78,80a.74.74,0,0,0-1.11.64v23.87a.74.74,0,0,0,1.11.64m20.46,14.53a.74.74,0,0,0,0-1.29L522.78,106.5a.74.74,0,0,0-1.11.64v25.17L533,125.69ZM500.1,66.81l20.46,11.93a.74.74,0,0,1,0,1.29L500.1,92a.75.75,0,0,1-1.12-.64V67.45a.74.74,0,0,1,1.12-.64"/><g class="cls-4"><rect class="cls-5" width="590.86" height="330.4"/></g></g></g></svg>