<svg id="Layer_1" data-name="Layer 1" xmlns="http://www.w3.org/2000/svg" xmlns:xlink="http://www.w3.org/1999/xlink" viewBox="0 0 50 50"><defs><style>.cls-1{fill:none;}.cls-2{clip-path:url(#clip-path);}.cls-3{fill:url(#linear-gradient);}</style><clipPath id="clip-path"><rect class="cls-1" x="-0.21" y="9.45" width="50.42" height="31.11"/></clipPath><linearGradient id="linear-gradient" x1="-414.84" y1="465.15" x2="-413.57" y2="465.15" gradientTransform="matrix(18.35, 25.26, 25.26, -18.35, -4117.16, 19024.61)" gradientUnits="userSpaceOnUse"><stop offset="0" stop-color="#189cd8"/><stop offset="0.25" stop-color="#004e9a"/><stop offset="0.74" stop-color="#931d80"/><stop offset="1" stop-color="#e4087e"/></linearGradient></defs><g class="cls-2"><path class="cls-3" d="M49.26,35.58h-.63c0-4-.05-7.58-.14-11h0c0-3.46-.12-7-.25-11h.09l0,.27s0,0,0-.27h.09l0,.27h-.07l-.06,0a.87.87,0,0,0-.31,0,2.85,2.85,0,0,0-1.11.23h0c-1,.57-1.35,6.62-1.27,6.75v.65l-17.09-.59L26.72,17v-.13c-.09-6.09-4.14-5.8-4.14-5.88V10.4h.63v.73l-.7-.08-.25,0v0h0V10.4l.63,0,.38,13.34-5.4.13L6.27,24h0a5.46,5.46,0,0,0-1.63.27h0a7,7,0,0,0-2.84,1.31l-.39-.5.38-.51.15.11.71.49-.68.53-.15.11-.4-.49.37-.51a7.23,7.23,0,0,0,2.88,1.21h0a6.18,6.18,0,0,0,1.52.21h.12L17.91,26l5.4-.06.09,13.6h-.63l0-.63.24,0,.73-.11v.76h-.64l0-.63c0-.07,3.91.06,3.94-5.68v-.47L28.51,29l17.06-1.18,0,.64c-.07.14.52,6.17,1.52,6.71h0a2.51,2.51,0,0,0,1,.19,1.29,1.29,0,0,0,.39,0l.06,0h.07l0,.27h-.09l0-.27,0,.27h1.17a1.08,1.08,0,0,1-1,1l-.11-.63.24.59a2.44,2.44,0,0,1-.87.14,3.21,3.21,0,0,1-1.8-.46h0c-1.87-1.67-1.9-7.33-2-7.64l.63,0,0,.64L29.39,30.24l-1.17,2.9-.59-.24h.63c0,.12,0,.25,0,.37,0,6.58-5.08,6.94-5.16,7l-.66,0v-.68h.63l.1.62a2.4,2.4,0,0,1-.4,0h-.64l-.09-13-4.12.05-11.59.23H6.19a7.18,7.18,0,0,1-1.85-.25l.16-.61-.11.62A8.44,8.44,0,0,1,1,25.86l-.66-.48L1,24.86l.17-.14.39.51-.36.51L1,25.61l-.67-.49L1,24.61a8.37,8.37,0,0,1,3.34-1.55l.14.62-.18-.61a7.33,7.33,0,0,1,2-.32h0l11.59-.16L22,22.48,21.61,9.77h.65l.38,0-.06.63h-.64V9.76h.64c.09,0,5.4.22,5.4,7.14h-.63l.58-.26L29.2,19.5,44.86,20l0,.63H44.2c.09-.31-.08-6,1.74-7.71h0a3.4,3.4,0,0,1,1.91-.52,2.2,2.2,0,0,1,.75.11l-.22.6.09-.63a1.07,1.07,0,0,1,1,.94h0c.12,4.05.22,7.6.25,11.07h0c.09,3.47.12,7,.13,11.07h-.63Z"/></g></svg>