<svg id="Layer_1" data-name="Layer 1" xmlns="http://www.w3.org/2000/svg" xmlns:xlink="http://www.w3.org/1999/xlink" viewBox="0 0 50 50"><defs><style>.cls-1{fill:none;}.cls-2{clip-path:url(#clip-path);}.cls-3{fill:url(#linear-gradient);}</style><clipPath id="clip-path"><rect class="cls-1" x="9.15" y="0.21" width="31.7" height="49.57"/></clipPath><linearGradient id="linear-gradient" x1="-260.79" y1="462.78" x2="-259.52" y2="462.78" gradientTransform="matrix(25.08, 0, 0, -25.08, 6550.2, 11632.72)" gradientUnits="userSpaceOnUse"><stop offset="0" stop-color="#189cd8"/><stop offset="0.25" stop-color="#004e9a"/><stop offset="0.74" stop-color="#931d80"/><stop offset="1" stop-color="#e4087e"/></linearGradient></defs><g class="cls-2"><path class="cls-3" d="M34.77,19l.64,0v.38c0,5.33-3.89,7-4,7l-1,.4.17-1.09a56.62,56.62,0,0,0,.57-6.77,18.16,18.16,0,0,0-9.31-16l.28-.58.57-.29a10.32,10.32,0,0,1,1,4.23c-.23,8-13.07,14.11-12.95,25.17-.05,7.13,7.18,13.81,11.52,17l-.39.51-.44.46c-2.34-2.27-5.2-5.78-5.22-9.89a13.75,13.75,0,0,1,2.91-8l1.23-1.77L20.3,32v.2c0,2.72,1.6,3.27,1.58,3.31l-.25.59L21,36.2a38.59,38.59,0,0,1-.32-4.27A12.13,12.13,0,0,1,26.28,21.3L28,20.37l-.83,1.76a5.77,5.77,0,0,0-.46,2.13c-.2,3.85,7,7.91,7.08,15.33,0,4.11-2.88,7.62-5.22,9.89L28.12,49l-.39-.51c4.34-3.24,11.57-9.92,11.52-17,0-4.73-2.28-8.58-5-12.07l.5-.39.64,0-.64,0,.5-.39c2.76,3.56,5.26,7.68,5.26,12.85-.05,8-7.63,14.72-12,18.07l-.82-1c2.25-2.16,4.84-5.5,4.82-9,.1-6.6-6.88-10.23-7.08-15.33A6.75,6.75,0,0,1,26,21.59l.58.27.3.56a10.8,10.8,0,0,0-4.95,9.51,38.15,38.15,0,0,0,.31,4.1l.15,1.13-1-.46c-.11,0-2.36-1.13-2.35-4.48V32l.64,0,.52.37a12.47,12.47,0,0,0-2.68,7.22c0,3.47,2.57,6.81,4.82,9l-.82,1c-4.4-3.34-12-10.07-12-18.07h0c.12-12,13.19-18.5,13-25.17a9.17,9.17,0,0,0-.9-3.64L20.64.93l1.74.85a19.42,19.42,0,0,1,10,17.11,56.47,56.47,0,0,1-.59,7l-.63-.1L31,25.16s3.18-1.19,3.19-5.8c0-.11,0-.22,0-.34l-.07-2,1.21,1.56Z"/></g></svg>